<?xml version="1.0" encoding="iso-8859-1"?>
<!-- Generator: Adobe Illustrator 17.0.0, SVG Export Plug-In . SVG Version: 6.00 Build 0)  -->
<!DOCTYPE svg PUBLIC "-//W3C//DTD SVG 1.1//EN" "http://www.w3.org/Graphics/SVG/1.1/DTD/svg11.dtd">
<svg version="1.1" xmlns="http://www.w3.org/2000/svg" xmlns:xlink="http://www.w3.org/1999/xlink" x="0px" y="0px"
	 width="180.018px" height="507.051px" viewBox="0 0 180.018 507.051" style="enable-background:new 0 0 180.018 507.051;"
	 xml:space="preserve">
<g id="font" style="display:none;">
	<path style="display:inline;stroke:#000000;stroke-width:9;stroke-linecap:round;stroke-linejoin:round;stroke-miterlimit:10;" d="
		M18.312,427.758c0-11.341,7.599-20.16,17.368-20.16s17.368,8.819,17.368,20.16c0,11.34-7.599,20.159-17.368,20.159
		S18.312,439.098,18.312,427.758z M173.538,30.02C173.9,31.28,71.864,310.578,66.074,329.058c-5.427,16.38-7.236,24.36-7.598,28.98
		c1.085,1.68,1.809,3.779,1.809,6.3c0.724,8.399-4.342,14.699-11.217,15.54c-5.065,0-9.77-2.101-12.664-7.141
		c-4.704-7.979-3.618-19.319,4.342-44.939c6.514-23.1,108.55-305.759,111.082-309.539c2.533-7.56,10.132-10.08,16.283-6.72
		C174.261,14.48,176.794,23.299,173.538,30.02z"/>
</g>
<g id="vectorized-fonts">
	
		<line style="fill:none;stroke:#0000FF;stroke-width:28.8;stroke-linecap:round;stroke-linejoin:round;stroke-miterlimit:10;" x1="163.583" y1="17.973" x2="50.617" y2="364.485"/>
	
		<line style="fill:none;stroke:#0000FF;stroke-width:28.8;stroke-linecap:round;stroke-linejoin:round;stroke-miterlimit:10;" x1="32.11" y1="430.654" x2="15.551" y2="488.708"/>
</g>
</svg>
