<?xml version="1.0" encoding="iso-8859-1"?>
<!-- Generator: Adobe Illustrator 17.0.0, SVG Export Plug-In . SVG Version: 6.00 Build 0)  -->
<!DOCTYPE svg PUBLIC "-//W3C//DTD SVG 1.1//EN" "http://www.w3.org/Graphics/SVG/1.1/DTD/svg11.dtd">
<svg version="1.1" xmlns="http://www.w3.org/2000/svg" xmlns:xlink="http://www.w3.org/1999/xlink" x="0px" y="0px"
	 width="87.045px" height="94.026px" viewBox="0 0 87.045 94.026" style="enable-background:new 0 0 87.045 94.026;"
	 xml:space="preserve">
<g id="TEMPLATE_FORM" style="display:none;">
</g>
<g id="font" style="display:none;">
	<path style="display:inline;stroke:#000000;stroke-width:9;stroke-linecap:round;stroke-linejoin:round;stroke-miterlimit:10;" d="
		M19.63,20.874c2.533-7.14,9.77-10.92,15.921-7.98c6.151,2.94,9.407,11.341,6.875,18.48L31.932,61.613
		c-2.171,5.46-6.513,8.82-11.579,8.82c-1.447,0-2.895-0.42-4.342-0.84c-6.151-2.94-9.408-11.34-6.875-18.479L19.63,20.874z
		 M54.728,20.874c2.533-7.14,9.77-10.92,15.921-7.98c6.151,2.94,9.407,11.341,6.875,18.48L67.03,61.613
		c-2.171,5.46-6.513,8.82-11.579,8.82c-1.447,0-2.895-0.42-4.342-0.84c-6.151-2.94-9.408-11.34-6.875-18.479L54.728,20.874z"/>
</g>
<g id="vectorized-fonts">
	<g>
		<path style="fill:none;stroke:#0000FF;stroke-width:28.8;stroke-linecap:round;stroke-linejoin:round;stroke-miterlimit:10;" d="
			M17.164,75.594c8.653-15.053,15.218-38.983,18.322-56.066"/>
		<path style="fill:none;stroke:#0000FF;stroke-width:28.8;stroke-linecap:round;stroke-linejoin:round;stroke-miterlimit:10;" d="
			M52.261,75.594c9.769-14.927,15.557-38.26,19.539-56.7"/>
	</g>
</g>
<g id="KEY" style="display:none;">
</g>
</svg>
