<?xml version="1.0" encoding="iso-8859-1"?>
<!-- Generator: Adobe Illustrator 17.0.0, SVG Export Plug-In . SVG Version: 6.00 Build 0)  -->
<!DOCTYPE svg PUBLIC "-//W3C//DTD SVG 1.1//EN" "http://www.w3.org/Graphics/SVG/1.1/DTD/svg11.dtd">
<svg version="1.1" xmlns="http://www.w3.org/2000/svg" xmlns:xlink="http://www.w3.org/1999/xlink" x="0px" y="0px"
	 width="222.022px" height="233.316px" viewBox="0 0 222.022 233.316" style="enable-background:new 0 0 222.022 233.316;"
	 xml:space="preserve">
<g id="font" style="display:none;">
	<path style="display:inline;stroke:#000000;stroke-width:9;stroke-linecap:round;stroke-linejoin:round;stroke-miterlimit:10;" d="
		M218.003,86.733c-4.704,7.98-14.474,10.92-37.992,11.34l-13.75,0.42c-5.789,14.7-11.578,29.82-16.645,42.84h4.343
		c15.196,0,22.434-0.84,26.052-1.68c1.447-2.1,2.533-3.36,4.703-4.62c6.151-3.359,13.389-0.42,16.283,6.72
		c2.171,5.46,1.809,11.761-1.086,16.381c-4.703,7.979-14.473,10.92-37.992,11.34l-23.881,0.84c-1.086,3.359-2.171,6.3-2.895,7.979
		c-6.514,15.96-8.684,23.94-9.77,28.14c1.086,2.101,1.809,4.2,1.809,6.721c0,7.979-5.427,14.279-12.302,14.279
		c-5.065,0-9.77-2.939-12.302-7.979c-3.98-8.4-2.172-19.74,7.236-44.939l1.085-3.36c-16.282,0.42-34.012,0.84-49.209,0.84
		l-2.532,6.3c-6.514,15.96-8.685,23.94-9.77,28.14c1.085,2.101,1.809,4.2,1.809,6.721c0,7.979-5.428,14.279-12.302,14.279
		c-5.065,0-9.77-2.939-12.303-7.979c-3.979-8.4-2.171-19.74,7.237-44.939l0.723-2.521c-7.96,0-13.025,0-13.749-0.42
		c-6.875,0-11.94-7.14-11.217-15.12c0.362-7.56,6.513-13.439,13.026-12.6l22.795-0.42c5.065-13.021,10.855-27.72,16.645-42.84
		c-13.026,0-22.072,0-23.157-0.42c-6.875,0-11.94-7.141-11.217-15.12c0.361-7.56,6.513-13.44,13.025-12.6
		c0.362,0,14.112-0.421,32.565-0.841C83.04,46.833,91,26.673,92.085,25.413c3.257-7.141,10.855-9.24,16.645-5.46
		s7.961,12.6,4.342,19.319c0,0.42-5.065,13.86-12.302,31.92l48.847-0.84c9.77-24.359,17.368-43.68,18.454-44.939
		c3.257-7.141,10.854-9.24,16.644-5.46c5.79,3.78,7.961,12.6,4.343,19.319c0,0.42-4.704,13.021-11.579,30.66
		c11.579,0,17.368-0.84,20.625-1.68c1.447-2.101,2.532-3.36,4.703-4.62c6.151-3.36,13.389-0.42,16.283,6.72
		C221.259,75.813,220.898,82.113,218.003,86.733z M138.399,99.333c-15.559,0.42-32.926,0.84-48.847,1.26l-16.645,42
		c16.282,0,34.374-0.42,49.209-0.841L138.399,99.333z"/>
</g>
<g id="vectorized-fonts">
	<g>
		
			<line style="fill:none;stroke:#0000FF;stroke-width:28.8;stroke-linecap:round;stroke-linejoin:round;stroke-miterlimit:10;" x1="101.969" y1="25.948" x2="35.545" y2="217.504"/>
		
			<line style="fill:none;stroke:#0000FF;stroke-width:28.8;stroke-linecap:round;stroke-linejoin:round;stroke-miterlimit:10;" x1="176.038" y1="25.534" x2="115.216" y2="217.504"/>
		
			<line style="fill:none;stroke:#0000FF;stroke-width:28.8;stroke-linecap:round;stroke-linejoin:round;stroke-miterlimit:10;" x1="35.545" y1="83.286" x2="209.545" y2="83.286"/>
		
			<line style="fill:none;stroke:#0000FF;stroke-width:28.8;stroke-linecap:round;stroke-linejoin:round;stroke-miterlimit:10;" x1="13.537" y1="157.93" x2="194.544" y2="153.953"/>
	</g>
</g>
</svg>
