<?xml version="1.0" encoding="iso-8859-1"?>
<!-- Generator: Adobe Illustrator 17.0.0, SVG Export Plug-In . SVG Version: 6.00 Build 0)  -->
<!DOCTYPE svg PUBLIC "-//W3C//DTD SVG 1.1//EN" "http://www.w3.org/Graphics/SVG/1.1/DTD/svg11.dtd">
<svg version="1.1" xmlns="http://www.w3.org/2000/svg" xmlns:xlink="http://www.w3.org/1999/xlink" x="0px" y="0px"
	 width="447.045px" height="454.046px" viewBox="0 0 447.045 454.046" style="enable-background:new 0 0 447.045 454.046;"
	 xml:space="preserve">
<g id="font" style="display:none;">
	<path style="display:inline;stroke:#000000;stroke-width:9;stroke-linecap:round;stroke-linejoin:round;stroke-miterlimit:10;" d="
		M427.365,221.453c2.532,24.78-16.645,63.84-42.335,93.239c-43.781,49.561-115.786,89.88-191.771,99.12v0.84
		c1.447,2.1,2.533,3.78,2.533,6.3c0,7.98-5.79,14.28-12.664,14.7c-4.704,0.42-9.77-1.68-11.941-6.72
		c-1.809-3.78-2.895-7.561-2.532-13.021h-7.599c-7.599,0-15.197-0.84-22.434-1.68c1.447,2.1,2.533,3.78,2.533,6.3
		c0,7.98-5.789,14.28-12.664,14.7c-4.704,0.42-9.77-1.681-11.941-6.72c-2.532-4.62-3.256-10.08-2.17-18.48
		C63,397.013,22.113,362.572,4.745,299.993c-2.171-7.141,1.447-15.12,7.599-17.641c6.513-2.52,13.388,1.681,15.559,8.82
		c16.645,58.8,57.17,82.319,93.353,91.14l54.999-153.3c-14.474,1.681-27.861,2.94-40.164,3.36c-28.946,0.84-61.149-1.68-77.07-21.84
		c-6.15-7.56-12.664-21.42-8.684-43.68c12.303-65.1,80.688-109.199,163.91-124.739c9.77-1.681,20.263-2.94,30.756-3.78
		c5.427-14.7,8.684-23.939,9.045-24.36c3.619-7.56,11.217-9.659,17.007-6.3c5.427,3.36,8.321,12.181,5.427,18.9l-3.618,10.5
		c9.046,0,18.092,0.42,26.776,1.26c5.427-14.7,8.684-23.52,9.045-23.939c3.619-7.561,11.217-9.66,17.006-6.301
		c5.428,3.36,8.322,12.181,5.428,18.9l-5.065,14.7c44.505,7.979,84.307,27.72,102.398,64.26c3.257,6.72,1.447,15.539-4.342,19.319
		c-5.79,3.78-13.388,1.68-16.645-5.04c-14.474-29.399-50.656-45.359-91.182-51.659l-42.334,117.179
		c27.138-4.199,52.466-7.56,73.09-7.979c27.499-1.26,58.255,1.68,72.729,21.42C424.108,205.493,426.64,213.053,427.365,221.453z
		 M186.746,198.774l47.4-131.04c-5.428,0.841-10.854,1.681-15.92,2.521c-37.631,6.72-70.92,19.74-96.248,37.38
		c-18.814,12.6-41.973,34.439-47.762,65.1c-3.98,24.36,13.388,32.76,61.15,31.08C150.201,203.394,167.931,201.713,186.746,198.774z
		 M174.806,386.933l1.085-3.78c3.257-9.66,29.671-83.579,57.894-162.539l-28.947,4.2c-28.584,78.539-55.359,152.459-58.616,160.439
		l-0.362,1.26c5.428,0.42,10.855,0.84,15.559,0.84C165.761,387.353,170.102,387.353,174.806,386.933z M347.762,205.913
		c-24.242,0.84-53.913,5.04-84.668,10.08c-28.224,77.699-56.084,153.72-61.512,167.999c89.734-15.12,178.383-76.859,199.369-146.579
		C408.911,211.793,394.8,204.234,347.762,205.913z M289.507,66.054c-9.046-0.84-18.092-0.84-26.775-0.42l-46.677,128.939
		c9.408-1.26,19.178-2.94,28.947-4.2L289.507,66.054z"/>
</g>
<g id="vectorized-fonts">
	<g>
		
			<line style="fill:none;stroke:#0000FF;stroke-width:28.8;stroke-linecap:round;stroke-linejoin:round;stroke-miterlimit:10;" x1="267.465" y1="21.174" x2="127.509" y2="431.646"/>
		
			<line style="fill:none;stroke:#0000FF;stroke-width:28.8;stroke-linecap:round;stroke-linejoin:round;stroke-miterlimit:10;" x1="331.495" y1="25.457" x2="183.03" y2="436.313"/>
		<path style="fill:none;stroke:#0000FF;stroke-width:28.8;stroke-linecap:round;stroke-linejoin:round;stroke-miterlimit:10;" d="
			M427.537,122.313C394.009,32.98,78.534,25.457,65.773,196.608c-5.647,75.739,313.736-31.629,349.736,16.082
			c64.667,98.293-314,346.289-396.667,84.956"/>
	</g>
</g>
</svg>
