<?xml version="1.0" encoding="iso-8859-1"?>
<!-- Generator: Adobe Illustrator 17.0.0, SVG Export Plug-In . SVG Version: 6.00 Build 0)  -->
<!DOCTYPE svg PUBLIC "-//W3C//DTD SVG 1.1//EN" "http://www.w3.org/Graphics/SVG/1.1/DTD/svg11.dtd">
<svg version="1.1" xmlns="http://www.w3.org/2000/svg" xmlns:xlink="http://www.w3.org/1999/xlink" x="0px" y="0px"
	 width="273.027px" height="381.219px" viewBox="0 0 273.027 381.219" style="enable-background:new 0 0 273.027 381.219;"
	 xml:space="preserve">
<g id="font" style="display:none;">
	<path style="display:inline;stroke:#000000;stroke-width:9;stroke-linecap:round;stroke-linejoin:round;stroke-miterlimit:10;" d="
		M262.003,36.397c0,1.261-198.646,287.699-209.139,303.239c-9.408,13.859-13.026,21-14.835,25.199
		c0.723,2.101,1.085,4.2,0.361,6.721c-1.447,7.979-7.96,12.6-14.835,10.92c-4.704-1.681-8.685-5.46-10.132-11.34
		c-2.532-9.24,1.447-19.74,15.559-41.58c12.303-19.32,212.034-309.539,215.291-312.059c4.703-6.3,12.302-6.3,17.367-0.84
		C266.707,21.698,267.069,30.937,262.003,36.397z M84.344,87.217c0-10.5,7.598-19.32,16.644-19.32c9.407,0,16.645,8.82,16.645,19.32
		c0,10.92-7.237,19.319-16.645,19.319C91.942,106.537,84.344,98.137,84.344,87.217z M161.052,292.596
		c0-10.5,7.599-19.32,16.644-19.32c9.408,0,16.645,8.82,16.645,19.32c0,10.92-7.236,19.32-16.645,19.32
		C168.651,311.916,161.052,303.516,161.052,292.596z"/>
</g>
<g id="vectorized-fonts">
	<path style="fill:none;stroke:#0000FF;stroke-width:28.8;stroke-linecap:round;stroke-linejoin:round;stroke-miterlimit:10;" d="
		M116.009,47.326C105.144,65.54,95.232,84.3,86.323,103.509"/>
	
		<line style="fill:none;stroke:#0000FF;stroke-width:28.8;stroke-linecap:round;stroke-linejoin:round;stroke-miterlimit:10;" x1="255.407" y1="19.952" x2="23.445" y2="368.055"/>
	<path style="fill:none;stroke:#0000FF;stroke-width:28.8;stroke-linecap:round;stroke-linejoin:round;stroke-miterlimit:10;" d="
		M204.599,243.021c-10.865,18.214-20.777,36.974-29.686,56.183"/>
</g>
</svg>
