<?xml version="1.0" encoding="iso-8859-1"?>
<!-- Generator: Adobe Illustrator 17.0.0, SVG Export Plug-In . SVG Version: 6.00 Build 0)  -->
<!DOCTYPE svg PUBLIC "-//W3C//DTD SVG 1.1//EN" "http://www.w3.org/Graphics/SVG/1.1/DTD/svg11.dtd">
<svg version="1.1" xmlns="http://www.w3.org/2000/svg" xmlns:xlink="http://www.w3.org/1999/xlink" x="0px" y="0px"
	 width="375.038px" height="368.267px" viewBox="0 0 375.038 368.267" style="enable-background:new 0 0 375.038 368.267;"
	 xml:space="preserve">
<g id="font" style="display:none;">
	<path style="display:inline;stroke:#000000;stroke-width:9;stroke-linecap:round;stroke-linejoin:round;stroke-miterlimit:10;" d="
		M369.687,142.025c-1.086,5.88-4.704,13.859-14.836,18.899c-16.644,7.98-59.702,9.24-74.898,9.24
		c-12.303,13.439-114.701,98.279-127.365,107.939c18.092,29.399,50.656,58.38,109.273,45.359c6.513-1.68,13.025,3.36,13.75,10.92
		c1.085,7.98-3.619,15.12-10.132,16.801c-11.94,2.52-22.796,3.779-33.65,3.779c-51.38,0-82.136-30.659-100.228-60.899
		c-40.525,31.08-87.925,62.58-108.911,60.479c-14.835-0.84-23.157-13.02-19.539-33.6c6.513-40.32,76.708-143.64,90.819-160.02
		c-3.617-40.739-2.17-78.539,2.172-93.659c12.302-44.52,110.358-62.16,146.903-60.06c5.428,0.42,18.815,1.26,22.434,14.279
		c1.447,4.62,1.447,12.181-5.065,21.84c-19.9,28.141-92.629,69.72-141.114,126.42c2.895,25.2,9.046,56.699,20.985,84.84
		c27.5-21.84,68.025-55.44,99.143-83.16c-18.092,1.26-60.788,5.88-65.492,23.1c-2.895,10.5-10.854,10.5-15.196,10.5
		c-6.513-2.1-10.132-9.659-8.322-17.22c3.257-11.76,10.493-21.42,22.071-28.14c7.961-5.04,19.178-9.24,32.565-11.76
		c23.881-5.04,53.189-5.88,78.879-6.72c20.625-0.421,50.295-0.841,62.597-6.301c2.172-6.3,7.6-10.079,13.389-8.819
		C366.43,126.905,370.772,134.465,369.687,142.025z M119.299,270.545c-10.132-23.94-16.645-49.561-20.986-73.08
		c-31.479,47.46-68.748,106.68-71.643,128.939c4.342-0.42,15.921-3.36,47.399-24.36C86.734,293.644,102.292,283.144,119.299,270.545
		z M116.766,134.885c31.841-32.76,75.623-65.52,116.51-99.539c-5.789,0.42-47.399,5.46-69.472,12.18
		c-29.67,9.24-42.334,20.16-44.505,27.3C117.489,81.545,115.681,104.645,116.766,134.885z"/>
</g>
<g id="vectorized-fonts">
	<g>
		<path style="fill:none;stroke:#0000FF;stroke-width:28.8;stroke-linecap:round;stroke-linejoin:round;stroke-miterlimit:10;" d="
			M108.584,160.453c-3.384-30.493-7.555-75.99,6.154-100.548S238.738,0,254.071,19.29c13.35,16.794-99.888,96.804-145,141.948
			C72.871,197.465-0.083,305.622,15.661,339.096s182.144-110.498,244.729-172.309"/>
		<path style="fill:none;stroke:#0000FF;stroke-width:28.8;stroke-linecap:round;stroke-linejoin:round;stroke-miterlimit:10;" d="
			M109.071,161.238c0,0,0,204.667,156.333,177.333"/>
		<path style="fill:none;stroke:#0000FF;stroke-width:28.8;stroke-linecap:round;stroke-linejoin:round;stroke-miterlimit:10;" d="
			M160.564,178.08c58.841-11.176,140.841-13.986,198.841-28.509"/>
	</g>
</g>
</svg>
