<?xml version="1.0" encoding="iso-8859-1"?>
<!-- Generator: Adobe Illustrator 17.0.0, SVG Export Plug-In . SVG Version: 6.00 Build 0)  -->
<!DOCTYPE svg PUBLIC "-//W3C//DTD SVG 1.1//EN" "http://www.w3.org/Graphics/SVG/1.1/DTD/svg11.dtd">
<svg version="1.1" xmlns="http://www.w3.org/2000/svg" xmlns:xlink="http://www.w3.org/1999/xlink" x="0px" y="0px"
	 width="138.332px" height="366.037px" viewBox="0 0 138.332 366.037" style="enable-background:new 0 0 138.332 366.037;"
	 xml:space="preserve">
<g id="font" style="display:none;">
	<path style="display:inline;stroke:#000000;stroke-width:9;stroke-linecap:round;stroke-linejoin:round;stroke-miterlimit:10;" d="
		M237.324,22.974c0,7.979-5.427,14.279-12.302,14.279c-15.921,0-34.736,15.12-51.38,41.58
		c-18.092,28.979-31.117,67.62-37.631,108.779c-3.98,28.14-4.704,55.44-1.447,79.38c3.257,21.84,9.046,39.899,17.73,51.66
		c6.875,9.239,14.835,14.279,24.243,14.279c6.513,0,11.94,6.3,11.94,14.28c0,7.56-5.427,13.86-11.94,13.86
		c-16.644,0-31.479-8.4-43.058-24.36c-11.217-15.54-19.177-38.22-22.795-65.1c-3.98-26.88-3.256-57.54,1.447-89.04
		c6.875-45.359,21.71-88.199,41.973-120.539c21.348-34.44,46.676-53.34,70.919-53.34C231.897,8.693,237.324,14.993,237.324,22.974z"
		/>
</g>
<g id="vectorized-fonts">
	<path style="fill:none;stroke:#0000FF;stroke-width:28.8;stroke-linecap:round;stroke-linejoin:round;stroke-miterlimit:10;" d="
		M119.926,20.812C22.125,8.693-39.371,331.723,70.701,349.028"/>
</g>
</svg>
