<?xml version="1.0" encoding="iso-8859-1"?>
<!-- Generator: Adobe Illustrator 17.0.0, SVG Export Plug-In . SVG Version: 6.00 Build 0)  -->
<!DOCTYPE svg PUBLIC "-//W3C//DTD SVG 1.1//EN" "http://www.w3.org/Graphics/SVG/1.1/DTD/svg11.dtd">
<svg version="1.1" xmlns="http://www.w3.org/2000/svg" xmlns:xlink="http://www.w3.org/1999/xlink" x="0px" y="0px" width="150px"
	 height="368px" viewBox="0 0 150 368" style="enable-background:new 0 0 150 368;" xml:space="preserve">
<g id="font" style="display:none;">
	<path style="display:inline;stroke:#000000;stroke-width:9;stroke-linecap:round;stroke-linejoin:round;stroke-miterlimit:10;" d="
		M236.918,178.793c-6.875,45.36-21.71,88.2-41.61,120.54c-21.71,34.439-47.039,53.339-71.281,53.339
		c-6.875,0-12.302-6.3-12.302-14.279c0-7.561,5.427-14.28,12.302-14.28c16.282,0,34.736-15.12,51.38-41.58
		c18.092-28.56,31.118-67.199,37.631-108.359c3.98-28.56,4.704-55.859,1.447-79.8c-3.257-21.84-9.046-39.899-17.729-51.239
		c-6.875-9.66-14.835-14.7-23.881-14.7c-6.875,0-12.303-6.3-12.303-13.859c0-7.98,5.428-14.28,12.303-14.28
		c16.282,0,31.117,8.399,42.696,24.359c11.217,15.54,19.177,38.221,22.795,65.521C242.346,117.054,241.622,147.713,236.918,178.793z
		"/>
</g>
<g id="vectorized-fonts">
	<path style="fill:none;stroke:#0000FF;stroke-width:28.8;stroke-linecap:round;stroke-linejoin:round;stroke-miterlimit:10;" d="
		M74.296,15.84c38.81-4.696,66.353,70.951,55.791,157.595c-8.554,70.174-43.137,151.69-108.818,170.954"/>
</g>
</svg>
