<?xml version="1.0" encoding="iso-8859-1"?>
<!-- Generator: Adobe Illustrator 17.0.0, SVG Export Plug-In . SVG Version: 6.00 Build 0)  -->
<!DOCTYPE svg PUBLIC "-//W3C//DTD SVG 1.1//EN" "http://www.w3.org/Graphics/SVG/1.1/DTD/svg11.dtd">
<svg version="1.1" xmlns="http://www.w3.org/2000/svg" xmlns:xlink="http://www.w3.org/1999/xlink" x="0px" y="0px"
	 width="198.02px" height="248.245px" viewBox="0 0 198.02 248.245" style="enable-background:new 0 0 198.02 248.245;"
	 xml:space="preserve">
<g id="font" style="display:none;">
	<path style="display:inline;stroke:#000000;stroke-width:9;stroke-linecap:round;stroke-linejoin:round;stroke-miterlimit:10;" d="
		M180.591,115.658c-1.086,7.561-6.875,13.44-14.112,11.76c-0.362,0.841-32.926,0.42-63.682,0.42c-9.77,42-21.348,87.78-22.434,90.72
		c-4.704,7.561-11.579,12.601-16.645,6.721c-5.789-1.681-8.684-9.24-7.599-16.801c-0.361-0.84,10.855-41.999,20.625-80.64
		c-10.493,0-19.177,0-23.157,0.42c-14.835-0.42-21.71,0.841-24.243-0.42c-2.895,3.78-3.256,5.46-5.789,6.721
		c-6.513,3.359-14.111,0-16.645-7.561c-1.809-4.199-2.171-9.239,0.724-14.699c5.066-9.66,15.559-11.341,38.716-12.601h37.63
		c4.342-18.06,7.96-32.76,8.684-38.22c4.342-16.8,4.704-25.2,7.598-28.979c-1.809-2.101-3.256-4.2-3.256-6.3
		c-1.809-7.98,2.895-15.54,11.217-16.38c4.704-1.681,10.131,1.26,10.493,5.88c5.79,7.14,7.237,19.319-1.809,45.779
		c-0.724,6.3-3.618,20.58-7.599,38.22c29.67,0,58.255,0,60.064,0.84C175.887,100.538,181.676,107.678,180.591,115.658z"/>
</g>
<g id="vectorized-fonts">
	<g>
		<path style="fill:none;stroke:#0000FF;stroke-width:28.8;stroke-linecap:round;stroke-linejoin:round;stroke-miterlimit:10;" d="
			M14.271,124.343c48-4.831,115.621-6.833,161-7.238"/>
		<path style="fill:none;stroke:#0000FF;stroke-width:28.8;stroke-linecap:round;stroke-linejoin:round;stroke-miterlimit:10;" d="
			M112.771,23.605c-13.69,61.983-33.493,137.884-45.5,199.5"/>
	</g>
</g>
</svg>
