<?xml version="1.0" encoding="iso-8859-1"?>
<!-- Generator: Adobe Illustrator 17.0.0, SVG Export Plug-In . SVG Version: 6.00 Build 0)  -->
<!DOCTYPE svg PUBLIC "-//W3C//DTD SVG 1.1//EN" "http://www.w3.org/Graphics/SVG/1.1/DTD/svg11.dtd">
<svg version="1.1" xmlns="http://www.w3.org/2000/svg" xmlns:xlink="http://www.w3.org/1999/xlink" x="0px" y="0px"
	 width="183.018px" height="40.459px" viewBox="0 0 183.018 40.459" style="enable-background:new 0 0 183.018 40.459;"
	 xml:space="preserve">
<g id="TEMPLATE_FORM" style="display:none;">
</g>
<g id="font" style="display:none;">
	<path style="display:inline;stroke:#000000;stroke-width:9;stroke-linecap:round;stroke-linejoin:round;stroke-miterlimit:10;" d="
		M161.486,29.086c-0.724,0.84-38.354,1.68-101.675,1.26c-15.197,0-22.434,0.84-26.052,1.681c-1.085,1.68-2.533,3.359-4.342,4.619
		c-6.513,3.36-13.388,0.42-16.283-7.14c-2.171-5.04-1.809-11.34,0.724-16.38c5.066-7.56,14.835-11.34,38.354-11.34
		c66.577,0.42,107.464-2.101,111.444-0.42c6.875,0.42,11.579,7.56,11.217,15.12C174.15,24.466,168.361,30.346,161.486,29.086z"/>
</g>
<g id="vectorized-fonts">
	
		<line style="fill:none;stroke:#0000FF;stroke-width:28.8;stroke-linecap:round;stroke-linejoin:round;stroke-miterlimit:10;" x1="19.261" y1="18.168" x2="167.866" y2="14.272"/>
</g>
<g id="KEY" style="display:none;">
</g>
</svg>
