<?xml version="1.0" encoding="iso-8859-1"?>
<!-- Generator: Adobe Illustrator 17.0.0, SVG Export Plug-In . SVG Version: 6.00 Build 0)  -->
<!DOCTYPE svg PUBLIC "-//W3C//DTD SVG 1.1//EN" "http://www.w3.org/Graphics/SVG/1.1/DTD/svg11.dtd">
<svg version="1.1" xmlns="http://www.w3.org/2000/svg" xmlns:xlink="http://www.w3.org/1999/xlink" x="0px" y="0px"
	 width="291.029px" height="389.335px" viewBox="0 0 291.029 389.335" style="enable-background:new 0 0 291.029 389.335;"
	 xml:space="preserve">
<g id="font" style="display:none;">
	<path style="display:inline;stroke:#000000;stroke-width:9;stroke-linecap:round;stroke-linejoin:round;stroke-miterlimit:10;" d="
		M275.397,162.036c-15.559,62.58-41.249,116.34-76.708,158.34c-14.835,18.06-32.203,33.18-49.209,44.52
		c-18.092,10.92-33.65,17.64-49.933,20.58c-0.362,0-1.086,0-1.81,0.42c-31.841,4.2-58.616-8.4-72.728-35.28
		c-6.875-13.02-10.855-28.979-11.579-47.46c-1.085-18.899,1.447-40.739,6.513-65.939c12.302-49.56,39.801-112.14,80.327-180.179
		c4.342-6.3,11.94-8.4,17.006-4.2c5.065,5.46,6.513,14.28,3.618,20.16c-40.525,65.52-65.129,122.639-77.07,172.199
		c-9.408,40.319-8.684,71.399,1.809,90.3c12.664,24.359,36.907,23.939,49.933,22.26c54.999-9.66,126.641-81.9,155.588-203.699
		c7.599-32.76,9.77-61.32,5.789-81.479c-1.809-11.341-7.236-26.46-19.177-32.761c-13.75-6.3-31.479-1.26-51.742,13.44
		c-15.559,12.18-41.249,38.22-67.663,88.199c-4.342,8.4-11.94,10.5-17.368,5.46c-5.79-3.779-8.684-11.76-4.704-19.739
		c22.434-43.68,49.571-77.28,76.347-97.859c26.414-20.58,53.189-25.62,74.537-15.54c9.046,4.199,15.559,10.92,21.71,20.579
		c5.79,8.4,9.77,19.32,12.303,31.92C285.89,91.896,283.719,122.976,275.397,162.036z"/>
</g>
<g id="vectorized-fonts">
	<path style="fill:none;stroke:#0000FF;stroke-width:28.8;stroke-linecap:round;stroke-linejoin:round;stroke-miterlimit:10;" d="
		M111.715,59.602c-66.755,104.964-130.5,272.113-54.5,306.247c57.94,26.022,119.844-22.465,161.79-94.223
		c49.529-84.732,73.21-226.772,20.387-249.426c-47.655-20.437-112.165,68.263-134.099,98.993"/>
</g>
</svg>
