<?xml version="1.0" encoding="iso-8859-1"?>
<!-- Generator: Adobe Illustrator 17.0.0, SVG Export Plug-In . SVG Version: 6.00 Build 0)  -->
<!DOCTYPE svg PUBLIC "-//W3C//DTD SVG 1.1//EN" "http://www.w3.org/Graphics/SVG/1.1/DTD/svg11.dtd">
<svg version="1.1" xmlns="http://www.w3.org/2000/svg" xmlns:xlink="http://www.w3.org/1999/xlink" x="0px" y="0px"
	 width="237.024px" height="378.038px" viewBox="0 0 237.024 378.038" style="enable-background:new 0 0 237.024 378.038;"
	 xml:space="preserve">
<g id="font" style="display:none;">
	<path style="display:inline;stroke:#000000;stroke-width:9;stroke-linecap:round;stroke-linejoin:round;stroke-miterlimit:10;" d="
		M231.9,40.835c-1.447,4.62-3.98,10.5-7.598,18.479c-6.151,13.44-15.92,31.08-27.5,51.66
		c-35.459,64.26-91.543,170.1-101.674,246.959c-1.086,11.34-10.131,12.18-13.75,12.18c-6.875-1.26-11.217-8.399-10.493-16.38
		c5.066-36.96,21.348-88.619,44.867-140.279c19.539-43.26,42.334-84.42,60.426-117.6c9.407-16.8,17.368-31.5,23.157-43.26
		c-7.599,5.88-17.006,13.021-28.585,22.68c-27.499,23.101-67.663,58.38-125.917,111.3c-5.427,5.04-13.026,3.78-17.368-2.52
		c-3.98-5.881-3.257-15.12,2.171-19.74c65.492-59.64,109.273-97.859,137.496-120.54c14.835-11.76,25.69-20.159,34.012-24.779
		c5.427-3.36,18.091-10.92,27.137-1.26C231.9,21.515,235.157,28.236,231.9,40.835z"/>
</g>
<g id="vectorized-fonts">
	<path style="fill:none;stroke:#0000FF;stroke-width:28.8;stroke-linecap:round;stroke-linejoin:round;stroke-miterlimit:10;" d="
		M35.784,176.601c56.502-57.712,120.924-101.425,185.825-149.5c5.723,6.408-119.235,215.505-140,335.5"/>
</g>
</svg>
