<?xml version="1.0" encoding="utf-8"?>
<!-- Generator: Adobe Illustrator 17.0.0, SVG Export Plug-In . SVG Version: 6.00 Build 0)  -->
<!DOCTYPE svg PUBLIC "-//W3C//DTD SVG 1.1//EN" "http://www.w3.org/Graphics/SVG/1.1/DTD/svg11.dtd">
<svg version="1.1" id="Layer_1" xmlns="http://www.w3.org/2000/svg" xmlns:xlink="http://www.w3.org/1999/xlink" x="0px" y="0px"
	 width="355px" height="371px" viewBox="0 0 355 371" enable-background="new 0 0 355 371" xml:space="preserve">
<path fill="none" stroke="#0000FF" stroke-width="28.8" stroke-linecap="round" stroke-linejoin="round" stroke-miterlimit="10" d="
	M145.281,129.044C150.5,58.5,292.425-23.964,330.962,36.268S186.588,247.85,147.499,280.194
	c-14.252,11.793-28.055,24.067-42.796,35.271c-17.552,13.34-42.503,37.343-66.37,35.309c-17.887-1.525-19.586-24.662-21.671-38.615
	c-3.677-24.604-3.441-54.226,7.991-76.841c3.417-6.76,9.265-12.698,16.657-14.357c16.115-3.615,32.376,10.849,41.402,22.447
	c14.519,18.654,21.634,42.147,37.185,60.065c36.572,42.135,170.604,113.028,169.421-39.44"/>
</svg>
