<?xml version="1.0" encoding="iso-8859-1"?>
<!-- Generator: Adobe Illustrator 17.0.0, SVG Export Plug-In . SVG Version: 6.00 Build 0)  -->
<!DOCTYPE svg PUBLIC "-//W3C//DTD SVG 1.1//EN" "http://www.w3.org/Graphics/SVG/1.1/DTD/svg11.dtd">
<svg version="1.1" xmlns="http://www.w3.org/2000/svg" xmlns:xlink="http://www.w3.org/1999/xlink" x="0px" y="0px"
	 width="351.035px" height="384.038px" viewBox="0 0 351.035 384.038" style="enable-background:new 0 0 351.035 384.038;"
	 xml:space="preserve">
<g id="font" style="display:none;">
	<path style="display:inline;stroke:#000000;stroke-width:9;stroke-linecap:round;stroke-linejoin:round;stroke-miterlimit:10;" d="
		M137.476,312.154c43.782,35.28,95.524,46.62,120.852,18.061c11.217-12.181,16.644-31.08,16.644-56.7
		c0-7.56,5.428-14.279,12.303-14.279c6.875,0,12.302,6.72,12.302,14.279c0,64.68-32.203,100.8-79.241,100.8
		c-27.137,0-53.189-8.82-79.965-26.46c-8.684-5.88-17.006-12.18-24.604-18.899c-14.112,11.34-28.947,22.26-44.505,33.6
		c-3.618,2.939-7.96,2.939-11.579,1.26c-3.98-2.1-6.513-6.3-7.237-11.34c-2.895-28.56-4.342-47.88-4.342-61.32
		c0.362-13.439,1.809-27.72,11.579-34.02c15.197-9.66,32.927,12.601,43.419,23.1l14.112,13.86
		c74.538-65.939,125.917-112.979,159.568-153.72c18.091-20.999,30.394-39.899,37.269-56.279c12.664-29.82,4.342-44.52-27.138-42.42
		c-22.795,0.84-57.169,11.34-79.241,27.72c-25.328,18.9-41.972,43.26-47.038,68.88c-1.447,7.56-7.96,12.18-14.473,10.5
		c-6.513-1.68-10.855-9.24-9.046-16.8c6.875-36.54,29.308-65.52,57.169-86.1c26.052-19.32,64.768-31.5,91.905-32.76
		c52.104-2.101,69.834,36.119,49.933,83.579c-8.322,18.9-22.072,40.32-41.611,63.42C260.86,200.855,203.329,260.075,137.476,312.154
		z M95.865,310.474c-3.256-2.939-6.151-6.3-9.046-8.82c-5.065-5.46-9.77-10.079-13.388-13.439c-0.362,0-0.362-0.42-0.724-0.42v10.5
		c0.362,7.56,0.724,16.8,1.809,28.14C81.754,321.394,88.99,315.934,95.865,310.474z"/>
</g>
<g id="vectorized-fonts">
	<path style="fill:none;stroke:#0000FF;stroke-width:28.8;stroke-linecap:round;stroke-linejoin:round;stroke-miterlimit:10;" d="
		M143.359,136.645c5.219-70.544,147.143-153.007,185.681-92.776S184.665,255.451,145.576,287.795
		c-14.252,11.793-28.055,24.067-42.796,35.271c-17.552,13.34-42.503,37.343-66.37,35.309c-17.887-1.525-19.586-24.662-21.671-38.615
		c-3.677-24.604-3.441-54.226,7.991-76.841c3.417-6.76,9.265-12.698,16.657-14.357c16.115-3.615,32.376,10.849,41.402,22.447
		c14.519,18.654,21.634,42.147,37.185,60.065c36.572,42.135,170.604,113.028,169.421-39.44"/>
</g>
</svg>
