<?xml version="1.0" encoding="iso-8859-1"?>
<!-- Generator: Adobe Illustrator 17.0.0, SVG Export Plug-In . SVG Version: 6.00 Build 0)  -->
<!DOCTYPE svg PUBLIC "-//W3C//DTD SVG 1.1//EN" "http://www.w3.org/Graphics/SVG/1.1/DTD/svg11.dtd">
<svg version="1.1" xmlns="http://www.w3.org/2000/svg" xmlns:xlink="http://www.w3.org/1999/xlink" x="0px" y="0px"
	 width="280.068px" height="370.814px" viewBox="0 0 280.068 370.814" style="enable-background:new 0 0 280.068 370.814;"
	 xml:space="preserve">
<g id="font" style="display:none;">
	<path style="display:inline;stroke:#000000;stroke-width:9;stroke-linecap:round;stroke-linejoin:round;stroke-miterlimit:10;" d="
		M227.744,283.174c-25.328,26.04-60.064,50.399-94.8,66.779c-26.052,12.181-49.209,18.061-68.386,18.061
		c-22.072,0-38.354-8.4-47.762-24.78c-11.94-18.479-10.855-35.699-7.96-46.619c3.619-13.021,12.302-26.04,25.69-38.641
		c9.77-9.239,22.434-18.06,37.269-26.46c24.967-14.279,48.124-23.1,49.209-23.1c6.513-2.52,13.388,1.68,15.197,9.24
		c2.171,7.56-1.447,15.54-7.96,17.64c0,0-22.796,8.82-45.953,21.84c-67.301,37.8-63.682,83.58-15.92,82.74
		c15.559-0.421,35.459-6.301,57.531-16.38c31.841-14.7,64.406-37.801,87.563-61.74c22.796-23.52,35.098-46.2,32.203-61.319
		c-6.151-31.5-86.478-50.4-144.732-47.88c-6.151,0.42-12.302-5.04-12.664-12.181c-0.724-12.6,3.256-19.319,9.407-20.999
		c45.229-12.601,110.359-59.22,124.47-72.66c-27.499,2.1-77.793,16.38-133.154,35.7c-6.513,2.1-13.388-2.101-15.197-9.66
		c-1.809-7.561,1.81-15.54,8.322-17.64c61.149-21.42,114.701-36.96,145.818-36.96c18.815,0,28.946,11.34,24.966,27.3
		c-5.066,25.199-68.024,64.68-98.418,79.8c39.078,3.779,111.083,22.68,122.299,65.1C281.296,215.554,258.5,251.254,227.744,283.174z
		"/>
</g>
<g id="vectorized-fonts">
	<path style="fill:none;stroke:#0000FF;stroke-width:28.8;stroke-linecap:round;stroke-linejoin:round;stroke-miterlimit:10;" d="
		M80.526,68.601c35.544-19.396,143-75.042,163-32.271c19.985,42.738-135,102.771-135,102.771s120.251,7.841,143.409,35.846
		c20.71,25.045,5.064,57.169-13.394,78.081c-40.1,45.434-92.804,90.642-154.091,102.341c-20.24,3.864-43.597,2.741-57.842-14.176
		C9.318,320.66,7.146,257.101,129.026,219.101"/>
</g>
</svg>
