<?xml version="1.0" encoding="iso-8859-1"?>
<!-- Generator: Adobe Illustrator 17.0.0, SVG Export Plug-In . SVG Version: 6.00 Build 0)  -->
<!DOCTYPE svg PUBLIC "-//W3C//DTD SVG 1.1//EN" "http://www.w3.org/Graphics/SVG/1.1/DTD/svg11.dtd">
<svg version="1.1" xmlns="http://www.w3.org/2000/svg" xmlns:xlink="http://www.w3.org/1999/xlink" x="0px" y="0px"
	 width="288.029px" height="370.814px" viewBox="0 0 288.029 370.814" style="enable-background:new 0 0 288.029 370.814;"
	 xml:space="preserve">
<g id="font" style="display:none;">
	<path style="display:inline;stroke:#000000;stroke-width:9;stroke-linecap:round;stroke-linejoin:round;stroke-miterlimit:10;" d="
		M275.65,29.076c-24.604,57.539-118.681,140.279-159.93,173.459c20.986,13.02,45.591,23.939,74.176,23.939h5.427
		c1.085-3.779,10.131-26.88,13.388-35.699c6.513-17.22,11.94-35.7,25.329-35.7c5.427,0,10.131,5.46,11.217,12.18
		c0,28.561-3.619,66.36-24.243,81.9c-2.533,2.1-5.065,3.779-7.96,5.04c-8.684,26.88-19.177,60.06-31.118,99.959
		c-1.809,5.46-6.513,9.24-11.579,9.24c-7.236,0-14.835-7.56-11.579-18.9c10.493-34.439,19.901-64.68,28.223-89.879
		c-24.967-0.42-49.209-7.561-74.176-21.84c-6.875-3.78-13.388-8.4-19.177-12.601l-53.189,40.32c-3.618,2.52-7.96,2.939-11.94,0.84
		c-3.618-2.1-6.513-6.3-6.875-10.92c-3.256-29.82-4.704-50.399-4.342-64.26c0.362-13.44,1.809-28.14,11.94-34.86
		c10.131-7.14,20.986,0,24.604,2.521c8.322,5.04,31.117,25.2,39.439,32.34c44.144-35.28,138.943-119.279,160.653-170.1
		c2.895-6.72,10.493-9.659,16.282-6.3C276.374,13.536,278.907,21.935,275.65,29.076z M71.577,202.955l-11.217-9.24
		c-5.789-5.46-10.854-9.659-15.197-13.02c-1.085-0.84-2.171-1.26-2.895-2.1c-0.362,2.939-0.724,7.56-0.362,14.279
		c0,8.4,0.724,18.48,1.809,31.5C53.124,217.235,62.532,210.094,71.577,202.955z"/>
</g>
<g id="vectorized-fonts">
	<path style="fill:none;stroke:#0000FF;stroke-width:28.8;stroke-linecap:round;stroke-linejoin:round;stroke-miterlimit:10;" d="
		M268.976,16.601c-74,90.5-163,150-248.5,181c47.138,23.475,125.033,48.939,177.69,48.5"/>
	<path style="fill:none;stroke:#0000FF;stroke-width:28.8;stroke-linecap:round;stroke-linejoin:round;stroke-miterlimit:10;" d="
		M229.476,166.101c-3.297,0.556-51.797,145.546-61.5,190.5"/>
</g>
</svg>
