<?xml version="1.0" encoding="iso-8859-1"?>
<!-- Generator: Adobe Illustrator 17.0.0, SVG Export Plug-In . SVG Version: 6.00 Build 0)  -->
<!DOCTYPE svg PUBLIC "-//W3C//DTD SVG 1.1//EN" "http://www.w3.org/Graphics/SVG/1.1/DTD/svg11.dtd">
<svg version="1.1" xmlns="http://www.w3.org/2000/svg" xmlns:xlink="http://www.w3.org/1999/xlink" x="0px" y="0px"
	 width="291.726px" height="364.79px" viewBox="0 0 291.726 364.79" style="enable-background:new 0 0 291.726 364.79;"
	 xml:space="preserve">
<g id="font" style="display:none;">
	<path style="display:inline;stroke:#000000;stroke-width:9;stroke-linecap:round;stroke-linejoin:round;stroke-miterlimit:10;" d="
		M264.142,41.255c-100.589,17.22-157.759-9.66-167.167,0c-6.151,6.3-13.75,25.62-22.434,44.1c-7.96,17.22-15.197,39.48-26.052,67.2
		c51.742-16.8,93.714-25.62,124.47-26.88c17.006-0.42,30.755,1.26,41.611,5.46c11.94,4.62,20.262,12.18,24.604,22.26
		c4.342,10.08,4.704,21.42,1.085,34.439c-2.533,10.5-7.96,21.84-15.559,34.021c-13.75,21-34.736,44.939-59.702,66.359
		c-28.223,24.359-60.426,44.939-88.648,57.12c-18.092,7.979-33.65,11.76-46.314,11.76c-11.579,0-20.625-2.94-27.5-9.66
		c-5.427-5.04-12.302-15.12-11.94-32.76c0.362-12.6,3.619-27.3,10.493-45.36c2.895-7.14,10.131-10.079,16.283-6.72
		c6.151,2.94,9.045,11.34,6.151,18.48c-10.493,26.88-9.77,40.739-5.79,44.52c5.066,4.62,21.348,5.88,50.295-6.72
		c26.052-11.34,56.084-30.66,82.136-53.34c23.157-20.16,42.696-41.58,54.999-60.9c10.493-16.8,15.197-31.079,11.94-38.64
		c-1.809-4.2-6.513-6.72-10.131-7.979c-7.96-2.94-19.177-4.2-33.289-3.78c-33.65,1.26-82.136,12.6-144.371,34.02
		c-4.704,1.681-9.408-0.42-12.665-4.62c-3.256-4.199-3.98-10.079-1.809-15.119c16.645-40.32,27.499-70.14,36.907-92.4
		c11.94-28.14,18.815-46.619,30.032-57.119c6.513-5.88,13.75-8.82,23.157-8.4c26.052,0,59.34,20.58,158.482,2.101
		c6.513,0,11.94,6.3,12.302,13.859C276.082,34.116,270.655,39.996,264.142,41.255z"/>
</g>
<g id="vectorized-fonts">
	<path style="fill:none;stroke:#0000FF;stroke-width:28.8;stroke-linecap:round;stroke-linejoin:round;stroke-miterlimit:10;" d="
		M282.992,24.336c-78.103,24.969-147.244-13.601-169.397-4.85s-66,152.183-66,152.183s165.333-58.667,199.333-18.667
		c25.052,29.474-118,223.333-220.667,186.667c-17.967-6.417-2.642-51.114,3.333-70"/>
</g>
</svg>
