<?xml version="1.0" encoding="iso-8859-1"?>
<!-- Generator: Adobe Illustrator 17.0.0, SVG Export Plug-In . SVG Version: 6.00 Build 0)  -->
<!DOCTYPE svg PUBLIC "-//W3C//DTD SVG 1.1//EN" "http://www.w3.org/Graphics/SVG/1.1/DTD/svg11.dtd">
<svg version="1.1" xmlns="http://www.w3.org/2000/svg" xmlns:xlink="http://www.w3.org/1999/xlink" x="0px" y="0px"
	 width="255.025px" height="364.79px" viewBox="0 0 255.025 364.79" style="enable-background:new 0 0 255.025 364.79;"
	 xml:space="preserve">
<g id="font" style="display:none;">
	<path style="display:inline;stroke:#000000;stroke-width:9;stroke-linecap:round;stroke-linejoin:round;stroke-miterlimit:10;" d="
		M251.74,24.456c0,7.979-5.427,14.28-12.302,14.28c-116.51,1.26-178.745,89.459-198.646,169.259
		c8.684-20.16,27.137-39.06,52.466-52.92c22.795-13.02,48.485-20.16,70.195-20.16h0.724c25.69,0,43.781,10.5,51.38,29.4
		c5.428,13.439,4.704,30.24-1.447,49.14c-6.513,18.479-18.454,40.32-35.821,64.26c-26.052,35.7-50.295,60.479-73.09,73.08
		c-13.75,8.399-25.69,10.92-35.46,10.92c-10.131,0-17.729-2.521-23.881-6.301c-8.322-4.619-15.92-12.6-21.709-23.1
		c-5.066-9.24-9.046-20.58-11.579-33.6c-5.066-25.2-4.342-54.6,1.809-85.26c10.493-52.5,34.736-100.8,68.748-136.079
		c19.539-20.58,42.334-36.96,66.939-47.88c27.137-12.18,57.169-18.9,89.372-19.32C245.951,10.175,251.74,16.475,251.74,24.456z
		 M38.983,215.975c-0.362,1.26-0.362,2.52-0.724,3.779c-10.493,51.66-2.533,98.279,18.815,110.46c9.77,5.88,22.072,4.2,37.269-4.62
		c19.539-11.34,41.61-33.6,65.129-65.939c15.921-21.84,26.414-40.74,31.841-56.28c3.618-11.76,4.342-21,2.171-26.88
		c-4.704-11.76-22.072-13.02-29.67-13.02c-35.822-0.42-87.925,25.199-101.675,58.38c-2.895,7.14-10.131,10.079-16.283,6.72
		C41.516,226.054,38.983,221.014,38.983,215.975z"/>
</g>
<g id="vectorized-fonts">
	<path style="fill:none;stroke:#0000FF;stroke-width:28.8;stroke-linecap:round;stroke-linejoin:round;stroke-miterlimit:10;" d="
		M238.758,18.17C146.011,24.59,72.707,81.551,38.827,167.221c-11.873,30.021-19.248,62.298-19.712,94.653
		c-0.405,28.258,4.324,69.535,34.527,82.032c18.681,7.73,40.215,0.073,57.352-10.654c33.493-20.966,58.606-53.063,78.918-86.956
		c9.277-15.48,17.796-31.71,21.772-49.314c1.605-7.108,2.436-14.624,0.393-21.619c-2.569-8.798-9.548-15.873-17.727-20.007
		c-8.18-4.134-17.479-5.589-26.641-5.811c-23.539-0.571-46.776,6.667-67.613,17.631c-17.716,9.321-33.86,21.279-49.382,33.846
		c-6.112,4.948-18.344,18.05-23.663,27.079"/>
</g>
</svg>
