<?xml version="1.0" encoding="iso-8859-1"?>
<!-- Generator: Adobe Illustrator 17.0.0, SVG Export Plug-In . SVG Version: 6.00 Build 0)  -->
<!DOCTYPE svg PUBLIC "-//W3C//DTD SVG 1.1//EN" "http://www.w3.org/Graphics/SVG/1.1/DTD/svg11.dtd">
<svg version="1.1" xmlns="http://www.w3.org/2000/svg" xmlns:xlink="http://www.w3.org/1999/xlink" x="0px" y="0px"
	 width="297.03px" height="360.733px" viewBox="0 0 297.03 360.733" style="enable-background:new 0 0 297.03 360.733;"
	 xml:space="preserve">
<g id="font" style="display:none;">
	<path style="display:inline;stroke:#000000;stroke-width:9;stroke-linecap:round;stroke-linejoin:round;stroke-miterlimit:10;" d="
		M282.595,51.954c-2.895,5.46-7.599,10.92-14.111,18.06c-11.217,11.761-27.5,25.62-46.314,42
		c-61.512,52.5-154.502,131.88-184.534,236.459c-1.809,5.88-6.513,9.66-11.579,9.66c-1.447,0-2.533,0-3.98-0.84
		c-6.513-2.521-9.77-10.5-7.599-17.64c32.565-113.399,129.174-195.72,193.218-250.739c15.92-13.44,30.032-25.62,40.163-35.28
		c5.065-5.04,8.684-9.239,11.217-13.02l2.533-3.36c-1.809-0.84-4.704-1.68-9.046-2.52c-7.96-1.68-19.177-2.94-32.926-3.36
		c-28.947-0.84-70.919,0.84-131.345,5.46c-6.875,0.42-12.664-5.46-13.026-13.439c-0.362-7.561,4.704-14.28,11.579-14.7
		c66.939-5.04,112.168-6.72,142.2-5.04c30.032,1.68,51.38,6.3,56.808,23.94C288.384,35.154,287.299,43.134,282.595,51.954z"/>
</g>
<g id="vectorized-fonts">
	<path style="fill:none;stroke:#0000FF;stroke-width:28.8;stroke-linecap:round;stroke-linejoin:round;stroke-miterlimit:10;" d="
		M81.344,21.022c77.348,0.027,196.449-9.869,198,11.978c1.551,21.847-220,170-257.138,312.113"/>
</g>
</svg>
