<?xml version="1.0" encoding="iso-8859-1"?>
<!-- Generator: Adobe Illustrator 17.0.0, SVG Export Plug-In . SVG Version: 6.00 Build 0)  -->
<!DOCTYPE svg PUBLIC "-//W3C//DTD SVG 1.1//EN" "http://www.w3.org/Graphics/SVG/1.1/DTD/svg11.dtd">
<svg version="1.1" xmlns="http://www.w3.org/2000/svg" xmlns:xlink="http://www.w3.org/1999/xlink" x="0px" y="0px"
	 width="312.031px" height="393.039px" viewBox="0 0 312.031 393.039" style="enable-background:new 0 0 312.031 393.039;"
	 xml:space="preserve">
<g id="font" style="display:none;">
	<path style="display:inline;stroke:#000000;stroke-width:9;stroke-linecap:round;stroke-linejoin:round;stroke-miterlimit:10;" d="
		M304.357,52.175c-1.447,10.92-6.875,22.26-15.92,34.02c-7.599,9.24-17.368,18.9-30.756,29.4
		c-23.881,19.319-54.274,38.64-86.116,59.22l-19.901,12.6c1.809,18.061,4.342,36.12,6.513,53.76c3.98,29.4,7.96,57.54,7.96,80.64
		c0.362,18.48-1.447,45.36-18.453,58.8c-6.513,5.04-14.473,7.98-23.519,7.98c-19.901,0-47.038-12.181-83.583-36.12
		c-0.362-0.42-0.724-0.42-0.724-0.84c-20.624-16.38-30.394-35.28-29.308-55.86c1.085-24.779,17.368-49.56,51.38-78.119
		c18.454-15.54,40.525-30.66,63.683-45.78c-3.257-48.3-0.362-93.659,22.072-124.319c8.322-11.34,19.177-20.16,31.841-25.62
		c13.026-5.88,28.584-9.239,46.314-9.239c6.875,0,12.302,6.72,12.302,14.279c0,7.98-5.427,14.28-12.302,14.28
		c-27.861,0-47.4,7.979-59.703,24.78c-15.197,20.579-18.453,53.76-16.644,90.299l10.131-6.3
		c31.479-20.16,61.149-39.06,83.945-57.539c28.585-23.101,35.459-36.96,36.545-44.521c0.362-2.939,0-7.14-5.065-13.02
		c-4.704-5.46-4.704-14.28,0-20.16c4.704-5.46,12.664-5.46,17.368,0C304.357,28.656,305.443,42.935,304.357,52.175z
		 M141.895,321.814c-0.362-21-3.98-47.88-7.598-76.439c-2.171-13.86-3.98-28.56-5.79-42.84c-19.177,12.6-37.269,25.62-52.465,38.22
		c-26.776,22.26-40.525,41.58-41.249,56.28c-0.724,15.119,13.388,26.88,18.454,31.079c23.519,15.54,42.696,25.62,57.169,29.82
		c7.599,2.1,17.73,3.78,23.52-0.84C139.362,352.894,141.895,341.134,141.895,321.814z"/>
</g>
<g id="vectorized-fonts">
	<g>
		<path style="fill:none;stroke:#0000FF;stroke-width:28.8;stroke-linecap:round;stroke-linejoin:round;stroke-miterlimit:10;" d="
			M229.984,25.074c-78.506-16.347-99.61,70.328-93.709,157.728c2.47,36.578,10.364,72.344,16.306,108.433
			c3.823,23.218,14.086,64.707-9.743,80.922c-12.935,8.802-30.535,4.993-44.924-1.162c-39.793-17.023-93.741-51.331-66.922-100.746
			c22.107-40.733,67.275-63.972,105.485-86.48"/>
		<path style="fill:none;stroke:#0000FF;stroke-width:28.8;stroke-linecap:round;stroke-linejoin:round;stroke-miterlimit:10;" d="
			M136.478,183.768C322.939,66.101,295.796,54.434,285.442,19.626"/>
	</g>
</g>
</svg>
