<?xml version="1.0" encoding="iso-8859-1"?>
<!-- Generator: Adobe Illustrator 17.0.0, SVG Export Plug-In . SVG Version: 6.00 Build 0)  -->
<!DOCTYPE svg PUBLIC "-//W3C//DTD SVG 1.1//EN" "http://www.w3.org/Graphics/SVG/1.1/DTD/svg11.dtd">
<svg version="1.1" xmlns="http://www.w3.org/2000/svg" xmlns:xlink="http://www.w3.org/1999/xlink" x="0px" y="0px"
	 width="243.024px" height="348.189px" viewBox="0 0 243.024 348.189" style="enable-background:new 0 0 243.024 348.189;"
	 xml:space="preserve">
<g id="font" style="display:none;">
	<path style="display:inline;stroke:#000000;stroke-width:9;stroke-linecap:round;stroke-linejoin:round;stroke-miterlimit:10;" d="
		M240.922,40.194c-14.835,40.739-33.288,81.899-55.36,122.64c-17.729,32.76-37.269,65.1-58.979,96.18
		c-36.545,53.76-64.768,85.259-65.853,86.52c-2.533,2.52-5.428,3.779-8.322,3.779c-3.256,0-6.513-1.26-9.046-4.199
		c-4.704-5.88-4.342-14.7,0.362-20.16c0.362-0.42,28.585-31.92,64.044-83.58c22.072-32.34,49.933-77.279,75.623-130.199
		c-23.157,24.36-44.867,42.42-65.491,53.76c-16.283,8.82-31.479,13.44-45.229,13.86c-13.388,0-24.966-3.78-35.098-11.761
		c-13.388-11.34-22.072-29.819-23.881-52.079c-1.809-20.58,2.533-42.42,11.94-61.32c12.664-25.199,33.289-42.84,58.255-49.56
		c14.111-4.2,29.308-4.62,45.591-2.1c17.006,2.939,35.459,9.66,54.636,20.16c6.151,3.359,8.684,11.76,5.79,18.899
		s-10.131,10.08-16.283,6.72c-31.841-17.22-60.426-23.1-83.945-16.38s-36.183,23.521-42.696,36.54
		c-6.875,13.86-10.131,29.82-9.046,44.52c1.085,13.86,6.151,24.78,13.75,31.5c12.664,10.08,32.203,8.4,55.722-4.62
		c32.927-18.06,70.919-56.279,112.892-113.819c3.98-5.04,10.493-6.3,15.559-2.52C240.922,26.334,243.093,33.895,240.922,40.194z"/>
</g>
<g id="vectorized-fonts">
	<path style="fill:none;stroke:#0000FF;stroke-width:28.8;stroke-linecap:round;stroke-linejoin:round;stroke-miterlimit:10;" d="
		M179.256,29.833C107.178-3.232,13.707,23.115,23.878,119.441c2.037,19.288,13.5,38.846,31.998,44.685
		c65.973,20.823,148.202-85.439,174.714-132.96c-14,32.667-13.333,88-180,306.08"/>
</g>
</svg>
