<?xml version="1.0" encoding="iso-8859-1"?>
<!-- Generator: Adobe Illustrator 17.0.0, SVG Export Plug-In . SVG Version: 6.00 Build 0)  -->
<!DOCTYPE svg PUBLIC "-//W3C//DTD SVG 1.1//EN" "http://www.w3.org/Graphics/SVG/1.1/DTD/svg11.dtd">
<svg version="1.1" xmlns="http://www.w3.org/2000/svg" xmlns:xlink="http://www.w3.org/1999/xlink" x="0px" y="0px"
	 width="162.016px" height="93.508px" viewBox="0 0 162.016 93.508" style="enable-background:new 0 0 162.016 93.508;"
	 xml:space="preserve">
<g id="font" style="display:none;">
	<path style="display:inline;stroke:#000000;stroke-width:9;stroke-linecap:round;stroke-linejoin:round;stroke-miterlimit:10;" d="
		M123.371,77.515c-0.724,0.84-38.354,1.68-55.36,2.1c-15.197-0.42-22.434,0.841-26.052,1.681c-1.085,1.68-2.533,3.359-4.342,4.62
		c-6.513,3.359-13.388,0.42-16.282-7.141c-2.171-5.04-1.809-11.34,0.724-16.38c5.065-7.56,14.835-10.5,38.354-11.34
		c20.262-0.42,61.149-2.939,65.129-1.26c6.875,0.42,11.579,7.56,11.217,15.12C136.035,72.895,130.245,78.775,123.371,77.515z
		 M134.226,27.116c-0.724,0.84-38.354,1.68-55.36,2.1c-15.197-0.42-22.434,0.84-26.052,1.68c-1.085,1.681-2.533,3.36-4.342,4.62
		c-6.513,3.36-13.388,0.42-16.283-7.14c-2.171-5.04-1.809-11.34,0.724-16.38c5.066-7.56,14.835-10.5,38.354-11.34
		c20.263-0.42,61.15-2.94,65.13-1.26c6.875,0.42,11.579,7.56,11.217,15.119C146.89,22.496,141.101,28.376,134.226,27.116z"/>
</g>
<g id="vectorized-fonts">
	<g>
		
			<line style="fill:none;stroke:#0000FF;stroke-width:28.8;stroke-linecap:round;stroke-linejoin:round;stroke-miterlimit:10;" x1="39.303" y1="22.859" x2="144.173" y2="18.962"/>
		
			<line style="fill:none;stroke:#0000FF;stroke-width:28.8;stroke-linecap:round;stroke-linejoin:round;stroke-miterlimit:10;" x1="25.237" y1="74.269" x2="130.202" y2="69.506"/>
	</g>
</g>
</svg>
