<?xml version="1.0" encoding="iso-8859-1"?>
<!-- Generator: Adobe Illustrator 17.0.0, SVG Export Plug-In . SVG Version: 6.00 Build 0)  -->
<!DOCTYPE svg PUBLIC "-//W3C//DTD SVG 1.1//EN" "http://www.w3.org/Graphics/SVG/1.1/DTD/svg11.dtd">
<svg version="1.1" xmlns="http://www.w3.org/2000/svg" xmlns:xlink="http://www.w3.org/1999/xlink" x="0px" y="0px"
	 width="240.024px" height="412.963px" viewBox="0 0 240.024 412.963" style="enable-background:new 0 0 240.024 412.963;"
	 xml:space="preserve">
<g id="TEMPLATE_FORM" style="display:none;">
</g>
<g id="font" style="display:none;">
	<path style="display:inline;stroke:#000000;stroke-width:9;stroke-linecap:round;stroke-linejoin:round;stroke-miterlimit:10;" d="
		M28.169,331.853c10.854,0,19.538,10.08,19.538,22.68s-8.684,22.26-19.538,22.26c-10.855,0-19.178-9.66-19.178-22.26
		S17.313,331.853,28.169,331.853z M222.471,112.194c-9.045,23.1-20.986,41.16-36.545,55.439
		c-13.388,12.601-28.223,20.58-42.334,28.14c-28.946,15.96-56.445,31.08-75.623,83.16c-1.809,5.46-6.513,8.4-11.217,8.4
		c-1.447,0-3.256-0.421-4.703-0.841c-6.151-3.359-9.046-11.76-6.514-18.899c22.796-62.16,57.17-80.64,87.563-97.439
		c27.138-14.7,51.019-27.72,67.301-69.72c6.513-17.22,6.513-31.08-0.362-42c-4.703-7.14-12.302-13.02-22.071-16.8
		c-10.493-3.78-22.434-4.62-35.098-2.94c-35.098,5.04-64.406,29.82-77.433,66.78c-2.895,7.14-9.769,10.5-15.92,7.56
		c-6.513-2.939-9.408-11.34-6.875-18.479c8.684-24.36,23.157-44.94,41.61-59.64c16.645-13.44,35.821-21.841,55.723-24.36
		c15.921-2.1,31.479-0.84,45.229,4.2c14.835,5.46,26.776,14.7,34.374,26.88c6.151,9.66,9.408,20.16,9.77,32.34
		C230.07,85.734,227.899,98.754,222.471,112.194z"/>
</g>
<g id="vectorized-fonts">
	<g>
		<path style="fill:none;stroke:#0000FF;stroke-width:28.8;stroke-linecap:round;stroke-linejoin:round;stroke-miterlimit:10;" d="
			M50.14,104.24c28.441-105,141.594-91.394,164.659-47c20.782,40-22.218,111.482-111.218,146c-37.546,14.562-50.631,69.65-53.441,74
			"/>
		<path style="fill:none;stroke:#0000FF;stroke-width:28.8;stroke-linecap:round;stroke-linejoin:round;stroke-miterlimit:10;" d="
			M36.94,337.005c-7.492,20.403-13.949,41.185-19.339,62.24"/>
	</g>
</g>
<g id="KEY" style="display:none;">
</g>
</svg>
