<?xml version="1.0" encoding="iso-8859-1"?>
<!-- Generator: Adobe Illustrator 17.0.0, SVG Export Plug-In . SVG Version: 6.00 Build 0)  -->
<!DOCTYPE svg PUBLIC "-//W3C//DTD SVG 1.1//EN" "http://www.w3.org/Graphics/SVG/1.1/DTD/svg11.dtd">
<svg version="1.1" xmlns="http://www.w3.org/2000/svg" xmlns:xlink="http://www.w3.org/1999/xlink" x="0px" y="0px"
	 width="363.036px" height="379.538px" viewBox="0 0 363.036 379.538" style="enable-background:new 0 0 363.036 379.538;"
	 xml:space="preserve">
<g id="font" style="display:none;">
	<path style="display:inline;stroke:#000000;stroke-width:9;stroke-linecap:round;stroke-linejoin:round;stroke-miterlimit:10;" d="
		M189.621,298.069c-14.835,0-17.368-15.96-10.131-42c-19.177,18.479-45.591,39.899-73.452,39.899
		c-38.354,0-18.815-98.279,6.151-144.479c20.625-38.64,51.38-66.779,90.458-66.779c13.388,0,23.519,4.2,30.756,12.18
		c1.085,1.26,2.171,2.521,2.895,3.78c2.533-5.88,4.342-10.92,5.065-12.6c1.447-5.46,6.151-9.66,11.579-9.66
		c6.875,0,12.302,6.3,12.302,14.279c0,8.82-28.223,73.08-43.782,115.5c-5.427,14.28-9.407,25.62-12.302,34.859
		C285.507,166.609,393.694,34.73,249.324,34.73c-105.655,0-210.586,100.379-210.586,210.419c0,57.119,32.926,85.68,87.201,85.68
		c6.513,0,11.94,6.72,11.94,14.279c0,7.98-5.427,14.28-11.94,14.28c-67.301,0-111.806-42-111.806-114.239
		c0-120.54,106.017-238.56,235.191-238.56c65.492,0,104.208,26.46,95.162,84.42C331.821,163.25,216.397,298.069,189.621,298.069z
		 M209.16,167.869c6.875-15.119,10.493-28.979,10.493-39.06c0-13.859-6.151-15.54-17.006-15.54c-36.545,0-59.702,32.34-72.729,59.22
		c-13.75,28.561-23.881,70.56-20.262,94.92c9.77-1.26,20.986-5.88,32.565-14.28C169.359,233.39,194.325,201.05,209.16,167.869z"/>
</g>
<g id="vectorized-fonts">
	<g>
		<g>
			<path style="fill:none;stroke:#0000FF;stroke-width:28.8;stroke-linecap:round;stroke-linejoin:round;stroke-miterlimit:10;" d="
				M232.303,121.885c-14.142-31.877-63.217-12.274-81.456,4.531c-32.663,30.095-58.428,92.722-50.744,136.898
				c1.713,9.852,7.006,20.97,16.921,22.262c3.481,0.454,7.006-0.441,10.282-1.704c32.18-12.402,53.575-49.063,70.865-76.682
				c16.274-25.997,30.374-53.429,34.132-84.305"/>
			<path style="fill:none;stroke:#0000FF;stroke-width:28.8;stroke-linecap:round;stroke-linejoin:round;stroke-miterlimit:10;" d="
				M253.525,95.589c-27.727,65.863-45.047,99.338-55.406,171.78"/>
		</g>
		<path style="fill:none;stroke:#0000FF;stroke-width:28.8;stroke-linecap:round;stroke-linejoin:round;stroke-miterlimit:10;" d="
			M198.118,272.409c-14.465,55.067,40.281,8.147,45.79,2.243c30.179-32.338,57.778-67.491,78.008-106.987
			c19.079-37.25,30.836-83.531,3.64-120.339c-8.48-11.476-20.357-18.325-34.064-21.883c-31.287-8.123-66.263-1.703-96.745,6.939
			c-14.145,4.01-28.23,8.854-41.443,15.352C93.318,77.237,48.851,131.949,30.223,195.89c-15.965,54.804-7.736,123.74,49.286,151.094
			c13.421,6.438,32.526,11.838,46.478,3.774"/>
	</g>
</g>
</svg>
