<?xml version="1.0" encoding="iso-8859-1"?>
<!-- Generator: Adobe Illustrator 17.0.0, SVG Export Plug-In . SVG Version: 6.00 Build 0)  -->
<!DOCTYPE svg PUBLIC "-//W3C//DTD SVG 1.1//EN" "http://www.w3.org/Graphics/SVG/1.1/DTD/svg11.dtd">
<svg version="1.1" xmlns="http://www.w3.org/2000/svg" xmlns:xlink="http://www.w3.org/1999/xlink" x="0px" y="0px"
	 width="276.028px" height="385.123px" viewBox="0 0 276.028 385.123" style="enable-background:new 0 0 276.028 385.123;"
	 xml:space="preserve">
<g id="font" style="display:none;">
	<path style="display:inline;stroke:#000000;stroke-width:9;stroke-linecap:round;stroke-linejoin:round;stroke-miterlimit:10;" d="
		M262.106,38.336c0,1.261-198.646,287.699-209.139,303.239c-9.408,13.859-13.026,21-14.835,25.199
		c0.724,2.101,1.085,4.2,0.362,6.721c-1.447,7.979-7.96,12.6-14.835,10.92c-4.704-1.681-8.684-5.46-10.131-11.34
		c-2.533-9.24,1.447-19.74,15.559-41.58c12.302-19.32,212.033-309.539,215.29-312.059c4.704-6.3,12.302-6.3,17.368-0.84
		C266.81,23.637,267.172,32.876,262.106,38.336z"/>
</g>
<g id="vectorized-fonts">
	<path style="fill:none;stroke:#0000FF;stroke-width:28.8;stroke-linecap:round;stroke-linejoin:round;stroke-miterlimit:10;" d="
		M23.05,370.983c55-95,189-268,232-348.408"/>
</g>
</svg>
