<?xml version="1.0" encoding="iso-8859-1"?>
<!-- Generator: Adobe Illustrator 17.0.0, SVG Export Plug-In . SVG Version: 6.00 Build 0)  -->
<!DOCTYPE svg PUBLIC "-//W3C//DTD SVG 1.1//EN" "http://www.w3.org/Graphics/SVG/1.1/DTD/svg11.dtd">
<svg version="1.1" xmlns="http://www.w3.org/2000/svg" xmlns:xlink="http://www.w3.org/1999/xlink" x="0px" y="0px"
	 width="84.008px" height="219.022px" viewBox="0 0 84.008 219.022" style="enable-background:new 0 0 84.008 219.022;"
	 xml:space="preserve">
<g id="TEMPLATE_FORM" style="display:none;">
</g>
<g id="font" style="display:none;">
	<path style="display:inline;stroke:#000000;stroke-width:9;stroke-linecap:round;stroke-linejoin:round;stroke-miterlimit:10;" d="
		M17.815,143.318c10.855,0,19.539,10.08,19.539,22.68s-8.684,22.26-19.539,22.26s-19.178-9.66-19.178-22.26
		S6.96,143.318,17.815,143.318z M64.129,34.539c10.855,0,19.539,10.079,19.539,22.68c0,12.6-8.684,22.26-19.539,22.26
		s-19.178-9.66-19.178-22.26C44.952,44.618,53.274,34.539,64.129,34.539z"/>
</g>
<g id="vectorized-fonts">
	<path style="fill:none;stroke:#0000FF;stroke-width:28.8;stroke-linecap:round;stroke-linejoin:round;stroke-miterlimit:10;" d="
		M67.058,16.002c-2.072,21.107-3.05,42.302-2.928,63.476"/>
	<path style="fill:none;stroke:#0000FF;stroke-width:28.8;stroke-linecap:round;stroke-linejoin:round;stroke-miterlimit:10;" d="
		M17.996,141.318c-2.072,21.107-3.05,42.302-2.928,63.476"/>
</g>
<g id="KEY" style="display:none;">
</g>
</svg>
