<?xml version="1.0" encoding="utf-8"?>
<!DOCTYPE svg PUBLIC "-//W3C//DTD SVG 1.1//EN" "http://www.w3.org/Graphics/SVG/1.1/DTD/svg11.dtd">
<svg version="1.1" id="Layer_1" xmlns="http://www.w3.org/2000/svg" xmlns:xlink="http://www.w3.org/1999/xlink" x="0px" y="0px"
	 width="550px" height="368px" viewBox="0 0 550 368" enable-background="new 0 0 550 368" xml:space="preserve">
<g>
	
		<path fill="none" stroke="#0000FF" stroke-width="28.8" stroke-linecap="round" stroke-linejoin="round" stroke-miterlimit="10" d="
		M444.783,272.732C386,277,259.135,236.635,224.554,225.5C166.422,206.781,36,152,15.92,230.5
		c-7.842,30.659,3.965,65.8,27.225,86.812c16.648,15.039,38.501,23.265,60.568,27.317c29.547,5.426,60.417,3.84,89.109-5.063
		c24.719-7.67,47.423-20.581,68.489-35.436c20.037-14.129,43.254-31.381,58.67-50.67"/>
	
		<path fill="none" stroke="#0000FF" stroke-width="28.8" stroke-linecap="round" stroke-linejoin="round" stroke-miterlimit="10" d="
		M319.982,253.461C357.762,231.5,484.5,28.167,534.667,16"/>
	
		<path fill="none" stroke="#0000FF" stroke-width="28.8" stroke-linecap="round" stroke-linejoin="round" stroke-miterlimit="10" d="
		M534.667,16C517.065,46.309,424.5,184.417,375.833,352.833"/>
</g>
</svg>
