<?xml version="1.0" encoding="iso-8859-1"?>
<!-- Generator: Adobe Illustrator 17.0.0, SVG Export Plug-In . SVG Version: 6.00 Build 0)  -->
<!DOCTYPE svg PUBLIC "-//W3C//DTD SVG 1.1//EN" "http://www.w3.org/Graphics/SVG/1.1/DTD/svg11.dtd">
<svg version="1.1" xmlns="http://www.w3.org/2000/svg" xmlns:xlink="http://www.w3.org/1999/xlink" x="0px" y="0px"
	 width="568.72px" height="375.229px" viewBox="0 0 568.72 375.229" style="enable-background:new 0 0 568.72 375.229;"
	 xml:space="preserve">
<g id="font" style="display:none;">
	<path style="display:inline;stroke:#000000;stroke-width:9;stroke-linecap:round;stroke-linejoin:round;stroke-miterlimit:10;" d="
		M551.414,34.742c0,5.88-2.895,10.92-7.237,13.02c-2.171,2.52-9.77,12.18-30.756,49.98c-15.559,28.14-34.012,62.58-51.38,97.439
		c-13.388,27.3-25.689,52.92-35.459,75.6c5.065,0,10.131,0.42,15.197,0.42c6.875,0,12.302,6.3,12.302,13.86
		c0,7.98-5.428,14.28-12.302,14.28c-8.684,0-17.73-0.42-26.776-1.26c-12.664,31.08-15.92,44.94-17.006,50.82
		c2.533,2.52,3.98,6.3,3.98,10.5c0,7.56-5.428,13.86-12.303,13.86c-5.427,0-10.131-2.939-13.026-7.979
		c-2.171-3.78-3.256-7.98-3.256-13.02c0-7.56,1.809-21.42,15.921-57.12c-20.263-2.94-40.887-7.56-61.512-13.02
		c-5.428,5.46-10.855,10.5-16.645,15.54c-56.084,51.66-106.74,76.86-154.864,76.86c-45.229,0-83.583-11.76-110.72-34.02
		c-24.243-20.16-38.354-47.88-38.354-76.439c0-21,7.96-40.32,22.072-54.6c14.835-14.28,35.098-21.84,59.341-21.84
		c35.821,0,84.307,15.96,140.753,34.86c29.308,9.66,60.426,20.16,91.543,28.98c36.545-37.38,70.195-80.22,100.589-118.859
		c23.157-28.56,44.505-55.44,62.958-75.18c23.881-26.04,40.525-36.96,54.999-36.96C545.986,20.463,551.414,26.763,551.414,34.742z
		 M298.132,273.722c-26.052-7.56-51.38-15.96-75.623-23.94c-52.104-17.64-101.675-34.02-133.878-34.02
		c-34.012,0-56.808,19.32-56.808,48.3c0,19.32,10.131,38.64,27.861,53.34c15.92,13.02,45.953,28.56,96.609,28.56
		c42.334,0,88.287-23.1,140.029-70.56C296.684,274.982,297.408,274.562,298.132,273.722z M493.883,83.042
		c-14.112,16.38-37.993,48.72-54.275,68.88c-27.137,34.44-57.169,72.24-89.372,106.68c17.006,4.2,33.65,7.56,49.933,9.66
		c15.559-35.7,33.65-73.08,46.314-98.699C459.509,143.522,481.58,105.302,493.883,83.042z"/>
</g>
<g id="vectorized-fonts">
	<g>
		<path style="fill:none;stroke:#0000FF;stroke-width:28.8;stroke-linecap:round;stroke-linejoin:round;stroke-miterlimit:10;" d="
			M454.058,275.929c-58.783,4.268-185.648-36.096-220.229-47.231c-58.132-18.719-188.554-73.5-208.634,5
			c-7.842,30.659,3.965,65.8,27.225,86.812c16.648,15.039,38.501,23.265,60.568,27.317c29.547,5.426,60.417,3.84,89.109-5.063
			c24.719-7.67,47.423-20.581,68.489-35.436c20.037-14.129,43.254-31.381,58.67-50.67"/>
		<path style="fill:none;stroke:#0000FF;stroke-width:28.8;stroke-linecap:round;stroke-linejoin:round;stroke-miterlimit:10;" d="
			M329.256,256.659c37.78-21.961,164.518-225.295,214.685-237.461"/>
		<path style="fill:none;stroke:#0000FF;stroke-width:28.8;stroke-linecap:round;stroke-linejoin:round;stroke-miterlimit:10;" d="
			M543.941,19.198C526.34,49.507,433.775,187.614,385.108,356.031"/>
	</g>
</g>
<g id="KEY" style="display:none;">
</g>
</svg>
