<?xml version="1.0" encoding="iso-8859-1"?>
<!-- Generator: Adobe Illustrator 17.0.0, SVG Export Plug-In . SVG Version: 6.00 Build 0)  -->
<!DOCTYPE svg PUBLIC "-//W3C//DTD SVG 1.1//EN" "http://www.w3.org/Graphics/SVG/1.1/DTD/svg11.dtd">
<svg version="1.1" xmlns="http://www.w3.org/2000/svg" xmlns:xlink="http://www.w3.org/1999/xlink" x="0px" y="0px"
	 width="210.021px" height="360.036px" viewBox="0 0 210.021 360.036" style="enable-background:new 0 0 210.021 360.036;"
	 xml:space="preserve">
<g id="font" style="display:none;">
	<path style="display:inline;stroke:#000000;stroke-width:9;stroke-linecap:round;stroke-linejoin:round;stroke-miterlimit:10;" d="
		M74.624,321.472c58.255-3.78,136.772-156.239,79.965-156.239c-38.716,0-68.386,45.36-86.839,83.58
		c-20.625,43.68-31.118,88.619-31.479,89.039c-1.447,6.3-6.151,10.5-11.579,10.5c-14.473,0-16.282-17.22-10.131-38.64
		c8.684-28.979,35.098-90.3,60.064-146.579c33.65-74.76,68.748-148.68,69.11-149.52c3.256-6.72,10.855-9.24,16.645-5.46
		c6.151,3.78,7.96,12.6,4.703,19.32c0,0.84-99.503,202.439-58.616,126.419c15.197-11.34,31.479-17.22,48.124-17.22
		c29.67,0,45.953,18.9,45.953,49.14c0,62.58-72.366,164.219-127.365,164.219c-14.473,0-22.795-11.34-22.795-26.88
		c0-11.76,4.704-26.459,11.94-41.58c3.98-8.4,9.77-15.12,17.729-14.28c11.579,1.26,10.493,13.44,5.066,23.94
		C79.69,302.153,75.348,313.492,74.624,321.472z"/>
</g>
<g id="vectorized-fonts">
	<g>
		<path style="fill:none;stroke:#0000FF;stroke-width:28.8;stroke-linecap:round;stroke-linejoin:round;stroke-miterlimit:10;" d="
			M157.078,15.838c-35.5,67-128.5,270.5-134.5,322"/>
		<path style="fill:none;stroke:#0000FF;stroke-width:28.8;stroke-linecap:round;stroke-linejoin:round;stroke-miterlimit:10;" d="
			M68.018,207.813c10.465-15.782,63.559-75.475,109.059-57.475c24.457,9.675,10.961,57.57,5.515,74.418
			c-10.229,31.642-27.82,61.14-52.734,83.379c-11.139,9.943-23.441,19.635-37.201,25.695c-8.925,3.93-21.435,7.657-28.058-1.753
			c-4.642-6.597-4.725-16.546-2.972-24.114c2.779-11.999,9.214-22.665,15.45-33.124"/>
	</g>
</g>
<g id="KEY" style="display:none;">
</g>
</svg>
