<?xml version="1.0" encoding="iso-8859-1"?>
<!-- Generator: Adobe Illustrator 17.0.0, SVG Export Plug-In . SVG Version: 6.00 Build 0)  -->
<!DOCTYPE svg PUBLIC "-//W3C//DTD SVG 1.1//EN" "http://www.w3.org/Graphics/SVG/1.1/DTD/svg11.dtd">
<svg version="1.1" xmlns="http://www.w3.org/2000/svg" xmlns:xlink="http://www.w3.org/1999/xlink" x="0px" y="0px"
	 width="456.046px" height="391.353px" viewBox="0 0 456.046 391.353" style="enable-background:new 0 0 456.046 391.353;"
	 xml:space="preserve">
<g id="font" style="display:none;">
	<path style="display:inline;stroke:#000000;stroke-width:9;stroke-linecap:round;stroke-linejoin:round;stroke-miterlimit:10;" d="
		M447.718,105.047c-13.75,37.8-56.808,70.56-109.635,100.799c15.197,12.6,41.61,32.76,39.439,67.62
		c-7.599,86.1-193.58,114.24-235.914,114.24c-5.428,0-10.132-2.94-13.026-8.4c-2.171-3.36-3.256-7.56-3.256-13.02
		c0-41.58,134.24-276.779,146.542-294.839c7.598-11.34,13.026-16.8,19.901-16.8c6.875,0,12.302,6.3,12.302,14.28
		c0,5.46-3.256,10.5-7.598,13.02c-26.414,25.62-133.516,245.699-146.542,278.879c78.879,0,199.731-47.04,202.988-90.3
		c1.085-13.44-10.855-26.46-20.986-35.28c-12.664-10.5-25.69-16.8-25.69-16.8c-4.704-2.1-7.599-7.14-7.599-13.02
		c-0.362-5.46,2.533-10.92,6.875-13.02c68.748-36.54,121.937-77.7,121.575-110.04c-0.362-19.32-19.539-35.28-65.492-45.36
		c-82.497-18.48-202.987-0.42-271.012,51.66c-37.992,28.979-57.169,65.52-57.169,108.359c0,7.56-5.427,13.86-12.302,13.86
		c-6.513,0-11.94-6.3-11.94-13.86c0-27.72,6.151-53.34,18.815-76.02c11.578-21,27.861-39.48,49.209-55.86
		c18.815-14.28,41.61-26.88,67.301-36.96c59.702-23.52,149.437-35.7,221.803-18.9c36.907,7.98,75.984,26.46,83.945,59.64
		C453.145,80.687,452.422,92.866,447.718,105.047z"/>
</g>
<g id="vectorized-fonts">
	<path style="fill:none;stroke:#0000FF;stroke-width:28.8;stroke-linecap:round;stroke-linejoin:round;stroke-miterlimit:10;" d="
		M18.543,204.091c5.5-194.5,297.406-201.603,354.5-179c72.833,28.833,70.232,61.685,60.167,82.833
		c-29.667,62.333-100.333,84-116.163,96.947c-1.523,1.245,74.732,42.469,39.829,91.386c-44,61.667-222.768,84.236-223.583,75.833
		c-1.466-15.1,85.583-194.167,162.765-309.87"/>
</g>
<g id="KEY" style="display:none;">
</g>
</svg>
