<?xml version="1.0" encoding="iso-8859-1"?>
<!-- Generator: Adobe Illustrator 17.0.0, SVG Export Plug-In . SVG Version: 6.00 Build 0)  -->
<!DOCTYPE svg PUBLIC "-//W3C//DTD SVG 1.1//EN" "http://www.w3.org/Graphics/SVG/1.1/DTD/svg11.dtd">
<svg version="1.1" xmlns="http://www.w3.org/2000/svg" xmlns:xlink="http://www.w3.org/1999/xlink" x="0px" y="0px"
	 width="176.787px" height="231.833px" viewBox="0 0 176.787 231.833" style="enable-background:new 0 0 176.787 231.833;"
	 xml:space="preserve">
<g id="font" style="display:none;">
	<path style="display:inline;stroke:#000000;stroke-width:9;stroke-linecap:round;stroke-linejoin:round;stroke-miterlimit:10;" d="
		M107.151,114.73c-6.513,2.52-13.388-1.26-15.559-8.82c-2.171-7.14,1.085-15.12,7.598-17.64c20.263-8.4,44.505-28.56,43.058-42.84
		c-0.724-4.2-7.599-6.72-17.368-6.72c-52.465,0-84.307,66.36-84.307,114.24c0,23.1,6.513,39.899,24.604,39.899
		c0.724,0,24.243-0.42,41.611-17.64c5.065-5.04,12.664-4.2,17.368,1.68c4.342,5.88,3.618,14.7-1.447,19.74
		c-24.604,24.36-56.084,24.78-57.531,24.78c-32.203,0-49.209-30.66-49.209-68.459c0-69.3,47.038-142.8,108.911-142.8
		c20.263,0,38.716,9.24,41.249,30.24C171.195,72.31,138.268,102.549,107.151,114.73z"/>
</g>
<g id="vectorized-fonts">
	<path style="fill:none;stroke:#0000FF;stroke-width:28.8;stroke-linecap:round;stroke-linejoin:round;stroke-miterlimit:10;" d="
		M102.227,106.057c17.486-9.695,33.811-16.903,48.212-38.842c5.697-8.679,8.53-21.319,3.92-31.266
		c-5.994-12.934-22.741-15.405-35.437-13.9c-27.686,3.281-52.94,25.525-67.654,48.106c-14.706,22.571-23.563,48.918-25.476,75.789
		c-1.618,22.724,4.012,49.26,24.257,59.711c23.318,12.036,58.259-3.003,70.489-25.018"/>
</g>
<g id="KEY" style="display:none;">
</g>
</svg>
