<?xml version="1.0" encoding="iso-8859-1"?>
<!-- Generator: Adobe Illustrator 17.0.0, SVG Export Plug-In . SVG Version: 6.00 Build 0)  -->
<!DOCTYPE svg PUBLIC "-//W3C//DTD SVG 1.1//EN" "http://www.w3.org/Graphics/SVG/1.1/DTD/svg11.dtd">
<svg version="1.1" xmlns="http://www.w3.org/2000/svg" xmlns:xlink="http://www.w3.org/1999/xlink" x="0px" y="0px"
	 width="416.661px" height="397.917px" viewBox="0 0 416.661 397.917" style="enable-background:new 0 0 416.661 397.917;"
	 xml:space="preserve">
<g id="font" style="display:none;">
	<path style="display:inline;stroke:#000000;stroke-width:9;stroke-linecap:round;stroke-linejoin:round;stroke-miterlimit:10;" d="
		M284.58,39.782c-109.635,0-254.368,70.56-254.368,203.279c0,83.16,50.294,115.919,123.022,115.919
		c69.834,0,154.502-31.5,195.39-68.04c15.559-14.28,15.92-21.84,15.92-22.68c0-7.56,5.427-14.28,12.302-14.28
		c6.513,0,12.302,6.72,12.302,14.28c0,34.02-46.314,63.42-81.412,81.06c-45.591,22.68-104.569,38.22-154.502,38.22
		c-85.754,0-147.627-45.36-147.627-144.479c0-133.14,129.174-231.839,278.972-231.839c78.517,0,133.516,33.6,133.516,94.08
		c0,85.259-156.673,150.359-234.829,150.359c-52.827,0-92.629-23.52-92.629-80.22c0-7.98,5.428-14.28,12.302-14.28
		c6.513,0,11.94,6.3,11.94,14.28c0,40.74,31.118,52.08,68.386,52.08c68.748,0,210.224-60.06,210.224-122.219
		C393.491,55.742,335.236,39.782,284.58,39.782z"/>
</g>
<g id="vectorized-fonts">
	<path style="fill:none;stroke:#0000FF;stroke-width:28.8;stroke-linecap:round;stroke-linejoin:round;stroke-miterlimit:10;" d="
		M101.23,168.134c-0.142,25.235,7.457,49.813,29.867,63.868c17.056,10.697,37.863,13.812,57.996,13.621
		c73.722-0.699,207.178-49.578,216.846-136.257c7.776-69.728-76.902-82.702-128.574-82.628
		c-73.962,0.105-147.385,24.314-199.332,78.77C12.764,173.93-20.172,303.37,81.657,356.736
		c38.006,19.918,83.383,20.949,125.552,13.012c123.688-23.281,171.688-87.948,173.188-109.281"/>
</g>
<g id="KEY" style="display:none;">
</g>
</svg>
