<?xml version="1.0" encoding="iso-8859-1"?>
<!-- Generator: Adobe Illustrator 17.0.0, SVG Export Plug-In . SVG Version: 6.00 Build 0)  -->
<!DOCTYPE svg PUBLIC "-//W3C//DTD SVG 1.1//EN" "http://www.w3.org/Graphics/SVG/1.1/DTD/svg11.dtd">
<svg version="1.1" xmlns="http://www.w3.org/2000/svg" xmlns:xlink="http://www.w3.org/1999/xlink" x="0px" y="0px"
	 width="282.554px" height="393.039px" viewBox="0 0 282.554 393.039" style="enable-background:new 0 0 282.554 393.039;"
	 xml:space="preserve">
<g id="font" style="display:none;">
	<path style="display:inline;stroke:#000000;stroke-width:9;stroke-linecap:round;stroke-linejoin:round;stroke-miterlimit:10;" d="
		M162.874,237.716c-4.704,6.72-9.77,13.02-14.473,19.32c-6.151,20.16-11.579,39.9-15.921,57.12c-6.875,27.3-8.684,39.479-8.684,44.1
		c1.085,2.1,1.447,4.62,1.447,7.14c0,7.98-5.428,14.28-11.94,14.28c-5.79,0-10.855-4.2-13.026-10.5
		c-0.724-2.52-1.085-5.46-1.085-9.24c0-11.76,4.704-33.6,9.77-54.18c-8.322,10.08-16.644,19.32-24.243,27.3
		c-36.907,39.48-51.38,44.52-60.064,44.52c-26.414,0-25.328-47.459-14.473-89.04c17.006-70.14,58.617-122.22,111.082-122.22
		c11.217,0,20.625,3.36,28.223,9.24c14.835-41.16,30.032-76.02,43.419-100.8c18.815-34.859,34.736-51.239,50.657-51.239
		c14.111,0,22.434,10.5,22.434,26.04C265.996,91.136,199.419,187.736,162.874,237.716z M139.717,203.696l-2.171-2.939
		c-3.619-3.78-9.046-5.88-16.283-5.88c-54.998,0-84.668,74.34-91.905,121.799c-2.171,15.12-2.171,25.62-1.085,31.08
		c3.256-1.68,9.77-5.88,19.901-15.54c24.243-22.26,57.531-62.16,78.879-89.879C131.033,229.316,135.374,216.296,139.717,203.696z
		 M232.346,60.477c-18.454,20.58-53.913,86.1-73.814,143.219c36.907-41.58,79.241-118.02,87.925-154.139
		C243.562,50.397,239.22,53.337,232.346,60.477z"/>
</g>
<g id="vectorized-fonts">
	<g>
		<path style="fill:none;stroke:#0000FF;stroke-width:28.8;stroke-linecap:round;stroke-linejoin:round;stroke-miterlimit:10;" d="
			M150.441,196.932c-17.21-12.027-71.217-27.278-109.217,75.723c-5.254,14.242-10.587,29.651-13.253,45.035
			c-2.237,12.908-5.198,34.548,2.155,46.402c10.203,16.449,33.705-7.963,42.176-15.649c12.685-11.51,23.312-25.013,34.295-38.091
			c24.366-29.015,46.525-59.889,67.888-91.155c30.869-45.179,62.115-90.439,87.573-138.874c29.5-56.127-9.333-69.965-43.833-35
			c-8.896,9.016-71.833,65.728-71.833,213.569"/>
		<path style="fill:none;stroke:#0000FF;stroke-width:28.8;stroke-linecap:round;stroke-linejoin:round;stroke-miterlimit:10;" d="
			M146.391,258.89c-9.833,30.765-25.167,79.098-22.833,116.765"/>
	</g>
</g>
<g id="KEY" style="display:none;">
</g>
</svg>
