<?xml version="1.0" encoding="iso-8859-1"?>
<!-- Generator: Adobe Illustrator 17.0.0, SVG Export Plug-In . SVG Version: 6.00 Build 0)  -->
<!DOCTYPE svg PUBLIC "-//W3C//DTD SVG 1.1//EN" "http://www.w3.org/Graphics/SVG/1.1/DTD/svg11.dtd">
<svg version="1.1" xmlns="http://www.w3.org/2000/svg" xmlns:xlink="http://www.w3.org/1999/xlink" x="0px" y="0px"
	 width="402.04px" height="378.72px" viewBox="0 0 402.04 378.72" style="enable-background:new 0 0 402.04 378.72;"
	 xml:space="preserve">
<g id="font" style="display:none;">
	<path style="display:inline;stroke:#000000;stroke-width:9;stroke-linecap:round;stroke-linejoin:round;stroke-miterlimit:10;" d="
		M237.692,307.387c-66.215,39.9-142.2,66.36-171.87,66.36c-19.901,0-24.604-20.58-16.282-47.46
		c17.368-55.02,98.78-197.399,119.042-238.979c6.151-13.02,10.131-22.26,13.026-28.98c-9.046,0.42-18.091,1.68-27.861,2.52
		c-64.406,7.979-120.49,24.78-121.214,24.78c-6.513,2.1-13.026-2.52-14.835-10.08s2.171-15.12,8.684-17.22
		c34.736-11.34,114.701-25.2,156.311-28.56c1.447-5.46,6.151-9.66,11.579-9.66c5.79,0,10.855,2.94,14.112,8.4
		c104.569-2.1,162.824,33.6,162.824,108.779C371.208,209.527,300.289,269.167,237.692,307.387z M208.384,56.648
		c-13.026,48.72-102.398,186.479-134.24,274.259c-2.171,6.72-3.256,11.34-3.98,14.28c35.821-2.521,112.167-36.54,156.311-63
		c57.893-34.44,120.128-87.78,120.128-144.899C346.604,73.868,286.178,55.388,208.384,56.648z"/>
</g>
<g id="vectorized-fonts">
	<g>
		<path style="fill:none;stroke:#0000FF;stroke-width:28.8;stroke-linecap:round;stroke-linejoin:round;stroke-miterlimit:10;" d="
			M31.366,66.786c268.108-58.777,301.563-12.929,317.13,3.133c52.979,54.667,29.645,212.667-279.021,288.667
			c-2.149,0.529-10.221-37.259,60.813-166.619c21.638-39.405,43.631-70.259,77.344-152.999"/>
		<path style="fill:none;stroke:#0000FF;stroke-width:28.8;stroke-linecap:round;stroke-linejoin:round;stroke-miterlimit:10;" d="
			M209.767,20.128c-0.174,4.784-3.214,14.358-2.702,18.879"/>
	</g>
</g>
</svg>
