<?xml version="1.0" encoding="iso-8859-1"?>
<!-- Generator: Adobe Illustrator 17.0.0, SVG Export Plug-In . SVG Version: 6.00 Build 0)  -->
<!DOCTYPE svg PUBLIC "-//W3C//DTD SVG 1.1//EN" "http://www.w3.org/Graphics/SVG/1.1/DTD/svg11.dtd">
<svg version="1.1" xmlns="http://www.w3.org/2000/svg" xmlns:xlink="http://www.w3.org/1999/xlink" x="0px" y="0px"
	 width="165.016px" height="221.526px" viewBox="0 0 165.016 221.526" style="enable-background:new 0 0 165.016 221.526;"
	 xml:space="preserve">
<g id="font" style="display:none;">
	<path style="display:inline;stroke:#000000;stroke-width:9;stroke-linecap:round;stroke-linejoin:round;stroke-miterlimit:10;" d="
		M163.91,38.903c0,18.48-11.94,38.64-32.564,53.76c-21.348,15.96-48.848,24.78-78.879,24.78c-4.704,0-8.684,0-11.217-0.42
		c-2.171,10.08-3.619,19.74-3.619,28.56c0,24.36,7.96,39.9,24.967,39.9c0.362,0,24.243-0.42,41.61-17.64
		c5.066-5.04,12.664-4.2,17.006,1.68c4.342,5.88,3.98,14.7-1.448,19.74c-24.242,24.36-56.083,24.78-57.169,24.78
		c-32.565,0-49.209-30.66-49.209-68.46C13.389,76.282,60.427,2.783,122.3,2.783C145.457,2.783,163.91,14.123,163.91,38.903z
		 M139.667,38.903c0-7.56-12.302-7.56-17.368-7.56c-32.927,0-57.893,26.04-72.005,57.54c23.52,0,46.314-5.46,68.024-20.16
		C132.793,57.802,139.667,45.623,139.667,38.903z"/>
</g>
<g id="vectorized-fonts">
	<path style="fill:none;stroke:#0000FF;stroke-width:28.8;stroke-linecap:round;stroke-linejoin:round;stroke-miterlimit:10;" d="
		M28.351,103.948c111.317,19.38,156.622-85.12,97.122-91.453c-53.187-5.661-88.467,57.03-99.613,100.591
		c-4.597,17.964-5.536,38.239,0.886,55.891c4.833,13.285,14.868,25.221,28.3,29.629c23.201,7.613,47.734-7.271,64.761-21.778"/>
</g>
<g id="KEY" style="display:none;">
	<g style="display:inline;">
		<path style="fill:none;stroke:#F71111;stroke-width:28.8;stroke-miterlimit:10;" d="M48.975,59.426
			c15.034-27.712,76.897-69.384,99.464-35.883C172.862,59.8,105.3,93.017,76.325,98.237"/>
		<line style="fill:none;stroke:#F71111;stroke-miterlimit:10;" x1="64.449" y1="66.372" x2="74.506" y2="81.301"/>
		<line style="fill:none;stroke:#F71111;stroke-miterlimit:10;" x1="88.081" y1="40.601" x2="108.194" y2="70.459"/>
	</g>
</g>
</svg>
