<?xml version="1.0" encoding="iso-8859-1"?>
<!-- Generator: Adobe Illustrator 17.0.0, SVG Export Plug-In . SVG Version: 6.00 Build 0)  -->
<!DOCTYPE svg PUBLIC "-//W3C//DTD SVG 1.1//EN" "http://www.w3.org/Graphics/SVG/1.1/DTD/svg11.dtd">
<svg version="1.1" xmlns="http://www.w3.org/2000/svg" xmlns:xlink="http://www.w3.org/1999/xlink" x="0px" y="0px"
	 width="378.038px" height="379.535px" viewBox="0 0 378.038 379.535" style="enable-background:new 0 0 378.038 379.535;"
	 xml:space="preserve">
<g id="font" style="display:none;">
	<path style="display:inline;stroke:#000000;stroke-width:9;stroke-linecap:round;stroke-linejoin:round;stroke-miterlimit:10;" d="
		M73.637,78.051c-1.809,10.5,5.427,22.68,11.94,31.08c12.302,15.96,32.565,33.6,60.788,52.08c3.618,2.52,6.151,7.14,6.151,11.76
		c0,5.04-2.171,10.08-5.79,12.6c-43.058,30.24-84.307,57.96-101.313,81.899c-8.684,12.6-18.091,30.24-13.026,43.68
		c5.428,15.12,28.585,26.459,61.512,30.24c35.098,4.2,77.432-0.42,116.147-12.6c27.5-8.4,116.872-42,109.635-112.559
		c-0.724-7.98,3.98-15.12,10.493-15.96c6.875-0.84,13.026,4.62,13.75,12.18c3.618,34.44-9.046,66.78-35.821,92.819
		c-22.072,21.42-53.913,39.06-91.905,51.24c-31.479,9.66-65.13,14.7-96.247,14.7c-9.77,0-19.177-0.42-28.223-1.68
		c-19.9-2.1-36.907-6.72-50.294-13.86c-15.92-7.98-26.414-19.32-31.479-33.18c-3.98-10.92-4.704-22.68-1.447-35.28
		c2.895-11.76,9.046-24.36,18.092-37.38c16.282-23.52,53.913-48.72,90.458-76.02c-22.072-15.96-38.716-31.08-49.933-45.78
		c-14.473-18.9-20.263-37.38-17.729-55.02c2.533-16.8,13.026-31.5,31.117-42.42c14.474-9.24,33.289-15.96,56.446-20.16
		c39.802-7.56,87.563-6.72,127.727,2.1c21.71,4.62,40.525,11.76,55.722,20.58c17.368,10.08,30.032,22.68,36.907,37.38
		c3.257,6.72,1.085,15.54-4.704,19.32c-6.151,3.78-13.388,1.26-16.645-5.88c-9.045-18.9-36.907-34.86-75.984-43.68
		c-37.63-8.4-82.136-9.24-119.042-2.1C101.86,45.711,76.17,60.831,73.637,78.051z"/>
</g>
<g id="vectorized-fonts">
	<path style="fill:none;stroke:#0000FF;stroke-width:28.8;stroke-linecap:round;stroke-linejoin:round;stroke-miterlimit:10;" d="
		M354.393,84.265C304.928,15.452,187.328,7.509,113.006,31.01c-15.32,4.844-30.577,12.067-40.625,24.606
		c-36.192,45.163,70.264,118.312,70.264,118.312s-43.2,29.437-61.585,44.127c-26.623,21.271-67.218,58.933-58.109,97.374
		c10.451,44.102,72.093,46.361,108.083,45.7c51.7-0.949,103.155-16.299,146.653-44.321c18.467-11.897,35.816-26.318,47.458-44.946
		c11.642-18.628,17.029-41.967,10.78-63.026"/>
</g>
</svg>
