<?xml version="1.0" encoding="iso-8859-1"?>
<!-- Generator: Adobe Illustrator 17.0.0, SVG Export Plug-In . SVG Version: 6.00 Build 0)  -->
<!DOCTYPE svg PUBLIC "-//W3C//DTD SVG 1.1//EN" "http://www.w3.org/Graphics/SVG/1.1/DTD/svg11.dtd">
<svg version="1.1" xmlns="http://www.w3.org/2000/svg" xmlns:xlink="http://www.w3.org/1999/xlink" x="0px" y="0px"
	 width="321.032px" height="752.717px" viewBox="0 0 321.032 752.717" style="enable-background:new 0 0 321.032 752.717;"
	 xml:space="preserve">
<g id="font" style="display:none;">
	<path style="display:inline;stroke:#000000;stroke-width:9;stroke-linecap:round;stroke-linejoin:round;stroke-miterlimit:10;" d="
		M218.729,362.759c0,0.84-0.362,1.68-0.724,2.1c32.926-0.42,70.919-7.56,109.273-32.76c5.79-3.36,13.026-1.26,16.645,5.46
		c2.895,6.72,1.085,15.54-4.704,19.32c-34.374,22.68-70.919,33.18-108.911,36.12c-8.322,0.42-16.645,0.42-24.604,0
		c-3.98,10.08-41.249,76.439-11.94,28.979c12.302,7.98,24.604,16.8,35.459,26.88c19.539,18.48,32.927,39.9,30.756,67.62
		c-1.085,13.859-9.77,34.439-27.137,63c-13.75,23.1-31.841,49.56-52.828,78.12c-31.479,40.74-79.965,101.64-99.503,99.959
		c-22.072-2.52-22.434-32.34-12.664-70.98c15.92-62.579,55.36-163.379,93.353-252.839c-1.085-0.42-2.171-0.84-2.895-1.68
		c-22.434-13.02-43.419-25.62-51.38-40.32c-5.065-9.66-3.98-18.06-2.533-23.52c1.447-3.36,3.98-9.24,11.217-12.18
		c3.256-0.84,6.513-1.26,10.855-0.84c6.513,0,14.473,1.68,24.604,3.359c11.217,1.681,24.966,4.2,40.163,5.46
		c1.086-3.779,2.895-7.56,4.704-10.5C269.385,184.68,347.179,21.301,348.265,19.62c3.256-6.72,10.855-8.819,16.644-5.46
		c5.79,4.2,7.96,12.6,4.704,19.74C368.889,35.58,292.181,196.02,218.729,362.759z M182.546,447.179
		c-25.69,60.899-46.314,112.979-62.235,155.819c-12.664,36.12-22.795,65.939-28.223,88.199c-4.342,17.64-5.79,28.14-5.79,34.02
		c4.342-3.78,12.665-11.34,25.69-26.04c31.118-33.6,78.518-97.86,102.398-138.18c18.815-31.92,20.625-44.1,20.986-47.04
		C237.544,487.498,211.131,465.659,182.546,447.179z M139.126,387.539c7.96,5.88,18.815,12.6,30.032,19.739
		c1.085,0.42,1.809,0.42,2.533,0.84l7.598-16.8c-11.94-1.68-22.795-3.36-31.841-5.04c-3.98-0.84-8.322-1.68-12.664-2.1
		L139.126,387.539z"/>
</g>
<g id="vectorized-fonts">
	<g>
		<path style="fill:none;stroke:#0000FF;stroke-width:28.8;stroke-linecap:round;stroke-linejoin:round;stroke-miterlimit:10;" d="
			M307.274,23.325C199.314,244.194,47.981,606.194,29.012,683.318c-2.114,8.595-30.475,120.675,71.636,6.209
			c17.679-19.818,95.785-121.326,96.667-186c0.5-36.667-48.401-84.402-62.124-97.297"/>
		<path style="fill:none;stroke:#0000FF;stroke-width:28.8;stroke-linecap:round;stroke-linejoin:round;stroke-miterlimit:10;" d="
			M136.822,403.882c82.496,3.478,152.72-49.855,164.992-60.022"/>
		<path style="fill:none;stroke:#0000FF;stroke-width:28.8;stroke-linecap:round;stroke-linejoin:round;stroke-miterlimit:10;" d="
			M79.648,388.013c5.664,2.824,36.648,13.223,51.1,18.514"/>
	</g>
</g>
</svg>
