<?xml version="1.0" encoding="iso-8859-1"?>
<!-- Generator: Adobe Illustrator 17.0.0, SVG Export Plug-In . SVG Version: 6.00 Build 0)  -->
<!DOCTYPE svg PUBLIC "-//W3C//DTD SVG 1.1//EN" "http://www.w3.org/Graphics/SVG/1.1/DTD/svg11.dtd">
<svg version="1.1" xmlns="http://www.w3.org/2000/svg" xmlns:xlink="http://www.w3.org/1999/xlink" x="0px" y="0px"
	 width="429.043px" height="379.535px" viewBox="0 0 429.043 379.535" style="enable-background:new 0 0 429.043 379.535;"
	 xml:space="preserve">
<g id="font" style="display:none;">
	<path style="display:inline;stroke:#000000;stroke-width:9;stroke-linecap:round;stroke-linejoin:round;stroke-miterlimit:10;" d="
		M38.864,124.251c-14.835,15.96-30.755-2.1-19.539-17.22c2.895-3.78,67.662-97.02,294.893-97.02c23.157,0,40.887,3.36,54.637,10.08
		c14.473,7.14,23.881,18.06,28.223,32.34c6.513,22.26,0,49.98-19.539,85.68c7.598-0.42,15.559-0.42,23.519-0.42
		c6.513,0,11.941,6.3,11.941,14.28c0,7.979-5.428,14.28-11.941,14.28c-14.473,0-28.223,0-41.249,0.42
		c-15.559,23.52-36.183,49.14-60.788,77.28c-54.999,62.58-113.977,115.5-114.339,115.919c-2.533,2.1-5.066,2.94-7.599,2.94
		c-3.618,0-7.236-1.68-9.77-5.46c-3.98-5.88-3.256-15.12,2.171-19.74c0.724-0.42,58.617-52.5,112.529-114.239
		c17.368-19.32,32.203-37.8,44.867-55.02c-30.032,2.1-54.999,5.46-73.813,10.5c-23.881,6.3-34.012,12.6-34.012-2.52
		c0-18.06,13.388-21.84,34.012-26.46c23.881-5.46,55.36-9.24,94.438-10.92c1.809-3.36,3.98-6.3,5.789-9.66
		c9.046-15.12,15.197-28.98,18.815-40.74c3.256-10.92,3.98-20.16,1.809-26.88c-1.809-6.72-6.513-11.76-14.473-15.54
		c-10.493-5.04-25.69-7.56-45.229-7.56c-111.806,0-180.916,23.52-219.27,43.26c-40.887,21-56.084,42.419-56.084,42.839V124.251z"/>
</g>
<g id="vectorized-fonts">
	<g>
		<path style="fill:none;stroke:#0000FF;stroke-width:28.8;stroke-linecap:round;stroke-linejoin:round;stroke-miterlimit:10;" d="
			M24.372,120.276c55.957-86.5,333.957-126,358.957-70c31.745,71.109-159.519,261.005-210.667,303.333"/>
		<path style="fill:none;stroke:#0000FF;stroke-width:28.8;stroke-linecap:round;stroke-linejoin:round;stroke-miterlimit:10;" d="
			M223.996,171.609c57.991-12.556,123-20.39,183.667-20"/>
	</g>
</g>
</svg>
