<?xml version="1.0" encoding="iso-8859-1"?>
<!-- Generator: Adobe Illustrator 17.0.0, SVG Export Plug-In . SVG Version: 6.00 Build 0)  -->
<!DOCTYPE svg PUBLIC "-//W3C//DTD SVG 1.1//EN" "http://www.w3.org/Graphics/SVG/1.1/DTD/svg11.dtd">
<svg version="1.1" xmlns="http://www.w3.org/2000/svg" xmlns:xlink="http://www.w3.org/1999/xlink" x="0px" y="0px"
	 width="467.077px" height="576.058px" viewBox="0 0 467.077 576.058" style="enable-background:new 0 0 467.077 576.058;"
	 xml:space="preserve">
<g id="font" style="display:none;">
	<path style="display:inline;stroke:#000000;stroke-width:9;stroke-linecap:round;stroke-linejoin:round;stroke-miterlimit:10;" d="
		M-141.307,173.74c0,0.84-0.362,1.68-0.724,2.1c32.926-0.42,70.919-7.56,109.273-32.76c5.79-3.36,13.026-1.26,16.645,5.46
		c2.895,6.72,1.085,15.54-4.704,19.32c-34.374,22.68-70.919,33.18-108.911,36.12c-8.322,0.42-16.645,0.42-24.604,0
		c-3.98,10.08-41.249,76.439-11.94,28.979c12.302,7.98,24.604,16.8,35.459,26.88c19.539,18.48,32.927,39.9,30.756,67.62
		c-1.085,13.859-9.77,34.439-27.137,63c-13.75,23.1-31.841,49.56-52.828,78.12c-31.479,40.74-79.965,101.64-99.503,99.959
		c-22.072-2.52-22.434-32.34-12.664-70.98c15.92-62.579,55.36-163.379,93.353-252.839c-1.085-0.42-2.171-0.84-2.895-1.68
		c-22.434-13.02-43.419-25.62-51.38-40.32c-5.065-9.66-3.98-18.06-2.533-23.52c1.447-3.36,3.98-9.24,11.217-12.18
		c3.256-0.84,6.513-1.26,10.855-0.84c6.513,0,14.473,1.68,24.604,3.359c11.217,1.681,24.966,4.2,40.163,5.46
		c1.086-3.779,2.895-7.56,4.704-10.5C-90.651-4.339-12.857-167.718-11.771-169.398c3.256-6.72,10.855-8.819,16.644-5.46
		c5.79,4.2,7.96,12.6,4.704,19.74C8.853-153.439-67.855,7.001-141.307,173.74z M-177.49,258.16
		c-25.69,60.899-46.314,112.979-62.235,155.819c-12.664,36.12-22.795,65.939-28.223,88.199c-4.342,17.64-5.79,28.14-5.79,34.02
		c4.342-3.78,12.665-11.34,25.69-26.04c31.118-33.6,78.518-97.86,102.398-138.18c18.815-31.92,20.625-44.1,20.986-47.04
		C-122.492,298.479-148.905,276.64-177.49,258.16z M-220.91,198.52c7.96,5.88,18.815,12.6,30.032,19.739
		c1.085,0.42,1.809,0.42,2.533,0.84l7.598-16.8c-11.94-1.68-22.795-3.36-31.841-5.04c-3.98-0.84-8.322-1.68-12.664-2.1
		L-220.91,198.52z"/>
	<path style="display:inline;stroke:#000000;stroke-width:9;stroke-linecap:round;stroke-linejoin:round;stroke-miterlimit:10;" d="
		M480.673,332.08c-10.493,42.84-41.973,56.28-94.438,43.26c-49.209-12.6-115.786-45.78-159.568-61.32
		c-34.374,94.92-73.09,188.999-107.102,232.259c-18.092,22.681-30.032,24.78-40.164,24.78c-28.946-3.78-37.992-55.439-41.61-101.64
		c-7.237-91.979,5.427-151.199,39.078-181.439c36.545-32.76,88.649-22.68,135.687-8.399c14.111-39.48,62.959-171.359,38.716-114.66
		c-0.362,0.84-0.724,1.26-1.447,1.68c-24.243,31.92-58.617,61.739-92.267,61.739c-16.644,0-21.348-21.42-21.348-39.06
		c0-34.86,11.94-75.18,27.5-105c21.348-40.32,52.465-66.78,90.458-66.78c19.901,0,31.118,8.82,36.545,20.58
		c2.895-11.34,4.704-16.8,4.704-17.22c2.171-7.561,9.046-11.34,15.559-8.82c6.513,2.52,9.77,10.5,7.599,18.06
		c-0.362,1.26-37.269,129.36-82.498,257.459c37.269,14.28,114.701,49.98,155.587,60.06c54.275,13.44,72.367-4.2,67.301-65.52
		c-0.724-7.56,4.342-14.7,10.855-15.12c6.875-0.84,12.664,4.62,13.388,12.6C485.015,300.58,483.929,317.8,480.673,332.08z
		 M203.148,306.04c-36.545-11.34-83.945-20.58-111.444,4.62c-31.117,27.72-34.374,94.5-29.308,155.819
		c2.533,35.28,10.131,74.339,19.539,76.44c1.81,0,17.368,0,53.189-71.82C155.024,430.779,177.82,375.339,203.148,306.04z
		 M271.172,61.181c0-11.76-5.428-15.54-17.006-15.54c-55.722,0-85.03,76.02-91.905,121.8c-2.533,16.38-1.81,27.3-1.086,32.34
		c23.157-2.1,51.38-27.3,70.558-52.08C250.91,123.341,271.172,87.641,271.172,61.181z"/>
</g>
<g id="vectorized-fonts">
	<g>
		<path style="fill:none;stroke:#0000FF;stroke-width:28.8;stroke-linecap:round;stroke-linejoin:round;stroke-miterlimit:10;" d="
			M267.653,56.914c-20.34-33.857-81.824-49.255-129.909,43.079c-5.802,11.14-35.049,94.376-12.333,111.333
			c23.667,17.667,81.088-38.618,98.667-64.667s39.409-57.5,43.576-92.333"/>
		<path style="fill:none;stroke:#0000FF;stroke-width:28.8;stroke-linecap:round;stroke-linejoin:round;stroke-miterlimit:10;" d="
			M277.077,20.326c-19.437,89.084-168.758,544.081-223.667,536c-40-5.886-47.59-205-15-244c41.35-49.484,121.5-32,149.588-13.284"/>
		<path style="fill:none;stroke:#0000FF;stroke-width:28.8;stroke-linecap:round;stroke-linejoin:round;stroke-miterlimit:10;" d="
			M187.999,299.042c11.032,3.722,168.911,80.784,218.411,66.784c28.377-8.026,39.53-25.167,37.14-80.479"/>
	</g>
</g>
</svg>
