<?xml version="1.0" encoding="iso-8859-1"?>
<!-- Generator: Adobe Illustrator 17.0.0, SVG Export Plug-In . SVG Version: 6.00 Build 0)  -->
<!DOCTYPE svg PUBLIC "-//W3C//DTD SVG 1.1//EN" "http://www.w3.org/Graphics/SVG/1.1/DTD/svg11.dtd">
<svg version="1.1" xmlns="http://www.w3.org/2000/svg" xmlns:xlink="http://www.w3.org/1999/xlink" x="0px" y="0px"
	 width="461.244px" height="664.966px" viewBox="0 0 461.244 664.966" style="enable-background:new 0 0 461.244 664.966;"
	 xml:space="preserve">
<g id="font" style="display:none;">
	<path style="display:inline;stroke:#000000;stroke-width:9;stroke-linecap:round;stroke-linejoin:round;stroke-miterlimit:10;" d="
		M450.646,511.989c-43.782,50.819-89.373,67.619-136.049,62.58c-28.223-3.36-56.084-15.12-81.412-29.82
		c-3.256,4.62-6.513,9.24-9.77,13.439c-55.36,73.92-99.503,110.04-134.601,110.04c-5.066,0-10.131-0.84-14.835-2.521
		c-52.465-16.8-61.873-121.379-61.873-214.199c0-21,1.447-36.96,4.704-48.72c3.619-14.28,9.77-23.94,18.092-28.56
		c7.236-3.78,15.197-4.2,24.604-1.26c6.875,2.1,14.473,6.3,23.519,12.6c43.42,31.5,86.478,83.16,144.371,123.06
		c31.841-46.62,66.939-104.159,104.569-171.779c-5.789,2.94-11.578,6.3-18.091,9.24c-45.591,22.68-104.569,38.22-154.502,38.22
		c-36.545,0-74.175-8.4-101.674-31.5c-31.118-24.36-45.591-65.1-45.591-112.56c0-36.959,9.408-71.399,27.861-102.479
		c16.645-27.3,39.44-51.66,68.386-72.24c51.38-35.7,119.766-57.12,182.363-57.12c53.913,0,100.227,15.54,121.937,50.82
		c7.599,12.6,11.579,27.3,11.579,43.26c0,19.32-8.684,39.06-25.69,58.8c-43.42,49.14-136.772,91.56-209.139,91.56
		c-52.827,0-92.629-23.52-92.629-80.22c0-7.98,5.79-14.28,12.302-14.28c6.513,0,11.94,6.3,11.94,14.28
		c0,40.74,31.118,52.08,68.386,52.08c68.748,0,210.224-60.06,210.224-122.219c0-20.16-9.408-35.7-28.584-47.459
		c-19.177-11.76-47.762-18.06-80.327-18.06c-58.617,0-121.938,19.74-169.699,52.919C82.663,116.77,36.71,164.65,36.71,240.25
		c0,83.16,49.933,115.5,122.661,115.5c69.834,0,154.502-31.08,195.39-67.62c15.559-14.28,15.92-21.84,15.92-22.68
		c0-7.56,5.427-14.28,12.302-14.28c11.94,0,13.026,12.6,9.77,18.9c-65.13,122.219-91.543,160.439-143.647,251.999
		c9.77,5.88,19.539,10.5,29.67,14.28c58.255,23.1,108.911,8.4,154.502-44.52c5.066-5.46,12.664-5.46,17.368,0
		C455.349,497.289,455.349,506.529,450.646,511.989z M211.475,530.469c-49.209-34.439-109.273-98.279-141.476-120.539
		c-11.94-8.82-18.454-10.5-21.71-10.5c-1.447,0-2.171,0-2.533,0.42c-1.809,0.84-9.408,7.56-9.408,51.66
		c0,81.9,9.046,175.559,44.144,187.319c33.289,10.92,87.563-49.56,124.47-99.119C207.133,536.769,209.304,533.829,211.475,530.469z"
		/>
</g>
<g id="vectorized-fonts">
	<g>
		<path style="fill:none;stroke:#0000FF;stroke-width:28.8;stroke-linecap:round;stroke-linejoin:round;stroke-miterlimit:10;" d="
			M106.548,163.92c-15.809,62.786,57.17,78.891,104.099,75.258c37.453-2.9,74.26-14.964,107.202-32.788
			c32.924-17.814,79.272-47.694,91.806-84.973c20.629-61.359-39.385-88.294-89.64-96.099
			C184.388,4.254,24.552,104.105,24.754,244.008c0.114,79.355,56.849,129.022,133.657,127.536
			c85.394-1.652,180.132-34.762,226.061-110.729"/>
		<path style="fill:none;stroke:#0000FF;stroke-width:28.8;stroke-linecap:round;stroke-linejoin:round;stroke-miterlimit:10;" d="
			M384.472,260.815c-25.395,63.841-214.192,404.69-298.667,391.652c-80-12.347-62.68-261.924-46.667-268.319
			c34-13.577,157.833,124.667,190.766,141.027"/>
		<path style="fill:none;stroke:#0000FF;stroke-width:28.8;stroke-linecap:round;stroke-linejoin:round;stroke-miterlimit:10;" d="
			M229.905,525.176c130.567,81.64,204.875-10.932,216.3-27.381"/>
	</g>
</g>
</svg>
