<?xml version="1.0" encoding="iso-8859-1"?>
<!-- Generator: Adobe Illustrator 17.0.0, SVG Export Plug-In . SVG Version: 6.00 Build 0)  -->
<!DOCTYPE svg PUBLIC "-//W3C//DTD SVG 1.1//EN" "http://www.w3.org/Graphics/SVG/1.1/DTD/svg11.dtd">
<svg version="1.1" xmlns="http://www.w3.org/2000/svg" xmlns:xlink="http://www.w3.org/1999/xlink" x="0px" y="0px"
	 width="204.02px" height="351.824px" viewBox="0 0 204.02 351.824" style="enable-background:new 0 0 204.02 351.824;"
	 xml:space="preserve">
<g id="font" style="display:none;">
	<path style="display:inline;stroke:#000000;stroke-width:9;stroke-linecap:round;stroke-linejoin:round;stroke-miterlimit:10;" d="
		M102.711,313.95c-4.342,13.02-4.704,18.9-4.342,21.42h1.447c6.875,0,12.302,6.3,12.302,14.28c0,7.56-5.427,13.859-12.302,13.859
		c-12.664,0-19.177-6.72-22.072-12.6c-7.236-13.02-2.895-30.66,1.447-44.52c7.237-24.78,31.479-75.18,38.716-100.38
		c5.427-18.48,3.618-23.52,3.618-23.94c-0.362-0.42-1.809-1.26-5.427-1.26c-8.322,0-34.013,8.4-89.011,86.1
		c-31.841,44.94-56.808,89.88-57.169,90.3c-2.171,3.78-6.151,6.3-10.131,6.3c-5.789,0-10.493-3.78-12.664-10.08
		c-1.085-2.52-1.447-5.46-1.447-8.819c0-33.18,35.098-132.3,55.36-178.5c24.966-58.379,55.36-112.56,83.583-135.66
		c11.579-9.66,23.157-14.279,34.012-14.279c6.875,0,12.302,6.3,12.302,14.279c0,7.561-5.428,13.86-12.302,13.86
		c-34.374,0-84.307,99.959-115.062,182.699c-7.237,19.74-18.092,49.14-23.519,67.199c7.236-16.38,19.539-33.18,27.861-44.939
		c29.67-41.58,73.09-96.6,108.188-96.6c44.143,0,30.755,52.5,3.98,116.76C113.204,285.39,107.053,300.93,102.711,313.95z"/>
</g>
<g id="vectorized-fonts">
	<g>
		<path style="fill:none;stroke:#0000FF;stroke-width:28.8;stroke-linecap:round;stroke-linejoin:round;stroke-miterlimit:10;" d="
			M170.873,16.457C118.43,41.002,44.731,189.124,13.763,338.554"/>
		<path style="fill:none;stroke:#0000FF;stroke-width:28.8;stroke-linecap:round;stroke-linejoin:round;stroke-miterlimit:10;" d="
			M13.763,338.554c21.449-28.779,117.333-204.219,171.019-180.058c25.838,11.628-30.093,131.344-40.352,180.058"/>
	</g>
</g>
</svg>
