<?xml version="1.0" encoding="iso-8859-1"?>
<!-- Generator: Adobe Illustrator 17.0.0, SVG Export Plug-In . SVG Version: 6.00 Build 0)  -->
<!DOCTYPE svg PUBLIC "-//W3C//DTD SVG 1.1//EN" "http://www.w3.org/Graphics/SVG/1.1/DTD/svg11.dtd">
<svg version="1.1" xmlns="http://www.w3.org/2000/svg" xmlns:xlink="http://www.w3.org/1999/xlink" x="0px" y="0px"
	 width="573.033px" height="505.164px" viewBox="0 0 573.033 505.164" style="enable-background:new 0 0 573.033 505.164;"
	 xml:space="preserve">
<g id="font" style="display:none;">
	<path style="display:inline;stroke:#000000;stroke-width:9;stroke-linecap:round;stroke-linejoin:round;stroke-miterlimit:10;" d="
		M292.131,185.151c32.926,16.38,92.629,51.66,127.364,67.2c35.098-110.88,100.59-281.399,207.691-281.399
		c6.875,0,12.303,6.3,12.303,13.86c0,7.98-5.428,14.28-12.303,14.28c-100.589,0-161.015,187.319-184.534,262.499
		c24.604,8.4,41.61,8.82,52.104,1.26c11.217-8.4,17.006-28.56,17.006-60.48c0-7.56,5.428-13.86,12.302-13.86
		c6.875,0,12.303,6.3,12.303,13.86c0,36.12-6.513,68.04-28.585,84.419c-17.006,12.6-40.525,13.02-73.452,1.68
		c-18.091,60.48-28.584,103.74-28.584,104.58c-2.533,8.4-7.96,10.08-15.197,10.08c-6.513-2.1-10.131-10.08-8.322-17.64
		c0-0.84,10.493-44.94,29.309-106.679c-36.184-15.54-97.333-52.08-130.621-68.46c-27.5,65.939-111.806,258.299-168.976,246.959
		c-12.302-3.36-21.71-15.54-27.138-36.12C69.966,362.81,74.308,208.67,130.754,167.091c43.419-31.92,104.931-8.4,138.581,7.56
		l55.36-134.399c2.533-7.14,9.77-10.08,15.921-7.14c6.151,3.36,9.046,11.76,6.151,18.9L292.131,185.151z M143.779,191.031
		c-13.025,9.66-22.433,25.2-29.67,47.88c-13.388,44.1-15.559,139.439-5.789,173.879c2.895,11.34,6.513,15.96,8.684,16.8
		c2.895,0.42,9.046-2.1,18.454-10.92c44.867-46.2,105.655-179.339,122.661-218.819C220.488,182.631,173.812,169.611,143.779,191.031
		z"/>
</g>
<g id="vectorized-fonts">
	<g>
		<path style="fill:none;stroke:#0000FF;stroke-width:28.8;stroke-linecap:round;stroke-linejoin:round;stroke-miterlimit:10;" d="
			M266.17,80.433c-42.033,101.938-158.335,422.17-231.786,408.404c-6.569-1.231-54.547-172.702,28.453-264.702
			c38.643-42.833,118.12-0.681,140.392,11.507"/>
		<path style="fill:none;stroke:#0000FF;stroke-width:28.8;stroke-linecap:round;stroke-linejoin:round;stroke-miterlimit:10;" d="
			M203.229,235.642c23.608,13.856,145.858,98.606,214.108,92.106c13.305-1.267,43.75-27.75,35.25-90.5"/>
		<path style="fill:none;stroke:#0000FF;stroke-width:28.8;stroke-linecap:round;stroke-linejoin:round;stroke-miterlimit:10;" d="
			M558.387,27.248c-108.55-11.484-189.183,205.329-239.55,411"/>
	</g>
</g>
</svg>
