<?xml version="1.0" encoding="iso-8859-1"?>
<!-- Generator: Adobe Illustrator 17.0.0, SVG Export Plug-In . SVG Version: 6.00 Build 0)  -->
<!DOCTYPE svg PUBLIC "-//W3C//DTD SVG 1.1//EN" "http://www.w3.org/Graphics/SVG/1.1/DTD/svg11.dtd">
<svg version="1.1" xmlns="http://www.w3.org/2000/svg" xmlns:xlink="http://www.w3.org/1999/xlink" x="0px" y="0px"
	 width="174.017px" height="375.654px" viewBox="0 0 174.017 375.654" style="enable-background:new 0 0 174.017 375.654;"
	 xml:space="preserve">
<g id="font" style="display:none;">
	<path style="display:inline;stroke:#000000;stroke-width:9;stroke-linecap:round;stroke-linejoin:round;stroke-miterlimit:10;" d="
		M104.233,191.936c0,1.26-47.762,122.22-54.637,140.279c-6.513,15.96-8.684,23.94-9.77,28.14c1.085,2.101,1.809,4.2,1.809,6.72
		c0,7.98-5.427,14.28-12.302,14.28c-5.065,0-9.77-2.939-12.302-7.979c-3.98-8.4-2.171-19.74,7.237-44.94
		c7.96-21.84,56.083-147,58.979-150.359c3.256-7.14,10.855-9.24,16.644-5.46C105.68,176.396,107.851,185.216,104.233,191.936z
		 M133.179,45.777c2.533-7.56,10.131-10.92,15.92-7.56c6.151,3.78,8.684,12.6,5.79,19.32l-8.684,20.16
		c-2.171,5.46-6.875,8.399-11.579,7.979c-1.447,0.42-2.895,0-4.342-0.84c-6.513-3.78-8.684-12.6-5.79-19.32L133.179,45.777z"/>
	<path style="display:inline;stroke:#000000;stroke-width:9;stroke-linecap:round;stroke-linejoin:round;stroke-miterlimit:10;" d="
		M508.03,467.455c0,21-2.171,38.22-6.875,52.08c-4.704,14.28-11.94,25.2-21.71,31.92c-17.368,13.02-41.61,13.44-75.623,0.84
		c-44.505-15.96-116.51-60.06-154.141-78.54c-39.439,86.52-113.977,240.659-161.377,240.659c-33.65,0-39.078-56.699-39.078-106.259
		c0-92.4,17.73-149.939,53.189-176.399c14.111-10.08,30.394-15.12,49.571-15.54c29.67-0.84,61.149,10.92,86.478,21.84
		c55.722-122.64,106.017-259.139,106.379-260.399c2.895-7.14,10.131-10.08,16.282-7.14c6.151,3.36,9.046,11.76,6.151,18.9
		c-0.362,1.26-50.657,136.5-106.017,259.559c40.164,19.32,106.378,60.479,149.798,76.439c26.414,9.66,44.505,10.08,55.36,2.1
		c11.579-7.98,17.006-28.56,17.006-60.06c0-7.979,5.79-14.28,12.303-14.28C502.602,453.175,508.03,459.475,508.03,467.455z
		 M226.886,463.255c-20.262-8.4-49.209-18.9-73.09-18.9c-33.289,0-54.999,19.32-68.024,59.22c-7.96,26.04-11.94,61.32-11.94,104.58
		c0,28.14,1.809,49.14,5.79,63c2.533,10.5,5.789,14.28,7.96,15.12c1.447,0.42,17.006,1.68,58.255-65.939
		C168.993,582.535,263.793,399.836,226.886,463.255z M411.42,78.537c-1.809,5.88-6.513,9.24-11.579,9.24
		c-1.447,0-2.895-0.42-4.342-1.26c-6.151-2.94-9.408-10.92-6.875-18.48l7.237-21c2.533-7.14,9.77-10.5,15.92-7.56
		c6.151,2.939,9.408,10.92,6.875,18.479L411.42,78.537z"/>
</g>
<g id="vectorized-fonts">
	<g>
		<path style="fill:none;stroke:#0000FF;stroke-width:28.8;stroke-linecap:round;stroke-linejoin:round;stroke-miterlimit:10;" d="
			M95.995,179.008c-23.667,59.667-49,125.667-69.205,188.219"/>
		<path style="fill:none;stroke:#0000FF;stroke-width:28.8;stroke-linecap:round;stroke-linejoin:round;stroke-miterlimit:10;" d="
			M130.214,80.213c9.446-20.871,27.839-55.465,30.495-62.367"/>
	</g>
</g>
</svg>
