<?xml version="1.0" encoding="iso-8859-1"?>
<!-- Generator: Adobe Illustrator 17.0.0, SVG Export Plug-In . SVG Version: 6.00 Build 0)  -->
<!DOCTYPE svg PUBLIC "-//W3C//DTD SVG 1.1//EN" "http://www.w3.org/Graphics/SVG/1.1/DTD/svg11.dtd">
<svg version="1.1" xmlns="http://www.w3.org/2000/svg" xmlns:xlink="http://www.w3.org/1999/xlink" x="0px" y="0px"
	 width="268.876px" height="387.145px" viewBox="0 0 268.876 387.145" style="enable-background:new 0 0 268.876 387.145;"
	 xml:space="preserve">
<g id="font" style="display:none;">
	<path style="display:inline;stroke:#000000;stroke-width:9;stroke-linecap:round;stroke-linejoin:round;stroke-miterlimit:10;" d="
		M-318.057,147.796c32.926,16.38,92.629,51.66,127.364,67.2c35.098-110.88,100.59-281.399,207.691-281.399
		c6.875,0,12.303,6.3,12.303,13.86c0,7.98-5.428,14.28-12.303,14.28c-100.589,0-161.015,187.319-184.534,262.499
		c24.604,8.4,41.61,8.82,52.104,1.26c11.217-8.4,17.006-28.56,17.006-60.48c0-7.56,5.428-13.86,12.302-13.86
		c6.875,0,12.303,6.3,12.303,13.86c0,36.12-6.513,68.04-28.585,84.419c-17.006,12.6-40.525,13.02-73.452,1.68
		c-18.091,60.48-28.584,103.74-28.584,104.58c-2.533,8.4-7.96,10.08-15.197,10.08c-6.513-2.1-10.131-10.08-8.322-17.64
		c0-0.84,10.493-44.94,29.309-106.679c-36.184-15.54-97.333-52.08-130.621-68.46c-27.5,65.939-111.806,258.299-168.976,246.959
		c-12.302-3.36-21.71-15.54-27.138-36.12c-14.835-58.379-10.493-212.519,45.953-254.099c43.419-31.92,104.931-8.4,138.581,7.56
		l55.36-134.399c2.533-7.14,9.77-10.08,15.921-7.14c6.151,3.36,9.046,11.76,6.151,18.9L-318.057,147.796z M-466.408,153.676
		c-13.025,9.66-22.433,25.2-29.67,47.88c-13.388,44.1-15.559,139.439-5.789,173.879c2.895,11.34,6.513,15.96,8.684,16.8
		c2.895,0.42,9.046-2.1,18.454-10.92c44.867-46.2,105.655-179.339,122.661-218.819C-389.7,145.276-436.376,132.256-466.408,153.676z
		"/>
	<path style="display:inline;stroke:#000000;stroke-width:9;stroke-linecap:round;stroke-linejoin:round;stroke-miterlimit:10;" d="
		M335.405,13.817c6.875,0,12.302,6.3,12.302,14.28c0,7.56-5.427,14.28-12.302,14.28l-34.736,4.2
		c-24.242,51.66-107.464,231.839-124.47,290.219l42.696-4.2c6.874,0,12.302,6.3,12.302,14.28c0,7.56-5.428,14.28-12.302,14.28
		l-103.484,12.18c-6.875,0-12.302-6.72-12.302-14.28c0-7.98,5.427-14.28,12.302-14.28l34.013-2.52
		c3.256-36.12,100.95-248.219,120.128-288.539l-33.289,6.72c-6.513,0-11.94-6.72-11.94-14.28c0-7.98,5.428-14.28,11.94-14.28
		l45.229-9.66L335.405,13.817z"/>
</g>
<g id="vectorized-fonts">
	<g>
		<path style="fill:none;stroke:#0000FF;stroke-width:28.8;stroke-linecap:round;stroke-linejoin:round;stroke-miterlimit:10;" d="
			M198.889,35.153C155.481,135.649,102.667,244.41,69.334,351.091"/>
		<path style="fill:none;stroke:#0000FF;stroke-width:28.8;stroke-linecap:round;stroke-linejoin:round;stroke-miterlimit:10;" d="
			M138.635,43.847c23.188-2.732,95.966-15.315,112.304-18.694"/>
		<path style="fill:none;stroke:#0000FF;stroke-width:28.8;stroke-linecap:round;stroke-linejoin:round;stroke-miterlimit:10;" d="
			M17.938,356.153c38.665-3.016,81.247-8.38,119.667-13.667"/>
	</g>
</g>
</svg>
