<?xml version="1.0" encoding="iso-8859-1"?>
<!-- Generator: Adobe Illustrator 17.0.0, SVG Export Plug-In . SVG Version: 6.00 Build 0)  -->
<!DOCTYPE svg PUBLIC "-//W3C//DTD SVG 1.1//EN" "http://www.w3.org/Graphics/SVG/1.1/DTD/svg11.dtd">
<svg version="1.1" xmlns="http://www.w3.org/2000/svg" xmlns:xlink="http://www.w3.org/1999/xlink" x="0px" y="0px"
	 width="469.903px" height="710.207px" viewBox="0 0 469.903 710.207" style="enable-background:new 0 0 469.903 710.207;"
	 xml:space="preserve">
<g id="font" style="display:none;">
	<path style="display:inline;stroke:#000000;stroke-width:9;stroke-linecap:round;stroke-linejoin:round;stroke-miterlimit:10;" d="
		M275.862,208.565c0,21-2.171,38.22-6.875,52.08c-4.704,14.28-11.94,25.2-21.71,31.92c-17.368,13.02-41.61,13.44-75.623,0.84
		c-44.505-15.96-116.51-60.06-154.141-78.54c-39.439,86.52-113.977,240.659-161.377,240.659c-33.65,0-39.078-56.699-39.078-106.259
		c0-92.4,17.73-149.939,53.189-176.399c14.111-10.08,30.394-15.12,49.571-15.54c29.67-0.84,61.149,10.92,86.478,21.84
		C62.02,56.526,112.315-79.974,112.676-81.234c2.895-7.14,10.131-10.08,16.282-7.14c6.151,3.36,9.046,11.76,6.151,18.9
		c-0.362,1.26-50.657,136.5-106.017,259.559c40.164,19.32,106.378,60.479,149.798,76.439c26.414,9.66,44.505,10.08,55.36,2.1
		c11.579-7.98,17.006-28.56,17.006-60.06c0-7.979,5.79-14.28,12.303-14.28C270.435,194.285,275.862,200.586,275.862,208.565z
		 M-5.281,204.365c-20.262-8.4-49.209-18.9-73.09-18.9c-33.289,0-54.999,19.32-68.024,59.22c-7.96,26.04-11.94,61.32-11.94,104.58
		c0,28.14,1.809,49.14,5.79,63c2.533,10.5,5.789,14.28,7.96,15.12c1.447,0.42,17.006,1.68,58.255-65.939
		C-63.174,323.645,31.626,140.946-5.281,204.365z M179.253-180.353c-1.809,5.88-6.513,9.24-11.579,9.24
		c-1.447,0-2.895-0.42-4.342-1.26c-6.151-2.94-9.408-10.92-6.875-18.48l7.237-21c2.533-7.14,9.77-10.5,15.92-7.56
		c6.151,2.939,9.408,10.92,6.875,18.479L179.253-180.353z"/>
	<path style="display:inline;stroke:#000000;stroke-width:9;stroke-linecap:round;stroke-linejoin:round;stroke-miterlimit:10;" d="
		M332.301,59.466c35.459-120.12,93.714-283.499,157.759-283.499c6.513,0,11.94,6.3,11.94,14.28c0,7.56-5.428,14.28-11.94,14.28
		c-12.302,0-27.137,13.02-43.42,38.22c-21.71,33.18-36.545,73.08-48.485,99.54c-3.619,7.56-5.79,12.18-6.875,14.28
		c4.704-7.56,28.947-42.42,70.919-42.42c11.941,0,20.625,2.1,27.5,6.72c7.96,5.46,12.302,14.28,12.302,24.359
		c0,9.24-3.619,18.9-10.493,28.98c-5.79,8.399-13.75,16.38-23.157,23.52c-17.006,12.6-36.545,21-55.722,23.94
		c5.065,23.1,76.708,116.339,98.78,140.279c5.065,5.46,5.427,14.28,0.724,20.16c-4.704,5.46-12.302,5.88-17.368,0.84
		c-28.223-31.08-108.549-136.08-108.549-174.299c0-7.98,5.789-14.28,12.302-14.28c30.032,0,59.34-18.48,73.09-36.54
		c4.704-6.3,5.79-10.92,6.151-12.181c-1.085-0.84-4.704-3.359-15.559-3.359c-54.998,0-90.458,77.699-107.464,128.099
		c-3.98,13.02-11.94,41.58-11.94,41.58c-1.447,5.88-4.704,11.34-13.75,11.34c-7.96,0-11.94-7.14-10.493-13.86L332.301,59.466z"/>
</g>
<g id="vectorized-fonts">
	<g>
		<path style="fill:none;stroke:#0000FF;stroke-width:28.8;stroke-linecap:round;stroke-linejoin:round;stroke-miterlimit:10;" d="
			M352.671,82.19c4.829-23.421,21.365-59.997,24.021-66.899"/>
		<g>
			<path style="fill:none;stroke:#0000FF;stroke-width:28.8;stroke-linecap:round;stroke-linejoin:round;stroke-miterlimit:10;" d="
				M315.5,174.681c-41.111,136.172-224,535.406-273,520.333c-42.533-13.083-31.854-236.976,32-266
				c49.5-22.5,114.432,11.701,127.374,21.543"/>
			<path style="fill:none;stroke:#0000FF;stroke-width:28.8;stroke-linecap:round;stroke-linejoin:round;stroke-miterlimit:10;" d="
				M201.875,450.558C280.25,494.515,459.157,623.819,455,458.015"/>
		</g>
	</g>
</g>
</svg>
