<?xml version="1.0" encoding="iso-8859-1"?>
<!-- Generator: Adobe Illustrator 17.0.0, SVG Export Plug-In . SVG Version: 6.00 Build 0)  -->
<!DOCTYPE svg PUBLIC "-//W3C//DTD SVG 1.1//EN" "http://www.w3.org/Graphics/SVG/1.1/DTD/svg11.dtd">
<svg version="1.1" xmlns="http://www.w3.org/2000/svg" xmlns:xlink="http://www.w3.org/1999/xlink" x="0px" y="0px"
	 width="702.998px" height="696.089px" viewBox="0 0 702.998 696.089" style="enable-background:new 0 0 702.998 696.089;"
	 xml:space="preserve">
<g id="font" style="display:none;">
	<path style="display:inline;stroke:#000000;stroke-width:9;stroke-linecap:round;stroke-linejoin:round;stroke-miterlimit:10;" d="
		M31.454,10.012c6.875,0,12.302,6.3,12.302,14.28c0,7.56-5.427,14.28-12.302,14.28l-34.736,4.2
		c-24.242,51.66-107.464,231.839-124.47,290.219l42.696-4.2c6.874,0,12.302,6.3,12.302,14.28c0,7.56-5.428,14.28-12.302,14.28
		l-103.484,12.18c-6.875,0-12.302-6.72-12.302-14.28c0-7.98,5.427-14.28,12.302-14.28l34.013-2.52
		C-151.272,302.33-53.578,90.231-34.4,49.911l-33.289,6.72c-6.513,0-11.94-6.72-11.94-14.28c0-7.98,5.428-14.28,11.94-14.28
		l45.229-9.66L31.454,10.012z"/>
	<path style="display:inline;stroke:#000000;stroke-width:9;stroke-linecap:round;stroke-linejoin:round;stroke-miterlimit:10;" d="
		M714.225,444.709c-47.762,55.44-117.233,78.96-207.691,67.62c-61.512-7.98-125.918-30.24-186.344-53.76
		c-45.952,74.339-134.963,213.359-203.711,213.359c-68.024,0-77.794-125.16-77.794-220.499c0-136.5,127.365-83.58,246.046-36.96
		c8.322,3.36,17.368,7.14,26.052,10.5c11.94-20.16,26.052-42.42,37.269-64.26C429.102,203.631,488.442,74.691,508.704,27.231
		c-72.005,5.04-190.323,22.26-254.006,61.74c-28.946,17.64-43.42,37.8-43.42,60.06c0,7.98-5.427,14.28-12.302,14.28
		c-6.514,0-12.303-6.3-12.303-14.28c0-33.6,19.178-62.16,56.808-85.259c80.688-49.98,244.96-65.94,284.399-65.94
		c7.237,0,12.303,7.98,12.303,14.28c0,3.78,0,6.3-13.388,36.959C515.942,73.851,428.377,267.89,377.36,360.29
		c-14.474,26.46-28.585,50.82-42.334,73.919c56.807,21.84,117.232,42.42,174.402,49.98c82.498,10.5,144.009-8.82,187.429-59.64
		c4.704-5.46,12.664-5.46,17.368,0C718.928,430.01,718.928,439.249,714.225,444.709z M295.948,448.91l-19.178-7.56
		c-116.147-45.36-213.48-92.399-213.48,10.08c0,87.36,9.408,184.799,48.485,191.939c16.283,2.94,48.124-8.4,104.208-78.54
		C240.587,534.589,267.363,495.53,295.948,448.91z"/>
	<path style="display:inline;stroke:#000000;stroke-width:9;stroke-linecap:round;stroke-linejoin:round;stroke-miterlimit:10;" d="
		M1223.315,393.89c0,35.28-9.77,64.26-28.946,86.1c-34.735,39.899-89.372,41.58-98.78,41.58h-1.085
		c-22.796,0-44.867-5.46-66.577-16.38c-19.177-9.66-37.992-23.1-57.17-42c-35.098-33.6-66.215-77.7-96.246-120.54
		c-44.506-64.259-87.563-125.159-137.858-144.479h-3.98c-15.921,32.76-29.67,63-39.802,87.359
		c-13.025,32.34-16.644,47.04-17.367,52.92c2.171,2.52,3.618,6.3,3.618,10.5c0,7.56-5.428,13.86-11.94,13.86
		c-5.789,0-10.493-2.94-13.388-7.98c-2.171-3.78-3.257-7.98-3.257-13.02c0-8.82,2.533-25.62,23.52-75.6
		c10.131-24.36,21.71-49.979,32.564-72.66c-4.703-1.26-7.599-2.52-7.96-2.94c-5.428-2.52-8.322-9.24-7.237-15.96
		c1.447-6.3,6.514-11.34,12.303-11.34s11.578,0.42,17.368,1.68c0.724-2.1,1.81-4.2,2.532-5.88
		c18.092-36.12,37.992-72.66,53.189-98.699c11.579-19.74,27.861-49.14,39.439-49.14c6.514,0,12.303,6.3,12.303,14.28
		c0,5.88-3.257,10.92-7.599,13.02c-2.171,2.52-9.77,12.18-29.67,47.88c-13.388,23.94-29.671,53.34-44.505,83.16
		c8.684-0.42,18.814-2.1,30.394-5.04c41.61-10.92,108.911-45.36,195.389-145.739c4.704-5.46,12.664-5.46,17.368,0
		c4.703,5.88,4.703,14.7,0,20.16c-65.13,75.6-139.305,136.079-208.053,153.299c-32.565-23.1,17.006,13.86,25.689,22.68
		c30.032,29.82,57.17,68.459,86.116,109.62c57.893,82.739,117.957,168.419,201.179,168.419c0.361,0,52.465,0.84,82.497-33.18
		c14.474-16.38,21.71-38.64,21.71-65.939c0-7.98,5.428-14.28,12.303-14.28C1217.888,379.61,1223.315,385.91,1223.315,393.89z"/>
</g>
<g id="vectorized-fonts">
	<g>
		<path style="fill:none;stroke:#0000FF;stroke-width:28.8;stroke-linecap:round;stroke-linejoin:round;stroke-miterlimit:10;" d="
			M166.895,156.588C168.567,40.16,436.687,19.457,499.9,15.66C377.582,346.12,181.474,655.172,87.601,664.157
			c-78.374,7.501-92.783-260.6-39.655-280.848c47.621-18.149,177.671,37.977,242.54,65.307"/>
		<path style="fill:none;stroke:#0000FF;stroke-width:28.8;stroke-linecap:round;stroke-linejoin:round;stroke-miterlimit:10;" d="
			M290.487,448.616c302.414,123.544,367.651,8.878,389.08-12.456"/>
	</g>
</g>
</svg>
