<?xml version="1.0" encoding="iso-8859-1"?>
<!-- Generator: Adobe Illustrator 17.0.0, SVG Export Plug-In . SVG Version: 6.00 Build 0)  -->
<!DOCTYPE svg PUBLIC "-//W3C//DTD SVG 1.1//EN" "http://www.w3.org/Graphics/SVG/1.1/DTD/svg11.dtd">
<svg version="1.1" xmlns="http://www.w3.org/2000/svg" xmlns:xlink="http://www.w3.org/1999/xlink" x="0px" y="0px"
	 width="219.022px" height="435.092px" viewBox="0 0 219.022 435.092" style="enable-background:new 0 0 219.022 435.092;"
	 xml:space="preserve">
<g id="font" style="display:none;">
	<path style="display:inline;stroke:#000000;stroke-width:9;stroke-linecap:round;stroke-linejoin:round;stroke-miterlimit:10;" d="
		M-68.595,579.382c35.459-120.12,93.714-283.499,157.759-283.499c6.513,0,11.94,6.3,11.94,14.28c0,7.56-5.428,14.28-11.94,14.28
		c-12.302,0-27.137,13.02-43.42,38.22c-21.71,33.18-36.545,73.08-48.485,99.54c-3.619,7.56-5.79,12.18-6.875,14.28
		c4.704-7.56,28.947-42.42,70.919-42.42c11.941,0,20.625,2.1,27.5,6.72c7.96,5.46,12.302,14.28,12.302,24.359
		c0,9.24-3.619,18.9-10.493,28.98c-5.79,8.399-13.75,16.38-23.157,23.52c-17.006,12.6-36.545,21-55.722,23.94
		c5.065,23.1,76.708,116.339,98.78,140.279c5.065,5.46,5.427,14.28,0.724,20.16c-4.704,5.46-12.302,5.88-17.368,0.84
		c-28.223-31.08-108.549-136.08-108.549-174.299c0-7.98,5.789-14.28,12.302-14.28c30.032,0,59.34-18.48,73.09-36.54
		c4.704-6.3,5.79-10.92,6.151-12.181c-1.085-0.84-4.704-3.359-15.559-3.359c-54.998,0-90.458,77.699-107.464,128.099
		c-3.98,13.02-11.94,41.58-11.94,41.58c-1.447,5.88-4.704,11.34-13.75,11.34c-7.96,0-11.94-7.14-10.493-13.86L-68.595,579.382z"/>
</g>
<g id="vectorized-fonts">
	<g>
		<path style="fill:none;stroke:#0000FF;stroke-width:28.8;stroke-linecap:round;stroke-linejoin:round;stroke-miterlimit:10;" d="
			M163.561,20.75C147.351,46.235,58.918,176.235,19.684,358.735"/>
		<path style="fill:none;stroke:#0000FF;stroke-width:28.8;stroke-linecap:round;stroke-linejoin:round;stroke-miterlimit:10;" d="
			M56.582,234.324c17.015-19.668,82.602-86.59,118.102-62.59c8.109,5.482,1.793,30.766-3.5,39c-33.75,52.5-105,42.75-119.552,34.25"
			/>
		<path style="fill:none;stroke:#0000FF;stroke-width:28.8;stroke-linecap:round;stroke-linejoin:round;stroke-miterlimit:10;" d="
			M84.684,252.735c17.25,42.5,90.21,148.547,113.253,166.328"/>
	</g>
</g>
</svg>
