<?xml version="1.0" encoding="iso-8859-1"?>
<!-- Generator: Adobe Illustrator 17.0.0, SVG Export Plug-In . SVG Version: 6.00 Build 0)  -->
<!DOCTYPE svg PUBLIC "-//W3C//DTD SVG 1.1//EN" "http://www.w3.org/Graphics/SVG/1.1/DTD/svg11.dtd">
<svg version="1.1" xmlns="http://www.w3.org/2000/svg" xmlns:xlink="http://www.w3.org/1999/xlink" x="0px" y="0px"
	 width="589.057px" height="544.083px" viewBox="0 0 589.057 544.083" style="enable-background:new 0 0 589.057 544.083;"
	 xml:space="preserve">
<g id="font" style="display:none;">
	<path style="display:inline;stroke:#000000;stroke-width:9;stroke-linecap:round;stroke-linejoin:round;stroke-miterlimit:10;" d="
		M484.313,378.23c0,35.28-9.77,64.26-28.946,86.1c-34.735,39.899-89.372,41.58-98.78,41.58h-1.085
		c-22.796,0-44.867-5.46-66.577-16.38c-19.177-9.66-37.992-23.1-57.17-42c-35.098-33.6-66.215-77.7-96.246-120.54
		C91.002,262.731,47.945,201.831-2.35,182.511h-3.98c-15.921,32.76-29.67,63-39.802,87.359c-13.025,32.34-16.644,47.04-17.367,52.92
		c2.171,2.52,3.618,6.3,3.618,10.5c0,7.56-5.428,13.86-11.94,13.86c-5.789,0-10.493-2.94-13.388-7.98
		c-2.171-3.78-3.257-7.98-3.257-13.02c0-8.82,2.533-25.62,23.52-75.6c10.131-24.36,21.71-49.979,32.564-72.66
		c-4.703-1.26-7.599-2.52-7.96-2.94c-5.428-2.52-8.322-9.24-7.237-15.96c1.447-6.3,6.514-11.34,12.303-11.34
		s11.578,0.42,17.368,1.68c0.724-2.1,1.81-4.2,2.532-5.88c18.092-36.12,37.992-72.66,53.189-98.699
		c11.579-19.74,27.861-49.14,39.439-49.14c6.514,0,12.303,6.3,12.303,14.28c0,5.88-3.257,10.92-7.599,13.02
		c-2.171,2.52-9.77,12.18-29.67,47.88c-13.388,23.94-29.671,53.34-44.505,83.16c8.684-0.42,18.814-2.1,30.394-5.04
		c41.61-10.92,108.911-45.36,195.389-145.739c4.704-5.46,12.664-5.46,17.368,0c4.703,5.88,4.703,14.7,0,20.16
		c-65.13,75.6-139.305,136.079-208.053,153.299c-32.565-23.1,17.006,13.86,25.689,22.68c30.032,29.82,57.17,68.459,86.116,109.62
		c57.893,82.739,117.957,168.419,201.179,168.419c0.361,0,52.465,0.84,82.497-33.18c14.474-16.38,21.71-38.64,21.71-65.939
		c0-7.98,5.428-14.28,12.303-14.28C478.886,363.95,484.313,370.25,484.313,378.23z"/>
	<path style="display:inline;stroke:#000000;stroke-width:9;stroke-linecap:round;stroke-linejoin:round;stroke-miterlimit:10;" d="
		M826.242,434.089c-30.032,34.86-63.32,39.48-82.136,39.48c-24.967,0-52.827-8.4-84.307-25.2
		c-54.274-28.56-111.444-78.54-162.824-125.16c-32.203,44.94-87.563,118.02-132.792,118.02c-20.986,0-40.163-14.7-51.38-52.5
		c-18.815-65.94-23.52-176.819,15.92-198.659c38.354-23.1,104.208,40.74,164.271,93.659
		C584.176,158.991,615.656-3.969,701.048-3.969c31.841,0,56.808,36.12,48.124,82.74c-1.448,7.56-7.961,12.6-14.836,10.92
		c-6.513-2.1-10.493-9.66-9.045-17.22c5.789-28.56-7.6-48.72-23.882-48.72c-65.491,0-125.556,200.759-189.237,277.619
		c50.294,45.36,106.017,94.08,157.758,121.379c28.224,15.12,52.828,22.68,74.176,22.68c25.328,0,46.677-10.5,64.768-31.5
		c5.066-5.46,12.664-5.46,17.368,0S830.946,428.21,826.242,434.089z M339.216,215.271c-23.519,14.28-14.111,128.52-3.257,164.219
		c10.132,35.7,26.053,39.9,51.019,25.62c29.309-18.48,62.959-59.64,90.82-99.12C424.246,258.11,365.992,204.771,339.216,215.271z"/>
</g>
<g id="vectorized-fonts">
	<g>
		<path style="fill:none;stroke:#0000FF;stroke-width:28.8;stroke-linecap:round;stroke-linejoin:round;stroke-miterlimit:10;" d="
			M174.952,25.014C162.535,36.334,21.545,291.334,21.545,359.86"/>
		<path style="fill:none;stroke:#0000FF;stroke-width:28.8;stroke-linecap:round;stroke-linejoin:round;stroke-miterlimit:10;" d="
			M343.868,29.863C329.088,55.619,201.1,201.991,84.785,187.838"/>
		<path style="fill:none;stroke:#0000FF;stroke-width:28.8;stroke-linecap:round;stroke-linejoin:round;stroke-miterlimit:10;" d="
			M84.93,187.491c56.524,16.425,104.543,77.006,137.219,120.019c36.498,48.045,68.934,99.403,109.991,143.615
			c28.114,30.275,62.229,57.981,102.971,64.844c29.182,4.916,60.154-1.735,84.745-18.199
			c36.114-24.179,50.826-61.339,49.679-103.436"/>
		<path style="fill:none;stroke:#0000FF;stroke-width:28.8;stroke-linecap:round;stroke-linejoin:round;stroke-miterlimit:10;" d="
			M85.785,186.837c-8.048-1.102-15.762-3.786-22.573-5.542"/>
	</g>
</g>
</svg>
