<?xml version="1.0" encoding="iso-8859-1"?>
<!-- Generator: Adobe Illustrator 17.0.0, SVG Export Plug-In . SVG Version: 6.00 Build 0)  -->
<!DOCTYPE svg PUBLIC "-//W3C//DTD SVG 1.1//EN" "http://www.w3.org/Graphics/SVG/1.1/DTD/svg11.dtd">
<svg version="1.1" xmlns="http://www.w3.org/2000/svg" xmlns:xlink="http://www.w3.org/1999/xlink" x="0px" y="0px"
	 width="180.018px" height="348.76px" viewBox="0 0 180.018 348.76" style="enable-background:new 0 0 180.018 348.76;"
	 xml:space="preserve">
<g id="font" style="display:none;">
	<path style="display:inline;stroke:#000000;stroke-width:9;stroke-linecap:round;stroke-linejoin:round;stroke-miterlimit:10;" d="
		M137.573-204.756c0,0.84-32.926,68.879-65.129,140.7C48.201-10.717,13.104,69.923,8.038,95.122c0.724,2.101,1.447,4.2,1.447,6.72
		c0,7.98-5.789,14.28-12.302,14.28c-5.065,0-9.407-2.939-11.94-7.979c-3.98-7.561-2.171-16.8,1.81-30.66
		c8.684-28.979,35.098-90.3,60.064-146.579c33.65-74.76,69.11-148.68,69.11-149.52c3.618-6.72,10.854-9.24,16.644-5.46
		C139.021-220.296,141.192-211.476,137.573-204.756z"/>
</g>
<g id="vectorized-fonts">
	<path style="fill:none;stroke:#0000FF;stroke-width:28.8;stroke-linecap:round;stroke-linejoin:round;stroke-miterlimit:10;" d="
		M158.208,19.88C136.284,63.432,42.817,274.659,17.753,336.653"/>
</g>
</svg>
