<?xml version="1.0" encoding="iso-8859-1"?>
<!-- Generator: Adobe Illustrator 17.0.0, SVG Export Plug-In . SVG Version: 6.00 Build 0)  -->
<!DOCTYPE svg PUBLIC "-//W3C//DTD SVG 1.1//EN" "http://www.w3.org/Graphics/SVG/1.1/DTD/svg11.dtd">
<svg version="1.1" xmlns="http://www.w3.org/2000/svg" xmlns:xlink="http://www.w3.org/1999/xlink" x="0px" y="0px"
	 width="540.054px" height="517.553px" viewBox="0 0 540.054 517.553" style="enable-background:new 0 0 540.054 517.553;"
	 xml:space="preserve">
<g id="font" style="display:none;">
	<path style="display:inline;stroke:#000000;stroke-width:9;stroke-linecap:round;stroke-linejoin:round;stroke-miterlimit:10;" d="
		M196.179,434.089c-30.032,34.86-63.32,39.48-82.136,39.48c-24.967,0-52.827-8.4-84.307-25.2
		c-54.274-28.56-111.444-78.54-162.824-125.16c-32.203,44.94-87.563,118.02-132.792,118.02c-20.986,0-40.163-14.7-51.38-52.5
		c-18.815-65.94-23.52-176.819,15.92-198.659c38.354-23.1,104.208,40.74,164.271,93.659C-45.887,158.991-14.407-3.969,70.985-3.969
		c31.841,0,56.808,36.12,48.124,82.74c-1.448,7.56-7.961,12.6-14.836,10.92c-6.513-2.1-10.493-9.66-9.045-17.22
		c5.789-28.56-7.6-48.72-23.882-48.72c-65.491,0-125.556,200.759-189.237,277.619c50.294,45.36,106.017,94.08,157.758,121.379
		c28.224,15.12,52.828,22.68,74.176,22.68c25.328,0,46.677-10.5,64.768-31.5c5.066-5.46,12.664-5.46,17.368,0
		S200.883,428.21,196.179,434.089z M-290.847,215.271c-23.519,14.28-14.111,128.52-3.257,164.219
		c10.132,35.7,26.053,39.9,51.019,25.62c29.309-18.48,62.959-59.64,90.82-99.12C-205.817,258.11-264.071,204.771-290.847,215.271z"
		/>
	<path style="display:inline;stroke:#000000;stroke-width:9;stroke-linecap:round;stroke-linejoin:round;stroke-miterlimit:10;" d="
		M844.574,9.051c0,6.72-4.342,12.6-10.132,13.86C792.832,49.371,691.519,229.55,689.71,294.65c0,10.92,1.085,24.78,23.157,24.78
		c6.875,0,12.303,6.3,12.303,13.86c0,7.98-5.428,14.28-12.303,14.28c-15.559,0-27.5-5.04-35.821-14.28
		c-7.599-9.24-11.579-21.84-11.579-37.8c0-68.04,74.899-191.519,92.629-217.559c-43.42,47.88-163.909,215.459-184.534,263.339
		c-2.171,3.78-6.151,5.88-10.131,5.88c-9.77,0-16.282-10.08-16.282-21c0-46.62,92.99-223.019,110.358-254.939
		c-37.992,45.36-102.761,138.18-168.613,198.239c-56.808,52.08-108.55,77.7-158.482,77.7c-65.13,0-129.174-39.06-129.174-127.68
		c0-7.979,5.427-14.28,12.302-14.28s12.303,6.3,12.303,14.28c0,69.3,49.209,99.12,104.207,99.12c44.506,0,91.544-23.1,143.647-71.4
		c90.819-84,186.343-251.999,238.447-251.999c6.513,0,11.94,6.3,11.94,14.28c0,5.88-2.895,10.92-7.236,13.02
		c-19.539,22.68-96.609,170.939-125.194,240.659C652.079,171.591,770.76-5.228,832.271-5.228
		C839.146-5.228,844.574,1.071,844.574,9.051z"/>
</g>
<g id="vectorized-fonts">
	<g>
		<path style="fill:none;stroke:#0000FF;stroke-width:28.8;stroke-linecap:round;stroke-linejoin:round;stroke-miterlimit:10;" d="
			M437.711,112.218c3.807-20.484,7.684-43.779-7.045-61.071c-8.862-10.404-23.447-16.048-36.77-12.998
			c-10.93,2.502-19.894,10.186-27.665,18.268c-49.394,51.375-76.885,120.529-110.852,182.1
			c-34.564,62.652-73.397,123.569-122.552,175.895c-13.29,14.148-27.511,27.789-44.487,37.204
			c-7.17,3.977-15.046,7.219-23.245,7.161c-38.693-0.276-48.109-62.308-52.33-90.631c-3.536-23.73-3.935-47.929-1.153-71.761
			c2.879-24.664,4.996-66.273,38.525-66.536c10.124-0.079,19.888,3.749,28.831,8.496c46.168,24.506,77.845,63.483,119.052,94.039"/>
		<path style="fill:none;stroke:#0000FF;stroke-width:28.8;stroke-linecap:round;stroke-linejoin:round;stroke-miterlimit:10;" d="
			M198.02,332.385c54.524,43.621,231.857,241.667,328.01,114.777"/>
	</g>
</g>
</svg>
