<?xml version="1.0" encoding="iso-8859-1"?>
<!-- Generator: Adobe Illustrator 17.0.0, SVG Export Plug-In . SVG Version: 6.00 Build 0)  -->
<!DOCTYPE svg PUBLIC "-//W3C//DTD SVG 1.1//EN" "http://www.w3.org/Graphics/SVG/1.1/DTD/svg11.dtd">
<svg version="1.1" xmlns="http://www.w3.org/2000/svg" xmlns:xlink="http://www.w3.org/1999/xlink" x="0px" y="0px"
	 width="342.034px" height="226.488px" viewBox="0 0 342.034 226.488" style="enable-background:new 0 0 342.034 226.488;"
	 xml:space="preserve">
<g id="font" style="display:none;">
	<path style="display:inline;stroke:#000000;stroke-width:9;stroke-linecap:round;stroke-linejoin:round;stroke-miterlimit:10;" d="
		M296.027,164.664c-4.342,13.44-4.704,19.32-4.342,21.42h1.447c6.875,0,12.302,6.3,12.302,14.28c0,7.979-5.428,14.28-12.302,14.28
		c-12.664,0-19.177-6.72-22.434-12.6c-6.875-13.02-2.533-30.66,1.447-44.52c7.96-26.04,31.117-75.18,39.078-100.8
		c5.427-18.06,3.618-23.52,3.256-23.94c0,0-1.447-0.84-5.065-0.84c-8.322,0-34.012,8.4-89.734,86.1
		c-31.841,44.52-57.169,89.879-57.531,90.299c-2.171,4.2-6.151,6.3-10.131,6.3c-9.408,0-13.75-10.92-13.026-17.22
		c0.724-18.899,12.303-46.62,25.69-78.54c8.322-20.16,17.006-41.16,22.071-58.379c6.513-21.84,4.342-27.3,3.98-27.72
		c-0.362-0.42-1.447-0.84-4.342-0.84c-8.322,0-34.013,8.4-89.734,86.1c-31.841,44.52-57.169,89.879-57.531,90.299
		c-2.171,4.2-6.151,6.3-10.131,6.3H26.1c-5.065,0-9.407-2.94-11.94-7.98c-4.342-8.4-2.533-19.74,6.875-44.94
		c5.789-14.7,13.75-34.44,24.243-57.54c18.092-39.9,43.782-93.24,43.782-93.66c3.618-6.72,10.855-8.82,16.645-5.04
		c5.789,3.78,7.96,12.6,4.704,19.32c-0.362,0.42-23.881,49.14-40.525,86.1l-0.362,1.26c16.283-23.939,37.631-52.919,61.512-76.859
		c21.71-21.42,39.801-31.92,55.36-31.92c28.584,0,34.735,28.98,23.157,67.62c-3.257,10.92-7.599,22.26-12.303,34.439l3.619-5.46
		c19.539-27.3,37.269-48.72,53.189-64.68c21.71-21.42,39.802-31.92,55.36-31.92c44.867,0,30.394,54.18,3.98,117.18
		C306.52,136.524,300.369,151.644,296.027,164.664z"/>
</g>
<g id="vectorized-fonts">
	<g>
		<path style="fill:none;stroke:#0000FF;stroke-width:28.8;stroke-linecap:round;stroke-linejoin:round;stroke-miterlimit:10;" d="
			M94.036,15.277c-22.359,65.542-52.362,128.198-74,192.569"/>
		<path style="fill:none;stroke:#0000FF;stroke-width:28.8;stroke-linecap:round;stroke-linejoin:round;stroke-miterlimit:10;" d="
			M38.003,158.745C57.036,131.354,157.37,10.277,187.723,17.825c21.329,5.304-34.937,158.507-42.853,190.021"/>
		<path style="fill:none;stroke:#0000FF;stroke-width:28.8;stroke-linecap:round;stroke-linejoin:round;stroke-miterlimit:10;" d="
			M144.87,207.846c1.905-4.107,117.167-198.564,170.089-189.041c33.051,5.947-34.472,151.384-43.813,178.732"/>
	</g>
</g>
</svg>
