<?xml version="1.0" encoding="iso-8859-1"?>
<!-- Generator: Adobe Illustrator 17.0.0, SVG Export Plug-In . SVG Version: 6.00 Build 0)  -->
<!DOCTYPE svg PUBLIC "-//W3C//DTD SVG 1.1//EN" "http://www.w3.org/Graphics/SVG/1.1/DTD/svg11.dtd">
<svg version="1.1" xmlns="http://www.w3.org/2000/svg" xmlns:xlink="http://www.w3.org/1999/xlink" x="0px" y="0px"
	 width="660.066px" height="380.804px" viewBox="0 0 660.066 380.804" style="enable-background:new 0 0 660.066 380.804;"
	 xml:space="preserve">
<g id="font" style="display:none;">
	<path style="display:inline;stroke:#000000;stroke-width:9;stroke-linecap:round;stroke-linejoin:round;stroke-miterlimit:10;" d="
		M265.516,8.427c0,6.72-4.342,12.6-10.132,13.86c-41.61,26.46-142.923,206.639-144.732,271.739c0,10.92,1.085,24.78,23.157,24.78
		c6.875,0,12.303,6.3,12.303,13.86c0,7.98-5.428,14.28-12.303,14.28c-15.559,0-27.5-5.04-35.821-14.28
		c-7.599-9.24-11.579-21.84-11.579-37.8c0-68.04,74.899-191.519,92.629-217.559c-43.42,47.88-163.909,215.459-184.534,263.339
		c-2.171,3.78-6.151,5.88-10.131,5.88c-9.77,0-16.282-10.08-16.282-21c0-46.62,92.99-223.019,110.358-254.939
		c-37.992,45.36-102.761,138.18-168.613,198.239c-56.808,52.08-108.55,77.7-158.482,77.7c-65.13,0-129.174-39.06-129.174-127.68
		c0-7.979,5.427-14.28,12.302-14.28s12.303,6.3,12.303,14.28c0,69.3,49.209,99.12,104.207,99.12c44.506,0,91.544-23.1,143.647-71.4
		c90.819-84,186.343-251.999,238.447-251.999c6.513,0,11.94,6.3,11.94,14.28c0,5.88-2.895,10.92-7.236,13.02
		C118.251,44.547,41.18,192.806,12.595,262.526C73.021,170.966,191.702-5.853,253.213-5.853
		C260.088-5.853,265.516,0.447,265.516,8.427z"/>
</g>
<g id="vectorized-fonts">
	<g>
		<path style="fill:none;stroke:#0000FF;stroke-width:28.8;stroke-linecap:round;stroke-linejoin:round;stroke-miterlimit:10;" d="
			M18.139,236.662c3.824,38.039,15.721,79.785,48.855,102.647c24.884,17.17,57.506,19.633,87.215,14.027
			c91.949-17.351,162.133-98.931,218.143-168.071c28.882-35.652,55.668-72.966,84.732-108.465
			c14.022-17.127,35.123-48.97,59.348-52.411"/>
		<path style="fill:none;stroke:#0000FF;stroke-width:28.8;stroke-linecap:round;stroke-linejoin:round;stroke-miterlimit:10;" d="
			M516.431,24.389c-60.408,100.273-126.408,221.606-147.107,331.583"/>
		<path style="fill:none;stroke:#0000FF;stroke-width:28.8;stroke-linecap:round;stroke-linejoin:round;stroke-miterlimit:10;" d="
			M369.324,355.972c16.033-43.31,211.366-331.793,274.699-331.583"/>
		<path style="fill:none;stroke:#0000FF;stroke-width:28.8;stroke-linecap:round;stroke-linejoin:round;stroke-miterlimit:10;" d="
			M644.023,24.389c-37.968,23.139-65.669,74.302-87.951,110.999c-31.189,51.366-66.893,112.996-69.781,174.345
			c-1.132,24.038,9.246,44.689,35.065,46.238"/>
	</g>
</g>
</svg>
