<?xml version="1.0" encoding="iso-8859-1"?>
<!-- Generator: Adobe Illustrator 17.0.0, SVG Export Plug-In . SVG Version: 6.00 Build 0)  -->
<!DOCTYPE svg PUBLIC "-//W3C//DTD SVG 1.1//EN" "http://www.w3.org/Graphics/SVG/1.1/DTD/svg11.dtd">
<svg version="1.1" xmlns="http://www.w3.org/2000/svg" xmlns:xlink="http://www.w3.org/1999/xlink" x="0px" y="0px"
	 width="216.022px" height="236.003px" viewBox="0 0 216.022 236.003" style="enable-background:new 0 0 216.022 236.003;"
	 xml:space="preserve">
<g id="font" style="display:none;">
	<path style="display:inline;stroke:#000000;stroke-width:9;stroke-linecap:round;stroke-linejoin:round;stroke-miterlimit:10;" d="
		M164.292,194.759c6.875,0,13.75,4.62,13.75,14.28c0,7.98-5.428,14.28-11.941,14.28c-13.025,0-19.177-6.72-22.434-12.6
		c-11.578-22.26,9.408-68.04,20.625-94.08c7.599-17.64,15.197-36.12,19.9-51.24c1.81-6.3,9.408-24.78-1.809-24.78
		c-8.685,0-33.65,8.4-89.734,86.1c-54.998,76.44-58.617,96.6-74.176,96.6c-12.302,0-16.282-13.02-1.447-52.919
		c7.961-21.42,61.512-144.06,69.11-157.08c3.256-6.72,10.854-8.82,16.644-5.04c5.789,3.78,7.961,12.6,4.342,19.32l-51.38,114.239
		c2.895-4.2,15.197-28.979,18.092-33.18c19.177-27.3,37.269-48.72,52.827-64.68c21.71-21.42,40.164-31.08,55.723-31.08
		c44.505,0,30.756,52.08,3.979,116.34C176.956,150.66,164.292,181.319,164.292,194.759z"/>
</g>
<g id="vectorized-fonts">
	<path style="fill:none;stroke:#0000FF;stroke-width:28.8;stroke-linecap:round;stroke-linejoin:round;stroke-miterlimit:10;" d="
		M92.662,16.9c-22.359,65.542-52.362,128.198-74,192.569"/>
	<path style="fill:none;stroke:#0000FF;stroke-width:28.8;stroke-linecap:round;stroke-linejoin:round;stroke-miterlimit:10;" d="
		M21.662,211.464C23.567,207.357,138.829,12.9,191.751,22.423c33.051,5.947-34.472,151.384-43.813,178.732"/>
</g>
</svg>
