<?xml version="1.0" encoding="iso-8859-1"?>
<!-- Generator: Adobe Illustrator 17.0.0, SVG Export Plug-In . SVG Version: 6.00 Build 0)  -->
<!DOCTYPE svg PUBLIC "-//W3C//DTD SVG 1.1//EN" "http://www.w3.org/Graphics/SVG/1.1/DTD/svg11.dtd">
<svg version="1.1" xmlns="http://www.w3.org/2000/svg" xmlns:xlink="http://www.w3.org/1999/xlink" x="0px" y="0px"
	 width="936.094px" height="465.047px" viewBox="0 0 936.094 465.047" style="enable-background:new 0 0 936.094 465.047;"
	 xml:space="preserve">
<g id="font" style="display:none;">
	<path style="display:inline;stroke:#000000;stroke-width:9;stroke-linecap:round;stroke-linejoin:round;stroke-miterlimit:10;" d="
		M1184.992-19.821c0,7.98-5.427,14.28-11.94,14.28c-184.534,0-319.497,110.459-400.186,202.859
		C726.912,250.238,692.901,302.738,673,337.598c-22.072,37.8-32.927,63-32.927,63c-2.171,5.04-6.513,7.98-10.855,7.98
		c-5.789,0-10.493-2.94-13.388-8.4c-2.171-3.359-3.256-7.56-3.256-13.02c0-8.4,2.533-25.62,23.519-75.18
		c23.881-57.54,63.32-135.659,86.839-178.079c-12.302,14.7-26.052,31.92-40.525,51.239c-37.631,48.3-80.327,102.9-128.088,147
		c-56.446,52.08-108.55,77.279-158.482,77.279c-65.491,0-129.174-38.22-129.174-127.259c0-7.98,5.427-14.28,12.302-14.28
		s12.302,6.3,12.302,14.28c0,69.299,49.209,99.12,104.208,99.12h0.362c44.144,0,91.182-23.52,143.286-71.4
		c74.175-68.459,136.048-165.059,185.619-217.979c22.072-23.52,38.354-34.02,52.828-34.02c6.513,0,11.94,6.3,11.94,14.279
		c0,5.88-2.895,10.92-7.237,13.021c-2.171,2.1-9.77,12.18-29.67,47.459c-15.921,28.14-34.012,62.58-51.38,97.44
		c-9.408,19.319-18.092,37.38-25.69,54.6c20.263-31.92,47.038-69.72,79.965-107.52c53.551-60.9,111.806-109.62,172.956-144.899
		c77.07-43.68,159.206-65.94,244.598-65.94C1179.564-33.68,1184.992-27.38,1184.992-19.821z"/>
</g>
<g id="vectorized-fonts">
	<g>
		<path style="fill:none;stroke:#0000FF;stroke-width:28.8;stroke-linecap:round;stroke-linejoin:round;stroke-miterlimit:10;" d="
			M15.684,320.385c-3.587,42,22.694,127.602,123.413,119.5c161-12.952,304-308.5,380.25-332"/>
		<path style="fill:none;stroke:#0000FF;stroke-width:28.8;stroke-linecap:round;stroke-linejoin:round;stroke-miterlimit:10;" d="
			M519.347,107.885c-57.75,74.5-126.876,227.84-155.25,335.167"/>
		<path style="fill:none;stroke:#0000FF;stroke-width:28.8;stroke-linecap:round;stroke-linejoin:round;stroke-miterlimit:10;" d="
			M364.097,443.051c26.479-82.754,259-441.667,551-420.667"/>
	</g>
</g>
<g id="KEY" style="display:none;">
</g>
</svg>
