<?xml version="1.0" encoding="iso-8859-1"?>
<!-- Generator: Adobe Illustrator 17.0.0, SVG Export Plug-In . SVG Version: 6.00 Build 0)  -->
<!DOCTYPE svg PUBLIC "-//W3C//DTD SVG 1.1//EN" "http://www.w3.org/Graphics/SVG/1.1/DTD/svg11.dtd">
<svg version="1.1" xmlns="http://www.w3.org/2000/svg" xmlns:xlink="http://www.w3.org/1999/xlink" x="0px" y="0px"
	 width="388.303px" height="318.141px" viewBox="0 0 388.303 318.141" style="enable-background:new 0 0 388.303 318.141;"
	 xml:space="preserve">
<g id="font" style="display:none;">
	<path style="display:inline;stroke:#000000;stroke-width:9;stroke-linecap:round;stroke-linejoin:round;stroke-miterlimit:10;" d="
		M493.207-15.314c0,55.439-34.374,106.259-75.984,141.959c-44.505,37.38-101.313,61.32-155.226,63l-0.362,0.42
		c-21.348,43.26-54.998,81.899-92.629,81.899c-34.012,0-50.294-31.08-50.294-68.04c0-69.3,48.123-143.219,109.996-143.219
		c32.927,0,50.656,24.78,50.656,58.8c0,13.439-2.532,28.14-7.598,43.26c86.478-7.14,199.007-86.939,199.007-178.079
		c0-7.141,5.065-13.021,11.217-13.021S493.207-22.455,493.207-15.314z M233.774,188.384c-6.875-0.84-13.026-1.68-18.815-3.36
		c-33.65-7.98-50.295-25.2-56.446-42c-19.177,38.64-24.966,100.38,10.493,100.38C196.505,243.404,222.919,209.384,233.774,188.384z
		 M183.117,135.885c10.493,18.06,40.163,23.939,63.321,25.2c11.578-31.5,15.559-71.82-17.73-71.82
		c-19.177,0-35.459,9.24-48.847,22.68C179.499,112.785,176.243,124.545,183.117,135.885z"/>
</g>
<g id="vectorized-fonts">
	<g>
		<path style="fill:none;stroke:#0000FF;stroke-width:28.8;stroke-linecap:round;stroke-linejoin:round;stroke-miterlimit:10;" d="
			M42.997,159.95c-29.669,48.852-33.686,120.381,3,135.826c58.586,24.665,161.823-145.37,92.755-176.159
			c-41.288-18.405-87.431,27.458-94.093,38.151"/>
		<path style="fill:none;stroke:#0000FF;stroke-width:28.8;stroke-linecap:round;stroke-linejoin:round;stroke-miterlimit:10;" d="
			M45.46,159.617c56.151,91.628,174.931,61.278,253.083-1.57c52.034-41.844,84.387-100.322,74.356-138.661"/>
	</g>
</g>
</svg>
