<?xml version="1.0" encoding="iso-8859-1"?>
<!-- Generator: Adobe Illustrator 17.0.0, SVG Export Plug-In . SVG Version: 6.00 Build 0)  -->
<!DOCTYPE svg PUBLIC "-//W3C//DTD SVG 1.1//EN" "http://www.w3.org/Graphics/SVG/1.1/DTD/svg11.dtd">
<svg version="1.1" xmlns="http://www.w3.org/2000/svg" xmlns:xlink="http://www.w3.org/1999/xlink" x="0px" y="0px"
	 width="345.428px" height="393.039px" viewBox="0 0 345.428 393.039" style="enable-background:new 0 0 345.428 393.039;"
	 xml:space="preserve">
<g id="font" style="display:none;">
	<path style="display:inline;stroke:#000000;stroke-width:9;stroke-linecap:round;stroke-linejoin:round;stroke-miterlimit:10;" d="
		M179.891-142.833c0,7.98-5.427,14.28-11.94,14.28c-184.534,0-319.497,110.459-400.186,202.859
		c-45.953,52.919-79.965,105.419-99.866,140.279c-22.072,37.8-32.927,62.999-32.927,62.999c-2.171,5.04-6.513,7.98-10.855,7.98
		c-5.789,0-10.493-2.94-13.388-8.4c-2.171-3.359-3.256-7.56-3.256-13.02c0-8.4,2.533-25.62,23.519-75.18
		c23.881-57.54,63.32-135.659,86.839-178.079c-12.302,14.7-26.052,31.92-40.525,51.239c-37.631,48.3-80.327,102.9-128.088,147
		c-56.446,52.08-108.55,77.279-158.482,77.279c-65.491,0-129.174-38.22-129.174-127.259c0-7.98,5.427-14.28,12.302-14.28
		s12.302,6.3,12.302,14.28c0,69.299,49.209,99.12,104.208,99.12h0.362c44.144,0,91.182-23.52,143.286-71.4
		c74.175-68.459,136.048-165.059,185.619-217.979c22.072-23.52,38.354-34.02,52.828-34.02c6.513,0,11.94,6.3,11.94,14.279
		c0,5.88-2.895,10.92-7.237,13.021c-2.171,2.1-9.77,12.18-29.67,47.459c-15.921,28.14-34.012,62.58-51.38,97.44
		c-9.408,19.319-18.092,37.38-25.69,54.6c20.263-31.92,47.038-69.72,79.965-107.52c53.551-60.9,111.806-109.62,172.956-144.899
		c77.07-43.68,159.206-65.94,244.598-65.94C174.464-156.693,179.891-150.393,179.891-142.833z"/>
	<path style="display:inline;stroke:#000000;stroke-width:9;stroke-linecap:round;stroke-linejoin:round;stroke-miterlimit:10;" d="
		M43.472,304.465c-70.557,0-107.102-44.52-107.102-118.439c0-44.1,13.75-94.08,26.775-117.18c3.256-5.88,7.96-8.4,13.388-8.4
		c6.513,0,12.664,6.3,12.664,15.54c0,5.04-2.171,8.4-5.789,11.76c-2.895,6.3-11.579,28.56-17.006,55.86
		c-13.75,76.44,4.704,130.2,77.07,130.2c73.09,0,167.89-111.72,190.685-191.52c23.52-79.8-3.618-136.919-71.643-136.919
		c-77.794,0-120.128,79.38-132.068,143.219c0,3.36-0.724,6.72-2.533,8.4c-5.065,6.72-13.388,7.56-18.815,1.68
		c-1.809-1.68-5.79-5.04-5.066-13.86l1.81-8.82C25.38-11.373,80.378-85.293,162.514-85.293c94.438,0,123.385,89.459,96.971,178.079
		C232.709,185.186,128.14,304.465,43.472,304.465z"/>
</g>
<g id="vectorized-fonts">
	<path style="fill:none;stroke:#0000FF;stroke-width:28.8;stroke-linecap:round;stroke-linejoin:round;stroke-miterlimit:10;" d="
		M90.402,177.12c2.722-52.269,43.401-119.546,88.537-145.441c31.497-18.07,72.073-21.646,104.36-5.029
		c62.352,32.092,54.462,115.934,33.13,171.221c-25.77,66.788-75.831,123.899-138.668,158.196
		c-29.175,15.924-63.997,27.115-95.418,16.275c-37.498-12.937-58.96-54.522-60.61-94.155
		c-1.606-38.575,10.237-84.041,28.335-118.067"/>
</g>
<g id="KEY" style="display:none;">
</g>
</svg>
