<?xml version="1.0" encoding="iso-8859-1"?>
<!-- Generator: Adobe Illustrator 17.0.0, SVG Export Plug-In . SVG Version: 6.00 Build 0)  -->
<!DOCTYPE svg PUBLIC "-//W3C//DTD SVG 1.1//EN" "http://www.w3.org/Graphics/SVG/1.1/DTD/svg11.dtd">
<svg version="1.1" xmlns="http://www.w3.org/2000/svg" xmlns:xlink="http://www.w3.org/1999/xlink" x="0px" y="0px"
	 width="273.027px" height="424.022px" viewBox="0 0 273.027 424.022" style="enable-background:new 0 0 273.027 424.022;"
	 xml:space="preserve">
<g id="font" style="display:none;">
	<path style="display:inline;stroke:#000000;stroke-width:9;stroke-linecap:round;stroke-linejoin:round;stroke-miterlimit:10;" d="
		M14.895-59.339C14.895-3.9-19.479,46.92-61.089,82.62c-44.505,37.38-101.313,61.32-155.226,63l-0.362,0.42
		c-21.348,43.26-54.998,81.899-92.629,81.899c-34.012,0-50.294-31.08-50.294-68.04c0-69.3,48.123-143.219,109.996-143.219
		c32.927,0,50.656,24.78,50.656,58.8c0,13.439-2.532,28.14-7.598,43.26C-120.068,111.6-7.539,31.8-7.539-59.339
		c0-7.141,5.065-13.021,11.217-13.021S14.895-66.48,14.895-59.339z M-244.538,144.359c-6.875-0.84-13.026-1.68-18.815-3.36
		c-33.65-7.98-50.295-25.2-56.446-42c-19.177,38.64-24.966,100.38,10.493,100.38C-281.807,199.379-255.393,165.359-244.538,144.359z
		 M-295.195,91.86c10.493,18.06,40.163,23.939,63.321,25.2c11.578-31.5,15.559-71.82-17.73-71.82
		c-19.177,0-35.459,9.24-48.847,22.68C-298.813,68.76-302.069,80.52-295.195,91.86z"/>
	<path style="display:inline;stroke:#000000;stroke-width:9;stroke-linecap:round;stroke-linejoin:round;stroke-miterlimit:10;" d="
		M203.041,104.879c0,7.561-5.427,13.86-11.939,13.86l-2.533-0.42c-16.645,36.54-44.506,70.56-67.301,88.199
		c-16.282,11.76-31.479,18.06-45.591,18.06c-14.474,0-18.453-9.66-18.453-23.94c0-33.6,66.215-110.04,116.51-110.04
		c8.321-26.88,9.046-50.82-16.645-50.82c-49.209,0-144.009,223.019-185.981,335.579l-4.704,12.18c-0.724,1.26-1.085,2.52-1.447,3.36
		l-0.724,1.26c-2.533,5.46-6.875,7.56-10.854,7.56h-2.533c-5.427-1.68-9.77-7.14-9.77-13.86c0-2.1,0.362-3.78,1.086-5.46
		c0.361-0.84,11.578-32.76,29.67-77.28C2.224,223.319,46.006,109.5,81.465,14.58c2.896-7.14,10.132-10.5,16.282-7.14
		c6.151,2.94,9.047,11.34,6.151,18.48c0,0.42-13.749,31.92-26.413,65.52c16.644-36.96,52.104-80.22,82.859-80.22
		c29.67,0,42.695,18.899,42.695,49.14c0,10.92-1.809,21.84-5.065,33.18C200.871,96.06,203.041,100.259,203.041,104.879z
		 M159.983,118.32c-35.821,13.859-72.005,57.959-81.773,77.699c18.453-1.68,42.696-20.58,64.405-49.56
		C149.128,137.219,154.918,127.98,159.983,118.32z"/>
</g>
<g id="vectorized-fonts">
	<g>
		<path style="fill:none;stroke:#0000FF;stroke-width:28.8;stroke-linecap:round;stroke-linejoin:round;stroke-miterlimit:10;" d="
			M153.938,23.976c-20.528,66.344-114,313-139.732,375.297"/>
		<path style="fill:none;stroke:#0000FF;stroke-width:28.8;stroke-linecap:round;stroke-linejoin:round;stroke-miterlimit:10;" d="
			M130.088,101.252c11.413-17.488,77.016-99.776,119.016-61.776c32.926,29.79-62.726,198.877-115.695,181.782
			c-30.208-9.749-16.63-79.033-10.305-97.782"/>
	</g>
</g>
</svg>
