<?xml version="1.0" encoding="iso-8859-1"?>
<!-- Generator: Adobe Illustrator 17.0.0, SVG Export Plug-In . SVG Version: 6.00 Build 0)  -->
<!DOCTYPE svg PUBLIC "-//W3C//DTD SVG 1.1//EN" "http://www.w3.org/Graphics/SVG/1.1/DTD/svg11.dtd">
<svg version="1.1" xmlns="http://www.w3.org/2000/svg" xmlns:xlink="http://www.w3.org/1999/xlink" x="0px" y="0px"
	 width="349.243px" height="411.447px" viewBox="0 0 349.243 411.447" style="enable-background:new 0 0 349.243 411.447;"
	 xml:space="preserve">
<g id="font" style="display:none;">
	<path style="display:inline;stroke:#000000;stroke-width:9;stroke-linecap:round;stroke-linejoin:round;stroke-miterlimit:10;" d="
		M343.769,113.319c0,16.38-5.789,32.34-17.368,46.62c-10.855,13.859-26.775,26.04-47.4,36.12
		c-39.078,19.74-93.353,31.08-157.396,33.18c-17.006,43.68-31.479,78.54-42.334,103.32c-6.513,15.12-15.559,43.68-19.901,52.08
		c-5.789,10.5-11.217,19.32-19.901,19.32c-4.342,0-8.322-2.52-10.493-6.72c-2.171-4.2-2.171-9.66-0.362-13.86
		c15.921-34.439,5.066-74.76-2.533-116.759c-5.789-32.34-12.664-68.879-13.388-102.9c-0.724-41.159,6.875-72.659,23.519-96.179
		c11.579-17.22,28.223-29.82,48.847-38.22c21.348-9.24,48.486-13.86,80.327-13.86c52.466,0,97.333,9.66,129.174,27.3
		c15.559,8.4,27.5,18.479,35.821,30.24C339.427,85.599,343.769,99.459,343.769,113.319z M319.527,113.319
		c0-33.6-53.913-69.3-154.141-69.3c-53.913,0-91.182,13.86-110.358,41.16c-29.309,42-16.645,112.979-5.066,175.979
		c3.619,19.74,6.875,38.64,8.684,55.86l3.618-7.98c9.046-21,19.901-47.88,32.203-79.379c-5.065-1.681-9.046-7.141-9.046-13.86
		c0-7.98,5.428-14.28,11.94-14.28h8.322c26.775-68.88,51.019-133.979,51.019-134.82c2.895-7.14,9.769-10.5,16.282-7.56
		c6.151,3.36,9.046,11.76,6.151,18.9c0,0.42-21.349,58.379-46.314,122.639c69.109-3.78,111.806-18.06,136.772-30.66
		c17.006-8.4,30.394-18.48,39.078-29.4C315.908,131.379,319.527,122.559,319.527,113.319z"/>
</g>
<g id="vectorized-fonts">
	<g>
		<path style="fill:none;stroke:#0000FF;stroke-width:28.8;stroke-linecap:round;stroke-linejoin:round;stroke-miterlimit:10;" d="
			M169.702,66.941c-7.158,16.857-101,268.523-130,327.023"/>
		<path style="fill:none;stroke:#0000FF;stroke-width:28.8;stroke-linecap:round;stroke-linejoin:round;stroke-miterlimit:10;" d="
			M41.912,390.376C67.391,299.255,8.87,210.569,31.751,120.034c6.266-24.794,19.024-48.482,38.845-64.642
			c43.425-35.402,114.084-35.001,165.199-20.145c37.316,10.845,97.321,35.428,95.896,82.341
			c-0.741,24.409-20.383,44.037-40.977,57.162c-52.51,33.465-117.353,42.031-178.472,41.768"/>
		<path style="fill:none;stroke:#0000FF;stroke-width:28.8;stroke-linecap:round;stroke-linejoin:round;stroke-miterlimit:10;" d="
			M112.243,216.518c-6.848-1.04-15.54-0.194-22.874-2.388"/>
	</g>
</g>
<g id="KEY" style="display:none;">
</g>
</svg>
