<?xml version="1.0" encoding="iso-8859-1"?>
<!-- Generator: Adobe Illustrator 17.0.0, SVG Export Plug-In . SVG Version: 6.00 Build 0)  -->
<!DOCTYPE svg PUBLIC "-//W3C//DTD SVG 1.1//EN" "http://www.w3.org/Graphics/SVG/1.1/DTD/svg11.dtd">
<svg version="1.1" xmlns="http://www.w3.org/2000/svg" xmlns:xlink="http://www.w3.org/1999/xlink" x="0px" y="0px"
	 width="243.024px" height="517.031px" viewBox="0 0 243.024 517.031" style="enable-background:new 0 0 243.024 517.031;"
	 xml:space="preserve">
<g id="font" style="display:none;">
	<path style="display:inline;stroke:#000000;stroke-width:9;stroke-linecap:round;stroke-linejoin:round;stroke-miterlimit:10;" d="
		M156.104,223.739c-4.704,12.18-9.046,23.94-13.388,34.86c2.533,2.939,4.704,6.3,6.514,9.24c6.15,10.92,9.407,23.1,9.407,35.7
		c0.724,59.22-79.603,173.879-115.786,204.539c-2.533,1.68-5.065,2.521-7.599,2.521H32.72c-5.428-1.681-9.408-7.141-9.408-13.86
		c0-2.94,0.361-5.46,1.809-7.56c3.257-7.98,47.039-120.54,88.287-223.02c-1.809-1.68-3.979-2.939-6.15-4.2
		c-5.789-4.2-7.599-13.02-3.98-19.74c3.257-6.72,10.855-8.82,16.645-4.62l3.256,2.1c4.704-11.76,9.408-23.939,14.111-36.12
		l-5.427,4.2c-14.112,10.5-28.585,15.96-42.696,15.96c-33.289,0-49.933-29.399-49.933-68.039c0-31.08,10.854-65.94,28.585-93.24
		c21.348-31.919,50.294-49.56,81.05-49.56c16.645,0,29.67,5.88,38.716,17.22c3.618,5.04,6.514,10.92,8.684,17.22
		c4.704-12.6,6.514-13.02,10.855-24.78c2.895-7.14,10.131-10.5,16.282-7.14c6.151,2.94,9.046,11.34,6.151,18.48
		C229.194,35.16,193.735,124.2,156.104,223.739z M132.946,280.019c-0.361-0.42-84.307,197.399-87.201,202.859
		C86.994,432.898,161.894,308.999,132.946,280.019z M147.058,152.339c17.006-25.62,28.223-57.54,28.223-80.64
		c0-6.72-1.085-16.38-5.789-22.68c-4.342-5.04-11.217-7.98-20.624-7.98c-52.104,0-85.03,68.04-85.03,114.66
		c0,25.199,7.598,39.899,25.328,39.899C107.618,195.599,128.966,179.219,147.058,152.339z"/>
</g>
<g id="vectorized-fonts">
	<g>
		<path style="fill:none;stroke:#0000FF;stroke-width:28.8;stroke-linecap:round;stroke-linejoin:round;stroke-miterlimit:10;" d="
			M191.178,79.86c-2.127-96.555-96.627-52.956-122.127-0.555c-31.803,65.353-25.5,116.294,10,130.5
			c30.041,12.021,58.241-13.281,79.294-45.81"/>
		<path style="fill:none;stroke:#0000FF;stroke-width:28.8;stroke-linecap:round;stroke-linejoin:round;stroke-miterlimit:10;" d="
			M222.552,23.603c-17.687,35.499-39.927,87.759-65.096,144.731C93.213,313.751,20.913,489.864,38.052,496.305
			c49.667,18.667,122.566-106.308,137.229-151.333c19.105-58.667-42.229-80.417-57.469-85.231"/>
		<path style="fill:none;stroke:#0000FF;stroke-width:28.8;stroke-linecap:round;stroke-linejoin:round;stroke-miterlimit:10;" d="
			M117.719,259.639c-15-4.042-21.167-5.583-30-8.083"/>
	</g>
</g>
</svg>
