<?xml version="1.0" encoding="iso-8859-1"?>
<!-- Generator: Adobe Illustrator 17.0.0, SVG Export Plug-In . SVG Version: 6.00 Build 0)  -->
<!DOCTYPE svg PUBLIC "-//W3C//DTD SVG 1.1//EN" "http://www.w3.org/Graphics/SVG/1.1/DTD/svg11.dtd">
<svg version="1.1" xmlns="http://www.w3.org/2000/svg" xmlns:xlink="http://www.w3.org/1999/xlink" x="0px" y="0px"
	 width="354.035px" height="439.323px" viewBox="0 0 354.035 439.323" style="enable-background:new 0 0 354.035 439.323;"
	 xml:space="preserve">
<g id="font" style="display:none;">
	<path style="display:inline;stroke:#000000;stroke-width:9;stroke-linecap:round;stroke-linejoin:round;stroke-miterlimit:10;" d="
		M177.752,388.734c5.065,4.62,13.388,20.58,36.183,20.58c7.96,0,15.559-4.62,24.966-15.12c4.342-5.46,11.94-5.46,16.644,0
		c4.342,5.04,4.342,13.86,0,19.32c-15.559,15.959-27.137,22.68-43.058,22.68c-36.183,0-49.571-24.36-61.512-39.06
		c-12.664,2.52-24.966,4.2-36.907,4.2c-73.813,0-111.806-46.619-111.806-122.639c0-45.36,13.388-91.979,23.157-112.56
		c4.704-9.66,7.598-18.9,18.453-18.9c7.237,0,13.75,7.14,13.75,15.96c0,5.04-2.533,9.66-6.151,12.6
		c-15.92,29.82-27.5,96.599-18.454,136.919c15.559-15.96,31.479-22.68,46.676-21.84c31.841,2.1,57.169,42.42,76.347,71.819
		c61.873-18.899,137.496-119.279,157.035-187.319c23.881-83.159-4.342-142.799-74.899-142.799c-45.229,0-81.412,23.52-108.188,69.72
		c-20.263,34.859-28.585,71.399-29.309,79.379c-0.362,3.36-1.085,5.88-2.895,8.4c-5.066,7.14-14.111,8.4-19.177,2.52
		c-1.809-1.68-6.151-6.3-5.065-14.7c0,0,4.704-22.26,7.96-32.76C105.747,65.756,156.765,0.656,238.177,0.656
		c91.543,0,130.259,83.579,100.589,185.219C317.78,258.535,242.52,363.114,177.752,388.734z M129.628,367.734
		c-16.283-23.939-32.927-48.72-51.38-49.979c-10.493-0.84-21.71,6.3-34.012,20.16c19.901,31.92,59.702,34.44,86.116,30.66
		C129.99,368.574,129.99,368.154,129.628,367.734z"/>
</g>
<g id="vectorized-fonts">
	<g>
		<path style="fill:none;stroke:#0000FF;stroke-width:28.8;stroke-linecap:round;stroke-linejoin:round;stroke-miterlimit:10;" d="
			M89.04,185.326c2.722-52.269,43.401-128.546,88.537-154.441c31.497-18.07,72.073-21.646,104.36-5.029
			c62.352,32.092,65.772,114.112,36.13,180.221c-29.289,65.322-72.831,127.899-135.668,162.196
			c-29.175,15.924-73.997,23.115-105.418,12.275c-37.498-12.937-58.96-53.521-60.61-93.155
			c-1.606-38.575,9.766-98.572,27.864-132.598"/>
		<path style="fill:none;stroke:#0000FF;stroke-width:28.8;stroke-linecap:round;stroke-linejoin:round;stroke-miterlimit:10;" d="
			M27.451,332.073c59.842-77.333,102.9,16.333,125.53,47.839"/>
		<path style="fill:none;stroke:#0000FF;stroke-width:28.8;stroke-linecap:round;stroke-linejoin:round;stroke-miterlimit:10;" d="
			M152.981,379.913c45.22,71.827,84.47,37.577,99.346,18.916"/>
	</g>
</g>
</svg>
