<?xml version="1.0" encoding="iso-8859-1"?>
<!-- Generator: Adobe Illustrator 17.0.0, SVG Export Plug-In . SVG Version: 6.00 Build 0)  -->
<!DOCTYPE svg PUBLIC "-//W3C//DTD SVG 1.1//EN" "http://www.w3.org/Graphics/SVG/1.1/DTD/svg11.dtd">
<svg version="1.1" xmlns="http://www.w3.org/2000/svg" xmlns:xlink="http://www.w3.org/1999/xlink" x="0px" y="0px"
	 width="267.027px" height="310.31px" viewBox="0 0 267.027 310.31" style="enable-background:new 0 0 267.027 310.31;"
	 xml:space="preserve">
<g id="font" style="display:none;">
	<path style="display:inline;stroke:#000000;stroke-width:9;stroke-linecap:round;stroke-linejoin:round;stroke-miterlimit:10;" d="
		M221.366,245.654c0,7.979-5.428,14.279-12.302,14.279c-16.282,0-27.861-5.88-33.65-17.64c-13.388-25.2,11.94-65.52,29.67-104.159
		c5.065-10.92,9.77-21.42,13.026-30.66c1.809-4.62,2.895-7.98,3.618-10.5c-11.579,0-22.071-1.26-32.203-3.78
		c-5.065,20.16-17.368,57.96-34.374,95.34c-24.967,56.28-81.051,115.5-132.431,115.5c-6.513,0-12.302-6.3-12.302-14.28
		c0-7.98,5.789-14.28,12.302-14.28c40.163,0,83.583-33.6,112.892-99.959c23.157-52.5,34.012-78.54,36.184-94.5
		c1.809-13.44,2.532-11.34-3.619-15.96c-14.834-11.34-22.434-21.42-22.434-42.42c0-15.96,4.343-26.88,20.625-26.88
		c18.092,0,26.775,31.92,26.775,51.24c0,22.26-13.025,17.22,33.289,21.84c10.492,0.84,15.559,6.72,17.729,10.5
		c7.96,15.54-2.171,38.22-17.729,72.239c-7.237,16.38-17.73,36.96-24.605,50.82c-9.407,19.319-6.513,23.52-5.789,25.199
		c1.447,2.521,6.151,3.78,13.026,3.78C215.939,231.374,221.366,237.674,221.366,245.654z"/>
</g>
<g id="vectorized-fonts">
	<path style="fill:none;stroke:#0000FF;stroke-width:28.8;stroke-linecap:round;stroke-linejoin:round;stroke-miterlimit:10;" d="
		M19.084,286.869C138.356,277.833,192.408,55.923,168.023,23.5c18.333,29.667,36.559,43.668,55.979,49.602
		c7.93,2.423,17.017,4.791,20.945,12.093c4.531,8.422-4.252,18.639-8.968,26.959c-9.979,17.604-60.956,83.013-49.623,136.89"/>
</g>
</svg>
