<?xml version="1.0" encoding="iso-8859-1"?>
<!-- Generator: Adobe Illustrator 17.0.0, SVG Export Plug-In . SVG Version: 6.00 Build 0)  -->
<!DOCTYPE svg PUBLIC "-//W3C//DTD SVG 1.1//EN" "http://www.w3.org/Graphics/SVG/1.1/DTD/svg11.dtd">
<svg version="1.1" xmlns="http://www.w3.org/2000/svg" xmlns:xlink="http://www.w3.org/1999/xlink" x="0px" y="0px"
	 width="471.047px" height="411.007px" viewBox="0 0 471.047 411.007" style="enable-background:new 0 0 471.047 411.007;"
	 xml:space="preserve">
<g id="font" style="display:none;">
	<path style="display:inline;stroke:#000000;stroke-width:9;stroke-linecap:round;stroke-linejoin:round;stroke-miterlimit:10;" d="
		M462.773,395.916c-1.809,5.88-6.513,9.239-11.579,9.239c-1.447,0-2.895-0.42-4.342-0.84c-29.308-13.02-56.807-32.76-79.241-55.439
		c-18.092-18.48-34.012-39.9-46.677-63.42c-22.071-40.74-28.584-74.76-28.584-76.02c-1.447-6.3,1.447-13.02,6.513-15.96
		c47.762-25.2,82.136-49.14,102.398-71.819c10.854-11.76,22.795-28.561,19.177-43.26c-4.342-16.8-28.946-36.959-65.491-45.36
		C219.261,2.377,26.766,67.477,26.766,198.097c0,7.979-5.427,14.28-11.94,14.28c-6.875,0-12.302-6.3-12.302-14.28
		c0-27.3,6.513-52.92,18.815-76.02c48.485-86.1,202.264-141.54,338.312-111.72c21.71,5.04,39.801,11.76,53.551,21
		c16.282,10.5,26.775,23.52,30.394,39.06c3.256,11.34,2.171,23.52-2.171,36.12c-4.342,11.76-12.302,23.52-23.157,35.7
		c-20.986,23.1-54.275,47.459-99.504,72.24c3.257,11.76,10.493,33.18,23.157,56.7c26.776,48.72,65.854,85.679,113.615,106.679
		C461.688,380.376,464.944,388.775,462.773,395.916z M277.154,92.677c-1.809,2.521-9.77,12.18-30.032,47.46
		c-15.559,28.14-21.348,39.9-38.716,74.76c-24.604,49.14-61.512,128.1-64.768,153.299c2.171,2.52,3.619,6.3,3.619,10.5
		c0,7.56-5.428,13.86-11.94,13.86c-5.428,0-10.493-2.94-13.388-7.98c-2.171-3.36-3.256-7.98-3.256-13.02
		c0-34.86,56.084-143.219,74.176-182.279c12.302-26.46,40.163-77.699,59.702-106.68c7.96-11.34,13.026-17.22,19.9-17.22
		c6.875,0,12.302,6.3,12.302,14.28C284.752,85.537,281.496,90.577,277.154,92.677z"/>
</g>
<g id="vectorized-fonts">
	<g>
		<path style="fill:none;stroke:#0000FF;stroke-width:28.8;stroke-linecap:round;stroke-linejoin:round;stroke-miterlimit:10;" d="
			M276.405,72.271c-68.055,90.121-115.093,201.262-145.728,309.328"/>
		<path style="fill:none;stroke:#0000FF;stroke-width:28.8;stroke-linecap:round;stroke-linejoin:round;stroke-miterlimit:10;" d="
			M14.037,201.79c2.504-86.896,66.018-144.395,145.179-168.311c68.267-20.625,166.396-30.156,233.381-0.849
			c30.291,13.255,45.584,40.2,36.472,73.253c-5.684,20.619-19.788,38.119-36.433,51.551c-25.989,20.973-59.008,37.847-89.729,50.586
			c-9.092,3.77,27.496,72.3,30.926,78.018c27.384,45.639,67.84,90.289,120.072,106.517"/>
	</g>
</g>
</svg>
