<?xml version="1.0" encoding="iso-8859-1"?>
<!-- Generator: Adobe Illustrator 17.0.0, SVG Export Plug-In . SVG Version: 6.00 Build 0)  -->
<!DOCTYPE svg PUBLIC "-//W3C//DTD SVG 1.1//EN" "http://www.w3.org/Graphics/SVG/1.1/DTD/svg11.dtd">
<svg version="1.1" xmlns="http://www.w3.org/2000/svg" xmlns:xlink="http://www.w3.org/1999/xlink" x="0px" y="0px"
	 width="210.021px" height="212.954px" viewBox="0 0 210.021 212.954" style="enable-background:new 0 0 210.021 212.954;"
	 xml:space="preserve">
<g id="font" style="display:none;">
	<path style="display:inline;stroke:#000000;stroke-width:9;stroke-linecap:round;stroke-linejoin:round;stroke-miterlimit:10;" d="
		M188.767,87.385c4.343,5.88,8.685,15.96,4.704,32.76c-13.026,52.92-69.472,93.659-117.233,93.659
		c-18.815,0-61.149-7.56-74.176-65.939c-1.81-7.56,2.171-15.12,8.685-17.22c6.513-2.1,13.025,2.52,14.835,10.08
		c9.407,41.58,38.716,44.939,50.656,44.939c36.907,0,83.944-32.76,93.714-73.08c3.98-16.38-31.841-7.56-57.893-1.68
		c-26.414,5.04-67.301,14.7-83.945-4.62c-4.342-5.04-9.045-14.7-6.875-30.239c7.599-50.4,57.894-73.08,99.866-73.5
		c27.86-0.84,61.511,9.24,73.813,40.32c2.895,7.14,0.361,15.54-5.789,18.9c-6.151,3.36-13.388,0-16.283-7.14
		c-7.598-18.061-31.479-23.94-52.465-23.94c-21.71,0-71.281,13.44-74.899,49.98c-1.81,17.64,36.183,7.14,62.235,2.1
		C143.9,75.624,174.656,69.324,188.767,87.385z"/>
</g>
<g id="vectorized-fonts">
	<path style="fill:none;stroke:#0000FF;stroke-width:28.8;stroke-linecap:round;stroke-linejoin:round;stroke-miterlimit:10;" d="
		M187.566,49.835c-5.842-20.272-32.066-29.022-50.482-32.945c-33.626-7.162-72.859,0.081-95.706,27.546
		c-11.093,13.336-20.341,43.941-4.431,57.632c5.61,4.828,13.687,5.257,21.084,5.015c23.486-0.769,46.534-5.875,69.278-11.434
		c13.989-3.419,39.8-11.594,53.049-2.452c13.946,9.623,1.985,36.183-3.873,46.938c-9.443,17.339-23.123,32.384-39.607,43.271
		c-23.09,15.25-59.189,27.266-86.085,16.076c-23.825-9.913-34.48-35.239-38.312-59.192"/>
</g>
</svg>
