<?xml version="1.0" encoding="iso-8859-1"?>
<!-- Generator: Adobe Illustrator 17.0.0, SVG Export Plug-In . SVG Version: 6.00 Build 0)  -->
<!DOCTYPE svg PUBLIC "-//W3C//DTD SVG 1.1//EN" "http://www.w3.org/Graphics/SVG/1.1/DTD/svg11.dtd">
<svg version="1.1" xmlns="http://www.w3.org/2000/svg" xmlns:xlink="http://www.w3.org/1999/xlink" x="0px" y="0px"
	 width="435.044px" height="394.156px" viewBox="0 0 435.044 394.156" style="enable-background:new 0 0 435.044 394.156;"
	 xml:space="preserve">
<g id="font" style="display:none;">
	<path style="display:inline;stroke:#000000;stroke-width:9;stroke-linecap:round;stroke-linejoin:round;stroke-miterlimit:10;" d="
		M422.849,189.611c2.533,24.78-16.645,63.84-42.334,93.239c-49.933,56.7-136.411,101.22-223.974,101.22
		C83.45,382.39,22.663,348.37,0.229,268.15c-2.171-7.14,1.447-15.12,7.599-17.64c6.513-2.52,13.388,1.68,15.559,8.82
		c23.519,82.739,93.714,95.759,133.516,96.18c101.675,0,215.29-69.72,239.533-149.939c7.96-25.62-6.151-33.18-53.189-31.5
		c-59.34,2.52-150.522,23.939-211.671,26.46c-28.947,0.84-61.15-1.68-77.07-21.84c-6.151-7.561-12.664-21.42-8.684-43.68
		c12.302-65.1,80.688-109.2,163.91-124.74c75.623-13.44,181.278-2.94,214.205,63.839c3.256,6.72,1.447,15.54-4.342,19.32
		c-5.79,3.78-13.388,1.68-16.645-5.04c-26.052-53.34-124.108-62.16-189.238-49.979c-37.631,6.72-70.919,19.739-96.248,37.38
		c-18.815,12.6-41.972,34.439-47.762,65.1c-3.98,24.359,13.388,32.76,61.15,31.08c57.531-1.68,154.14-24.36,211.671-26.04
		c27.499-1.26,58.255,1.68,72.728,21.42C419.592,173.651,422.125,181.21,422.849,189.611z"/>
</g>
<g id="vectorized-fonts">
	<path style="fill:none;stroke:#0000FF;stroke-width:28.8;stroke-linecap:round;stroke-linejoin:round;stroke-miterlimit:10;" d="
		M417.194,84.334c-9.918-39.354-52.795-52.462-87.729-59.81c-59.219-12.457-127.006-9.355-182.498,16.375
		c-40.341,18.705-102.572,72.239-87.485,124.668c12.513,43.485,93.064,20.695,122.539,16.116
		c58.442-9.079,116.706-20.601,175.912-23.393c19.03-0.897,40.128,0.415,48.346,20.651c3.915,9.639,3.658,20.568,1.217,30.682
		c-18.807,77.915-100.582,129.667-172.964,149.95c-44.376,12.435-92.738,16.061-135.992,0.155
		c-43.254-15.905-80.027-54.196-84.966-100.016"/>
</g>
</svg>
