<?xml version="1.0" encoding="iso-8859-1"?>
<!-- Generator: Adobe Illustrator 17.0.0, SVG Export Plug-In . SVG Version: 6.00 Build 0)  -->
<!DOCTYPE svg PUBLIC "-//W3C//DTD SVG 1.1//EN" "http://www.w3.org/Graphics/SVG/1.1/DTD/svg11.dtd">
<svg version="1.1" xmlns="http://www.w3.org/2000/svg" xmlns:xlink="http://www.w3.org/1999/xlink" x="0px" y="0px"
	 width="243.024px" height="340.034px" viewBox="0 0 243.024 340.034" style="enable-background:new 0 0 243.024 340.034;"
	 xml:space="preserve">
<g id="font" style="display:none;">
	<path style="display:inline;stroke:#000000;stroke-width:9;stroke-linecap:round;stroke-linejoin:round;stroke-miterlimit:10;" d="
		M228.074,69.051c0,7.98-5.428,14.28-12.303,14.28c-38.716,0-69.109,2.52-91.543,6.3c-19.9,41.16-69.472,148.68-90.458,205.799
		c9.77-3.78,27.499-13.439,49.571-39.06c4.703-5.46,12.302-5.46,17.367,0c4.704,5.46,4.704,14.7,0,20.16
		c-27.499,31.5-56.808,50.399-80.326,50.399c-16.283,0-17.73-15.12-11.217-36.54c13.75-41.579,67.301-158.759,83.945-194.879
		c-23.158,5.88-32.565,11.34-32.565,11.34c-5.065,3.36-13.026,2.101-16.645-5.88c-2.895-7.14-0.724-15.54,5.428-19.32
		c1.085-0.42,18.092-10.5,58.979-18.06c13.388-28.14,22.434-47.46,22.796-47.46c3.256-7.14,10.492-9.66,16.644-5.46
		c5.79,3.78,7.961,12.181,4.704,18.9c-0.361,0.42-5.789,11.76-14.111,29.399c21.348-2.52,47.038-4.2,77.432-4.2
		C222.646,54.771,228.074,61.071,228.074,69.051z"/>
</g>
<g id="vectorized-fonts">
	<g>
		<path style="fill:none;stroke:#0000FF;stroke-width:28.8;stroke-linecap:round;stroke-linejoin:round;stroke-miterlimit:10;" d="
			M145.941,12.836c-18,45.333-151.5,292.149-127.5,304.574s77.5-54.074,77.5-54.074"/>
		<path style="fill:none;stroke:#0000FF;stroke-width:28.8;stroke-linecap:round;stroke-linejoin:round;stroke-miterlimit:10;" d="
			M48.941,96.336c56.5-22.5,112.551-27.344,174.5-28.5"/>
	</g>
</g>
</svg>
