<?xml version="1.0" encoding="iso-8859-1"?>
<!-- Generator: Adobe Illustrator 17.0.0, SVG Export Plug-In . SVG Version: 6.00 Build 0)  -->
<!DOCTYPE svg PUBLIC "-//W3C//DTD SVG 1.1//EN" "http://www.w3.org/Graphics/SVG/1.1/DTD/svg11.dtd">
<svg version="1.1" xmlns="http://www.w3.org/2000/svg" xmlns:xlink="http://www.w3.org/1999/xlink" x="0px" y="0px"
	 width="438.565px" height="362.373px" viewBox="0 0 438.565 362.373" style="enable-background:new 0 0 438.565 362.373;"
	 xml:space="preserve">
<g id="font" style="display:none;">
	<path style="display:inline;stroke:#000000;stroke-width:9;stroke-linecap:round;stroke-linejoin:round;stroke-miterlimit:10;" d="
		M428.998,14.247c-0.362,7.98-6.151,13.86-13.026,13.44c-70.195-4.2-131.707-4.62-183.087-0.84
		c-3.256,63.84-13.75,120.119-30.032,166.739c-14.473,39.06-33.289,71.819-57.169,97.439c-17.368,18.9-37.63,34.02-58.979,44.1
		c-12.664,5.88-29.308,14.28-43.782,13.44c-3.256,0-6.151-1.68-8.684-4.62c-2.895-3.78-3.98-9.24-2.533-14.28
		c1.086-2.94,3.619-7.98,9.77-9.24c0.724-0.42,1.81-0.42,2.895-0.84c32.203-6.72,60.426-23.1,85.03-49.56
		c46.314-50.399,72.728-131.459,78.518-241.499c-27.5,2.52-52.466,6.3-73.814,11.76c-56.808,13.86-79.965,33.6-89.372,47.46
		c-3.98,6.3-8.684,16.8-6.151,24.78c0,0,4.342,13.859-5.427,19.319c-13.026,6.72-17.006-8.819-17.006-8.819
		c-0.362-1.681-2.171-7.561-2.171-16.8c0-11.76,3.98-23.1,10.493-33.6c15.92-26.88,50.656-46.619,102.398-59.64
		c67.663-16.8,165.357-21.42,290.551-13.86C424.294-0.452,429.359,6.267,428.998,14.247z"/>
</g>
<g id="vectorized-fonts">
	<g>
		<path style="fill:none;stroke:#0000FF;stroke-width:28.8;stroke-linecap:round;stroke-linejoin:round;stroke-miterlimit:10;" d="
			M23.415,96.139C82.808-4.392,334.808,6.132,425.809,16.131"/>
		<path style="fill:none;stroke:#0000FF;stroke-width:28.8;stroke-linecap:round;stroke-linejoin:round;stroke-miterlimit:10;" d="
			M221.496,13.815c-5.357,65.078-6.689,274.317-182.322,322.83"/>
	</g>
</g>
</svg>
