<?xml version="1.0" encoding="iso-8859-1"?>
<!-- Generator: Adobe Illustrator 17.0.0, SVG Export Plug-In . SVG Version: 6.00 Build 0)  -->
<!DOCTYPE svg PUBLIC "-//W3C//DTD SVG 1.1//EN" "http://www.w3.org/Graphics/SVG/1.1/DTD/svg11.dtd">
<svg version="1.1" xmlns="http://www.w3.org/2000/svg" xmlns:xlink="http://www.w3.org/1999/xlink" x="0px" y="0px"
	 width="204.02px" height="236.003px" viewBox="0 0 204.02 236.003" style="enable-background:new 0 0 204.02 236.003;"
	 xml:space="preserve">
<g id="font" style="display:none;">
	<path style="display:inline;stroke:#000000;stroke-width:9;stroke-linecap:round;stroke-linejoin:round;stroke-miterlimit:10;" d="
		M194.119,31.8c0,0.42-25.689,51.239-41.609,87.359c-23.881,52.92-29.671,73.5-30.756,80.64c1.809,2.52,2.532,5.88,2.532,9.24
		c0,7.98-5.427,14.28-11.94,14.28c-5.428,0-10.493-3.359-13.025-8.82c-4.342-8.82-2.895-21,5.789-45.36
		c3.98-11.34,18.814-28.14,19.9-31.5c-11.217,13.44-38.354,47.04-47.762,56.28c-20.624,19.74-38.354,29.399-52.465,29.399
		c-8.685,0-15.56-4.62-19.178-13.02C-9.23,177.54,62.775,34.74,73.63,16.68c3.979-6.3,11.579-7.98,17.007-3.36
		c5.427,4.62,6.512,13.44,2.895,20.16C90.273,39.36,16.099,194.339,28.4,194.339c9.77-2.1,33.289-14.7,80.689-78.12
		C139.483,75.48,173.496,17.1,173.857,16.68c3.618-6.3,10.855-7.98,16.282-3.78C195.93,17.1,197.377,25.5,194.119,31.8z"/>
</g>
<g id="vectorized-fonts">
	<g>
		<path style="fill:none;stroke:#0000FF;stroke-width:28.8;stroke-linecap:round;stroke-linejoin:round;stroke-miterlimit:10;" d="
			M84.908,19.639c-22.214,46.3-95,173.333-59.667,190.272c27.995,13.42,114.207-106.16,160.156-184.938"/>
		<path style="fill:none;stroke:#0000FF;stroke-width:28.8;stroke-linecap:round;stroke-linejoin:round;stroke-miterlimit:10;" d="
			M185.398,24.972c-12.102,19.039-67.99,147.833-71.015,188.142"/>
	</g>
</g>
</svg>
