<?xml version="1.0" encoding="iso-8859-1"?>
<!-- Generator: Adobe Illustrator 17.0.0, SVG Export Plug-In . SVG Version: 6.00 Build 0)  -->
<!DOCTYPE svg PUBLIC "-//W3C//DTD SVG 1.1//EN" "http://www.w3.org/Graphics/SVG/1.1/DTD/svg11.dtd">
<svg version="1.1" xmlns="http://www.w3.org/2000/svg" xmlns:xlink="http://www.w3.org/1999/xlink" x="0px" y="0px"
	 width="370.224px" height="427.55px" viewBox="0 0 370.224 427.55" style="enable-background:new 0 0 370.224 427.55;"
	 xml:space="preserve">
<g id="font" style="display:none;">
	<path style="display:inline;stroke:#000000;stroke-width:9;stroke-linecap:round;stroke-linejoin:round;stroke-miterlimit:10;" d="
		M367.364,82.784c-0.362,0.42-31.479,60.899-58.617,128.52c-15.559,39.479-26.775,73.5-32.927,100.8
		c-9.407,41.58-5.789,58.8-2.533,65.1c2.171,4.2,5.79,8.82,16.644,8.82c6.875,0,12.303,6.3,12.303,14.28
		c0,7.98-5.428,14.28-12.303,14.28c-22.071,0-32.564-12.6-37.992-23.52c-9.046-18.48-9.046-46.62,0.362-86.1
		c5.066-22.26,13.026-48.299,23.519-77.279c-17.006,26.88-35.459,54.18-53.913,79.38c-53.913,73.919-92.267,108.359-120.852,108.359
		c-12.302,0-19.177-5.88-23.157-11.34c-4.342-6.3-6.875-15.12-6.875-26.04c0-19.32,7.236-47.04,22.433-84.42
		c11.579-28.56,27.5-63,47.4-101.64c17.729-34.859,35.459-66.359,47.038-87.359c6.513-11.34,12.302-21,15.559-26.88l4.342-7.56
		c0.362-0.84,1.086-1.26,1.086-1.68l0.361-0.42c4.342-8.399,8.684-20.16,3.619-27.72c-4.342-6.3-13.75-10.08-26.414-11.34
		c-14.474-0.84-32.203,2.1-49.209,9.24C112.272,48.345,30.86,91.605,30.86,217.604c0,7.98-5.427,14.28-12.302,14.28
		c-6.513,0-12.302-6.3-12.302-14.28c0-27.72,3.618-53.76,10.855-77.699c6.513-21.84,16.282-42,28.584-59.64
		c10.855-16.38,24.243-30.66,39.44-42.84c13.388-10.92,28.223-19.32,43.782-26.04c20.624-8.4,41.249-11.76,59.34-10.5
		c19.539,1.26,34.736,8.82,43.419,21.42c6.513,9.24,14.835,29.82-1.809,60.899c-0.362,0.42-0.362,0.42-0.362,0.84
		c-1.085,1.68-40.163,67.2-75.984,138.6c-20.625,41.16-36.183,76.02-45.953,103.739c-15.559,44.521-11.94,57.12-10.855,59.22
		c0,0.42,0.724,1.681,4.342,1.681c11.217,0,39.802-13.021,102.037-98.7c41.611-56.699,83.583-125.579,111.083-170.939
		c9.046-15.12,17.006-27.72,22.795-36.959c2.895-5.04,5.428-8.4,7.237-10.92c2.533-3.36,6.151-8.82,12.664-8.82
		c4.342,0,8.684,2.94,10.493,7.56C369.535,72.704,369.535,78.164,367.364,82.784z"/>
</g>
<g id="vectorized-fonts">
	<g>
		<path style="fill:none;stroke:#0000FF;stroke-width:28.8;stroke-linecap:round;stroke-linejoin:round;stroke-miterlimit:10;" d="
			M16,223.483C24,13.309,210.586-7.913,226.667,33.309c5.237,13.426-2.867,30.609-8.217,42.69
			c-10.083,22.764-23.086,44.264-35.582,65.751c-31.922,54.888-64.909,110.269-84.557,171.006
			c-7.722,23.869-15.177,48.936-11.481,74.262c0.715,4.901,2.109,10.235,6.212,13.012c23.955,16.208,66.102-31.888,78.965-46.773
			c18.908-21.88,34.732-46.15,51.052-69.947c36.349-53.001,119.433-188.02,132.257-213.001"/>
		<path style="fill:none;stroke:#0000FF;stroke-width:28.8;stroke-linecap:round;stroke-linejoin:round;stroke-miterlimit:10;" d="
			M355.315,70.309C341.991,134.84,199,386.309,287,401.822"/>
	</g>
</g>
</svg>
