<?xml version="1.0" encoding="iso-8859-1"?>
<!-- Generator: Adobe Illustrator 17.0.0, SVG Export Plug-In . SVG Version: 6.00 Build 0)  -->
<!DOCTYPE svg PUBLIC "-//W3C//DTD SVG 1.1//EN" "http://www.w3.org/Graphics/SVG/1.1/DTD/svg11.dtd">
<svg version="1.1" xmlns="http://www.w3.org/2000/svg" xmlns:xlink="http://www.w3.org/1999/xlink" x="0px" y="0px"
	 width="258.026px" height="209.816px" viewBox="0 0 258.026 209.816" style="enable-background:new 0 0 258.026 209.816;"
	 xml:space="preserve">
<g id="font" style="display:none;">
	<path style="display:inline;stroke:#000000;stroke-width:9;stroke-linecap:round;stroke-linejoin:round;stroke-miterlimit:10;" d="
		M205.217,69.154c6.513,1.26,11.217,8.399,10.131,15.54c-1.085,7.979-7.237,13.439-13.75,12.18c-6.151-1.26-15.921-3.78-21.348-5.46
		c0,2.1-62.597,115.079-109.635,115.079c-13.026-0.84-19.901-7.56-23.519-13.439c-10.855-18.061-3.618-45.78,4.704-78.12
		c6.875-27.72,15.92-62.579,6.875-76.859c-4.342-6.3-13.026-9.66-26.414-9.66c-6.513,0-12.302-6.3-12.302-13.859
		c0-7.98,5.789-14.28,12.302-14.28c42.334,0,58.617,26.46,53.551,70.979c-1.809,16.8-6.151,34.439-10.493,51.66
		c-3.618,13.859-6.875,26.46-8.322,36.96c-1.809,12.6,0,16.38,0.362,16.8c0.362,0.84,2.171,1.26,4.342,1.68
		c25.328,0,85.392-96.18,85.392-96.18l-3.618-2.1c-22.795-15.54-28.223-38.64-17.006-63.84c5.066-12.6,14.835-20.58,23.157-19.74
		c28.223,0,40.887,36.96,31.118,68.88L205.217,69.154z M169.034,35.554c-1.447-4.199-4.704-8.399-9.77-10.079
		c-2.533,5.04-5.066,13.02-3.618,18.899c1.085,2.521,3.618,9.66,11.94,12.18C170.481,46.895,170.481,39.334,169.034,35.554z"/>
</g>
<g id="vectorized-fonts">
	<path style="fill:none;stroke:#0000FF;stroke-width:28.8;stroke-linecap:round;stroke-linejoin:round;stroke-miterlimit:10;" d="
		M24.052,16.89c12.294-1.538,41.1-0.794,48.229,13.777C84.948,56.554,34.614,177,65.948,193
		c34.854,17.798,107.333-114.667,108.556-152.804c13.777,6.137,41.001,26.47,67.145,21.804"/>
</g>
</svg>
