<?xml version="1.0" encoding="iso-8859-1"?>
<!-- Generator: Adobe Illustrator 17.0.0, SVG Export Plug-In . SVG Version: 6.00 Build 0)  -->
<!DOCTYPE svg PUBLIC "-//W3C//DTD SVG 1.1//EN" "http://www.w3.org/Graphics/SVG/1.1/DTD/svg11.dtd">
<svg version="1.1" xmlns="http://www.w3.org/2000/svg" xmlns:xlink="http://www.w3.org/1999/xlink" x="0px" y="0px"
	 width="555.055px" height="465.047px" viewBox="0 0 555.055 465.047" style="enable-background:new 0 0 555.055 465.047;"
	 xml:space="preserve">
<g id="font" style="display:none;">
	<path style="display:inline;stroke:#000000;stroke-width:9;stroke-linecap:round;stroke-linejoin:round;stroke-miterlimit:10;" d="
		M540.369,28.663c0,7.979-5.428,14.279-11.94,14.279c-88.649,0-202.264,152.04-275.354,246.959
		c-34.012,44.52-66.215,86.52-95.161,117.18c-15.559,16.8-29.309,29.4-41.611,38.22c-14.473,10.5-27.499,15.54-39.439,15.54
		c-6.513,0-12.302-6.3-12.302-14.28s5.789-14.28,12.302-14.28c2.895,0,14.474-1.68,35.098-27.3c15.559-18.9,32.203-46.62,47.4-77.28
		c34.012-70.56,54.637-146.579,54.637-203.279c0-36.96-18.454-58.8-49.571-58.8c-67.663,0-127.003,88.2-127.003,200.339
		c0,7.979-5.428,14.28-11.94,14.28c-6.875,0-12.302-6.3-12.302-14.28c0-35.7,4.704-68.88,14.111-98.7
		c20.986-65.94,70.919-129.78,137.134-129.78c45.591,0,73.813,34.86,73.813,86.94c0,32.34-5.428,69.72-17.006,110.04
		c-9.77,34.86-23.52,71.399-39.802,105c17.007-21,35.098-44.1,53.552-68.459C327.25,150.882,432.181,14.383,528.429,14.383
		C534.941,14.383,540.369,20.682,540.369,28.663z"/>
	<path style="display:inline;stroke:#000000;stroke-width:9;stroke-linecap:round;stroke-linejoin:round;stroke-miterlimit:10;" d="
		M1206.492-18.797c0,7.979-5.79,14.28-12.303,14.28c-180.915,0-360.384,246.959-436.731,366.659
		c-26.052,40.739-41.249,68.459-41.249,68.879c-2.171,4.2-6.151,6.72-10.493,6.72c-10.493,0-16.282-10.08-16.282-21.84
		c0-34.44,52.827-144.479,71.281-182.699c17.367-34.86,35.459-69.3,49.933-95.34c-25.329,20.58-71.643,75.6-113.615,133.56
		c-57.894,78.959-107.464,159.179-107.826,160.019c-2.532,3.78-6.151,6.3-10.131,6.3c-5.428,0-10.132-3.36-13.388-8.4
		c-1.81-3.36-2.895-7.979-2.895-13.02c0-34.44,54.274-144.479,73.451-182.279c11.579-23.1,23.52-45.78,34.736-65.939
		c-30.032,28.14-73.452,68.459-113.615,68.459c-27.499,3.36-55.723-20.58-55.723-56.279c0-7.98,5.428-14.28,11.94-14.28
		c6.875,0,12.303,6.3,12.303,14.28c0,7.56,1.81,13.86,5.789,18.06c7.237,8.4,20.624,10.08,25.328,10.08h0.362
		c35.098,0,81.412-45.78,115.062-78.959c28.584-28.56,43.058-42.42,55.722-42.42c6.875,0,12.303,6.3,12.303,14.28
		c0,5.88-2.896,10.92-7.237,13.021c-20.624,23.939-95.885,167.999-126.279,242.339c60.064-91.98,146.181-212.1,204.797-254.099
		c15.197-10.92,28.223-15.96,39.439-15.96c6.514,0,11.941,6.3,11.941,14.28c0,6.3-7.237,13.44-7.237,13.02
		c-2.171,2.1-9.77,12.18-29.308,47.459c-29.671,53.76-68.387,132.3-90.82,186.899l1.809-2.52
		c24.243-38.22,62.959-95.76,110.721-153.3c53.552-65.1,106.74-116.759,158.482-154.139c65.492-47.04,128.45-70.98,187.429-70.98
		C1200.702-32.657,1206.492-26.357,1206.492-18.797z"/>
</g>
<g id="vectorized-fonts">
	<g>
		<path style="fill:none;stroke:#0000FF;stroke-width:28.8;stroke-linecap:round;stroke-linejoin:round;stroke-miterlimit:10;" d="
			M25.191,270.467c-17-84,65.073-258.56,164-218c100,41-20.019,348.978-112,395"/>
		<path style="fill:none;stroke:#0000FF;stroke-width:28.8;stroke-linecap:round;stroke-linejoin:round;stroke-miterlimit:10;" d="
			M77.191,447.467c38.5,6.687,118.25-110.063,206.875-220.07S470.191,14.126,532.19,23.786"/>
	</g>
</g>
</svg>
