<?xml version="1.0" encoding="iso-8859-1"?>
<!-- Generator: Adobe Illustrator 17.0.0, SVG Export Plug-In . SVG Version: 6.00 Build 0)  -->
<!DOCTYPE svg PUBLIC "-//W3C//DTD SVG 1.1//EN" "http://www.w3.org/Graphics/SVG/1.1/DTD/svg11.dtd">
<svg version="1.1" xmlns="http://www.w3.org/2000/svg" xmlns:xlink="http://www.w3.org/1999/xlink" x="0px" y="0px"
	 width="530.973px" height="508.475px" viewBox="0 0 530.973 508.475" style="enable-background:new 0 0 530.973 508.475;"
	 xml:space="preserve">
<g id="font" style="display:none;">
	<path style="display:inline;stroke:#000000;stroke-width:9;stroke-linecap:round;stroke-linejoin:round;stroke-miterlimit:10;" d="
		M587.595,3.999c0,7.98-5.428,14.28-12.302,14.28c-26.052,0-54.275,12.6-83.945,36.96c-26.414,21.84-54.998,53.76-83.945,94.919
		c-54.275,76.021-101.674,168.42-136.048,235.619c-39.44,76.439-49.209,94.5-62.597,94.5c-6.875,0-13.026-3.36-17.73-9.66
		c-7.598-11.34-9.77-31.08-6.513-64.26c2.533-23.939,7.599-51.239,11.579-73.5c15.197-41.579-7.237,11.761-10.493,17.221
		c-17.368,28.14-36.907,60.06-54.999,85.68c-10.493,14.279-19.177,25.199-26.775,32.76c-10.493,10.92-19.177,15.96-27.499,15.96
		c-5.428,0-10.493-2.94-13.388-8.4c-4.704-8.399-2.533-18.899,1.809-32.34c3.257-10.08,8.322-22.68,13.75-36.12
		c8.322-20.579,17.729-43.68,23.157-64.26c7.236-26.46,5.065-36.539,2.895-40.319c-1.809-3.36-6.513-5.46-14.111-5.46
		c-6.513,0-11.94-6.3-11.94-14.28c0-7.56,5.427-13.859,11.94-13.859c20.624,0,30.394,10.08,34.736,18.479
		c16.644,29.82-5.427,84-24.605,131.88c-3.618,8.399-6.875,16.8-9.769,23.939c6.513-6.72,13.75-15.96,22.072-27.72
		c22.434-31.92,68.386-111.72,81.05-131.039c10.131-15.54,15.92-21.841,23.157-21.841c12.664,0,14.835,13.86,12.302,31.92
		c-4.342,26.04-17.006,80.22-20.625,115.08c-2.171,21.84-1.085,32.76,0,38.22c2.171-3.78,6.151-9.66,11.579-19.74
		c8.322-14.699,18.092-34.439,30.032-57.119c34.735-68.04,82.859-161.699,138.22-239.399c30.394-42.84,60.426-76.439,88.648-99.96
		c16.282-13.439,32.203-23.52,47.762-30.659c17.368-7.561,34.012-11.34,50.295-11.34C582.167-9.86,587.595-3.56,587.595,3.999z"/>
	<path style="display:inline;stroke:#000000;stroke-width:9;stroke-linecap:round;stroke-linejoin:round;stroke-miterlimit:10;" d="
		M743.538,255.158c-5.789,46.2-67.3,87.359-133.877,130.619l-22.434,15.12c15.559,25.2,36.907,49.56,60.788,49.56
		c6.875,0,12.302,6.3,12.302,14.28c0,7.56-5.428,13.86-12.302,13.86c-18.454,0-36.907-8.82-54.275-26.46
		c-9.407-9.66-18.815-22.261-27.861-36.96c-8.684,6.3-17.006,12.18-24.243,18.06c-8.684,7.14-15.559,13.86-19.901,19.32
		s-4.704,7.979-4.704,8.819c5.427,11.34-3.618,21-10.855,21c-10.854,0-15.92-15.12-12.664-28.979
		c5.79-25.2,41.973-49.979,59.341-62.16c-30.394-60.899-30.032-103.739-30.394-105.419c-2.171-7.141,1.447-15.12,7.599-17.641
		c6.513-2.52,13.388,1.261,15.559,8.82c0.362,0.42-1.085,41.58,28.223,99.96l23.881-15.54
		c51.742-34.44,133.877-87.78,119.766-116.34c-3.256-6.72-1.447-15.54,4.342-19.32c6.151-4.199,13.388-1.68,16.645,5.04
		C742.453,238.359,743.9,246.758,743.538,255.158z"/>
</g>
<g id="vectorized-fonts">
	<g>
		<g>
			<path style="fill:#0000FF;" d="M25.036,309.72c5.791,0,5.801-9,0-9C19.245,300.72,19.235,309.72,25.036,309.72L25.036,309.72z"/>
		</g>
	</g>
	<g>
		<path style="fill:none;stroke:#0000FF;stroke-width:28.8;stroke-linecap:round;stroke-linejoin:round;stroke-miterlimit:10;" d="
			M27.036,305.008c11,0.211,25.892,3.489,31,13.878c19.667,40-60.833,155.5-41.898,167.5
			c22.072,13.988,128.566-163.427,141.065-186.5"/>
		<path style="fill:none;stroke:#0000FF;stroke-width:28.8;stroke-linecap:round;stroke-linejoin:round;stroke-miterlimit:10;" d="
			M157.203,299.886c4,44-37.5,184.569-9.5,187.284c28,2.716,218.27-485.667,368-461.284"/>
	</g>
</g>
</svg>
