<?xml version="1.0" encoding="iso-8859-1"?>
<!-- Generator: Adobe Illustrator 17.0.0, SVG Export Plug-In . SVG Version: 6.00 Build 0)  -->
<!DOCTYPE svg PUBLIC "-//W3C//DTD SVG 1.1//EN" "http://www.w3.org/Graphics/SVG/1.1/DTD/svg11.dtd">
<svg version="1.1" xmlns="http://www.w3.org/2000/svg" xmlns:xlink="http://www.w3.org/1999/xlink" x="0px" y="0px"
	 width="260.667px" height="250.5px" viewBox="0 0 260.667 250.5" style="enable-background:new 0 0 260.667 250.5;"
	 xml:space="preserve">
<g id="font" style="display:none;">
	<path style="display:inline;stroke:#000000;stroke-width:9;stroke-linecap:round;stroke-linejoin:round;stroke-miterlimit:10;" d="
		M136.798,261.274c-5.789,46.2-67.3,87.359-133.877,130.619l-22.434,15.12c15.559,25.2,36.907,49.56,60.788,49.56
		c6.875,0,12.302,6.3,12.302,14.28c0,7.56-5.428,13.86-12.302,13.86c-18.454,0-36.907-8.82-54.275-26.46
		c-9.407-9.66-18.815-22.261-27.861-36.96c-8.684,6.3-17.006,12.18-24.243,18.06c-8.684,7.14-15.559,13.86-19.901,19.32
		s-4.704,7.979-4.704,8.819c5.427,11.34-3.618,21-10.855,21c-10.854,0-15.92-15.12-12.664-28.979
		c5.79-25.2,41.973-49.979,59.341-62.16c-30.394-60.899-30.032-103.739-30.394-105.419c-2.171-7.141,1.447-15.12,7.599-17.641
		c6.513-2.52,13.388,1.261,15.559,8.82c0.362,0.42-1.085,41.58,28.223,99.96l23.881-15.54
		c51.742-34.44,133.877-87.78,119.766-116.34c-3.256-6.72-1.447-15.54,4.342-19.32c6.151-4.199,13.388-1.68,16.645,5.04
		C135.713,244.475,137.16,252.874,136.798,261.274z"/>
</g>
<g id="vectorized-fonts">
	<g>
		<path style="fill:none;stroke:#0000FF;stroke-width:28.8;stroke-linecap:round;stroke-linejoin:round;stroke-miterlimit:10;" d="
			M43.642,42.07c5.614,91.932,79.114,192.193,120.541,192.193"/>
		<path style="fill:none;stroke:#0000FF;stroke-width:28.8;stroke-linecap:round;stroke-linejoin:round;stroke-miterlimit:10;" d="
			M15.149,222.718c36.107-61.217,191.107-115.717,229.426-207.717"/>
	</g>
</g>
</svg>
