<?xml version="1.0" encoding="iso-8859-1"?>
<!-- Generator: Adobe Illustrator 17.0.0, SVG Export Plug-In . SVG Version: 6.00 Build 0)  -->
<!DOCTYPE svg PUBLIC "-//W3C//DTD SVG 1.1//EN" "http://www.w3.org/Graphics/SVG/1.1/DTD/svg11.dtd">
<svg version="1.1" xmlns="http://www.w3.org/2000/svg" xmlns:xlink="http://www.w3.org/1999/xlink" x="0px" y="0px"
	 width="531.867px" height="504.96px" viewBox="0 0 531.867 504.96" style="enable-background:new 0 0 531.867 504.96;"
	 xml:space="preserve">
<g id="font" style="display:none;">
	<path style="display:inline;stroke:#000000;stroke-width:9;stroke-linecap:round;stroke-linejoin:round;stroke-miterlimit:10;" d="
		M352.22-440.93c0,7.979-5.79,14.28-12.303,14.28c-180.915,0-360.384,246.959-436.73,366.659
		c-26.052,40.739-41.249,68.459-41.249,68.879c-2.171,4.2-6.151,6.72-10.493,6.72c-10.493,0-16.282-10.08-16.282-21.84
		c0-34.44,52.827-144.479,71.281-182.699c17.367-34.86,35.459-69.3,49.933-95.34c-25.329,20.58-71.643,75.6-113.615,133.56
		C-215.132-71.752-264.702,8.468-265.065,9.307c-2.532,3.78-6.151,6.3-10.131,6.3c-5.428,0-10.132-3.36-13.388-8.4
		c-1.81-3.36-2.895-7.979-2.895-13.02c0-34.44,54.274-144.479,73.451-182.279c11.579-23.1,23.52-45.78,34.736-65.939
		c-30.032,28.14-73.452,68.459-113.615,68.459c-27.499,3.36-55.723-20.58-55.723-56.279c0-7.98,5.428-14.28,11.94-14.28
		c6.875,0,12.303,6.3,12.303,14.28c0,7.56,1.81,13.86,5.789,18.06c7.237,8.4,20.624,10.08,25.328,10.08h0.362
		c35.098,0,81.412-45.78,115.062-78.959c28.584-28.56,43.058-42.42,55.722-42.42c6.875,0,12.303,6.3,12.303,14.28
		c0,5.88-2.896,10.92-7.237,13.021c-20.624,23.939-95.885,167.999-126.279,242.339c60.064-91.98,146.181-212.1,204.797-254.099
		c15.197-10.92,28.223-15.96,39.439-15.96c6.514,0,11.941,6.3,11.941,14.28c0,6.3-7.237,13.44-7.237,13.02
		c-2.171,2.1-9.77,12.18-29.308,47.459c-29.671,53.76-68.387,132.3-90.82,186.899l1.809-2.52
		c24.243-38.22,62.959-95.76,110.721-153.3c53.552-65.1,106.74-116.759,158.482-154.139c65.492-47.04,128.45-70.98,187.429-70.98
		C346.43-454.791,352.22-448.49,352.22-440.93z"/>
	<path style="display:inline;stroke:#000000;stroke-width:9;stroke-linecap:round;stroke-linejoin:round;stroke-miterlimit:10;" d="
		M592.833-294.771c-3.257,14.28-11.94,28.98-26.414,45.36c-12.303,13.44-28.223,28.14-49.57,44.94
		c-34.375,26.88-77.433,55.439-123.385,85.68c15.559,24.359,31.479,44.52,47.037,60.479c30.395,30.66,61.15,46.2,91.182,46.2
		c6.875,0,12.303,6.3,12.303,14.28c0,7.561-5.428,13.86-12.303,13.86c-36.183,0-72.365-17.64-107.102-52.92
		c-17.729-18.06-35.459-40.74-52.466-67.62c-59.702,39.06-121.214,79.379-170.423,119.7c-26.413,21.84-47.038,41.159-62.234,59.64
		c-16.283,19.319-26.414,37.38-30.032,53.34c-3.257,13.439-2.171,25.2,3.618,36.959c3.257,6.72,1.447,15.54-4.704,19.32
		c-1.809,1.26-3.979,1.68-5.789,1.68c-4.342,0-8.322-2.52-10.854-7.14c-8.685-18.06-10.855-37.8-5.79-58.38
		c4.704-21,16.645-42.419,36.184-65.52c16.282-19.74,37.63-40.32,65.854-63c49.209-40.74,110.72-81.06,170.423-120.12
		c-3.98-7.14-7.961-14.28-11.941-21.84c-41.972-79.8-65.491-158.339-66.215-161.699c-2.171-7.56,1.086-15.54,7.599-18.06
		c6.151-2.52,13.026,1.68,15.197,8.82c0.361,0.84,23.881,79.38,64.405,156.659c3.98,7.561,7.961,15.12,11.941,22.26
		c46.314-30.66,89.734-59.22,123.746-86.1c39.801-31.5,61.873-56.28,66.215-74.339c1.447-5.04,1.086-9.24-1.085-13.021
		c-3.257-6.72-1.086-15.54,4.704-19.32c5.789-3.78,13.387-1.68,16.644,5.04C594.641-318.711,595.727-306.951,592.833-294.771z"/>
</g>
<g id="vectorized-fonts">
	<g>
		<path style="fill:none;stroke:#0000FF;stroke-width:28.8;stroke-linecap:round;stroke-linejoin:round;stroke-miterlimit:10;" d="
			M221.058,16.505c-3.814,17.04,115.306,348.014,246.578,320.681"/>
		<path style="fill:none;stroke:#0000FF;stroke-width:28.8;stroke-linecap:round;stroke-linejoin:round;stroke-miterlimit:10;" d="
			M513.915,28.575c-13.551,89.02-453.551,283.945-493.72,460.62"/>
	</g>
</g>
</svg>
