<?xml version="1.0" encoding="iso-8859-1"?>
<!-- Generator: Adobe Illustrator 17.0.0, SVG Export Plug-In . SVG Version: 6.00 Build 0)  -->
<!DOCTYPE svg PUBLIC "-//W3C//DTD SVG 1.1//EN" "http://www.w3.org/Graphics/SVG/1.1/DTD/svg11.dtd">
<svg version="1.1" xmlns="http://www.w3.org/2000/svg" xmlns:xlink="http://www.w3.org/1999/xlink" x="0px" y="0px"
	 width="480.048px" height="569.955px" viewBox="0 0 480.048 569.955" style="enable-background:new 0 0 480.048 569.955;"
	 xml:space="preserve">
<g id="font" style="display:none;">
	<path style="display:inline;stroke:#000000;stroke-width:9;stroke-linecap:round;stroke-linejoin:round;stroke-miterlimit:10;" d="
		M54.955-125.634c-5.789,46.2-67.3,87.359-133.877,130.619l-22.434,15.12c15.559,25.2,36.907,49.56,60.788,49.56
		c6.875,0,12.302,6.3,12.302,14.28c0,7.56-5.428,13.86-12.302,13.86c-18.454,0-36.907-8.82-54.275-26.46
		c-9.407-9.66-18.815-22.261-27.861-36.96c-8.684,6.3-17.006,12.18-24.243,18.06c-8.684,7.14-15.559,13.86-19.901,19.32
		s-4.704,7.979-4.704,8.819c5.427,11.34-3.618,21-10.855,21c-10.854,0-15.92-15.12-12.664-28.979
		c5.79-25.2,41.973-49.979,59.341-62.16c-30.394-60.899-30.032-103.739-30.394-105.419c-2.171-7.141,1.447-15.12,7.599-17.641
		c6.513-2.52,13.388,1.261,15.559,8.82c0.362,0.42-1.085,41.58,28.223,99.96l23.881-15.54
		c51.742-34.44,133.877-87.78,119.766-116.34c-3.256-6.72-1.447-15.54,4.342-19.32c6.151-4.199,13.388-1.68,16.645,5.04
		C53.87-142.434,55.317-134.034,54.955-125.634z"/>
	<path style="display:inline;stroke:#000000;stroke-width:9;stroke-linecap:round;stroke-linejoin:round;stroke-miterlimit:10;" d="
		M506.875,189.365c0,35.699-6.513,68.039-28.223,84.419c-17.729,12.601-41.61,13.021-75.984,0.42
		c-43.42-15.54-117.596-60.06-154.141-78.119c-31.479,68.88-59.702,123.479-83.583,162.539c-15.559,25.2-29.67,44.52-41.61,57.12
		c-13.388,13.859-25.328,21-36.184,21c-15.559,0-26.052-13.021-32.203-34.86c-4.342-16.8-6.513-40.319-6.513-71.819
		c0-91.979,17.368-149.939,53.189-175.979c30.032-22.26,66.577-18.479,104.208-6.3c10.131,3.78,20.986,7.56,31.479,12.6
		c21.71-48.3,92.268-203.279,59.341-137.339c-15.559,20.159-30.032,36.539-43.058,48.72c-20.263,19.739-37.269,29.399-51.742,29.399
		c-8.322,0-15.559-4.62-18.815-12.6c-4.704-10.5-2.895-25.62,5.789-48.72c11.94-31.92,56.084-121.38,69.833-142.38
		c3.98-6.3,11.579-7.56,17.006-2.939c5.427,4.62,6.513,13.439,2.533,19.739c0,0.42-23.881,47.46-40.525,81.06
		c-25.69,52.08-31.479,69.72-32.565,77.28c45.591-9.66,112.168-126.42,140.029-171.359c0-0.42,0-0.42,0.362-0.42
		c2.533-7.14,9.408-10.5,15.559-7.561c6.151,2.94,9.046,10.921,6.875,18.061c-9.046,23.52-56.446,145.739-107.826,259.559
		c36.545,18.06,109.997,61.74,150.16,76.439c26.052,9.66,44.144,10.5,55.36,2.521c11.217-8.4,17.006-28.56,17.006-60.479
		c0-7.561,5.427-13.86,11.94-13.86C501.448,175.505,506.875,181.805,506.875,189.365z M225.732,185.585
		c-9.046-4.2-18.092-7.561-26.776-10.5c-30.032-9.66-61.511-14.28-84.307,2.939c-13.026,9.66-22.795,25.2-29.67,47.88
		c-13.75,43.68-15.92,134.399-6.513,167.58c2.533,10.079,5.789,14.279,7.96,14.699c1.447,0.42,17.006,2.101,58.617-65.939
		C167.839,304.864,194.976,251.944,225.732,185.585z"/>
</g>
<g id="vectorized-fonts">
	<g>
		<path style="fill:none;stroke:#0000FF;stroke-width:28.8;stroke-linecap:round;stroke-linejoin:round;stroke-miterlimit:10;" d="
			M233.338,23.372c-7.736,12.377-103.624,171.497-68.624,189.465S296.413,85.87,322.214,30.304"/>
		<path style="fill:none;stroke:#0000FF;stroke-width:28.8;stroke-linecap:round;stroke-linejoin:round;stroke-miterlimit:10;" d="
			M322.214,30.304c-53.997,145.992-205.983,518-264.004,518c-50.676,0-66.24-276.91,65.157-273.055
			c31.511,0.924,56.848,21.155,83.896,34.981"/>
		<path style="fill:none;stroke:#0000FF;stroke-width:28.8;stroke-linecap:round;stroke-linejoin:round;stroke-miterlimit:10;" d="
			M207.262,310.23c276.452,163.074,244.952,59.574,253.952,1"/>
	</g>
</g>
</svg>
