<?xml version="1.0" encoding="iso-8859-1"?>
<!-- Generator: Adobe Illustrator 17.0.0, SVG Export Plug-In . SVG Version: 6.00 Build 0)  -->
<!DOCTYPE svg PUBLIC "-//W3C//DTD SVG 1.1//EN" "http://www.w3.org/Graphics/SVG/1.1/DTD/svg11.dtd">
<svg version="1.1" xmlns="http://www.w3.org/2000/svg" xmlns:xlink="http://www.w3.org/1999/xlink" x="0px" y="0px"
	 width="513.051px" height="669.067px" viewBox="0 0 513.051 669.067" style="enable-background:new 0 0 513.051 669.067;"
	 xml:space="preserve">
<g id="font" style="display:none;">
	<path style="display:inline;stroke:#000000;stroke-width:9;stroke-linecap:round;stroke-linejoin:round;stroke-miterlimit:10;" d="
		M500.821,27.635c0,3.78,0,6.3-13.388,36.96c-8.684,19.74-20.262,45.779-33.288,72.659c-19.539,42-60.064,125.16-108.911,213.359
		c-35.098,63.84-68.387,118.439-98.78,163.379c9.046,5.04,18.091,9.24,27.138,13.021c58.254,22.68,108.911,7.979,154.863-44.94
		c4.704-5.46,12.303-5.46,17.006,0c4.704,5.46,4.704,14.7,0,20.16c-27.86,32.34-58.254,52.5-90.457,60.06
		c-14.474,3.36-30.032,4.2-45.592,2.521c-14.111-1.68-28.584-5.46-43.781-10.92c-11.94-5.04-23.519-10.92-35.098-17.64
		c-6.513,9.24-13.025,18.06-19.177,26.46c-51.742,66.78-92.991,99.54-126.642,99.54c-13.025,0-24.966-4.62-34.735-14.28
		c-9.77-9.66-18.092-23.52-24.243-41.58c-6.513-18.06-11.217-40.74-14.111-67.62c-3.256-27.3-4.703-60.06-4.703-97.02
		c0-20.58,1.447-36.96,4.703-48.72c3.618-14.28,9.77-23.52,18.453-28.56c6.875-3.78,14.836-4.2,24.243-1.26
		c6.875,2.101,14.474,6.3,23.519,12.601c15.56,11.34,33.289,27.72,53.914,47.04c27.137,25.2,58.979,54.6,92.629,77.28
		c28.223-40.74,58.979-90.72,91.543-149.1c31.479-55.859,60.064-110.879,84.307-159.6c-15.197,22.68-31.117,46.2-46.676,68.04
		c-53.914,73.92-92.629,108.359-121.214,108.359c-11.94,0-18.815-5.88-22.434-10.92c-4.704-6.3-6.875-15.12-6.875-25.62
		c0-19.739,7.599-47.459,23.519-84.839c12.303-29.4,29.671-64.68,50.295-102.06c11.579-21,23.881-42,35.821-61.32
		c-19.177,15.12-40.887,31.08-61.511,42.84c-14.474,8.4-27.138,13.86-37.992,16.38c-14.474,2.94-26.414,1.68-36.184-4.2
		c-8.684-5.46-15.197-13.86-19.539-25.62c-3.98-11.34-5.789-25.2-5.789-42.42c0-7.98,5.428-14.28,11.94-14.28
		c6.874,0,12.302,6.3,12.302,14.28c0,15.96,2.172,36.54,12.303,42.84c6.875,4.2,21.348,5.46,52.465-12.18
		c23.881-13.86,50.657-34.86,72.005-52.08c30.756-23.94,44.867-34.86,55.36-34.86c6.875,0,12.303,6.3,12.303,14.28
		c0,5.88-3.257,11.34-7.599,13.44c-3.257,2.94-13.026,15.12-31.479,44.1c-17.729,27.72-36.545,60.479-53.551,91.979
		c-19.901,37.8-36.184,71.819-46.314,99.119c-15.559,41.16-14.474,55.86-13.389,60.48c0,0,0.362,1.26,0.725,1.26
		c0,0.42,1.085,0.84,3.618,0.84c11.578,0,40.163-12.6,102.397-98.28c41.611-57.12,83.222-125.58,111.083-170.939l22.434-36.96
		c3.257-5.04,5.789-8.4,7.599-10.92c2.171-3.36,6.15-8.82,12.664-8.82c4.342,0,8.684,2.94,10.854,7.56
		C500.46,23.015,500.821,25.535,500.821,27.635z M208.823,522.393c-34.012-23.1-65.491-52.5-92.267-77.7
		c-19.901-18.48-37.27-34.44-51.742-44.52c-11.94-8.82-18.453-10.5-21.71-10.5c-1.447,0-2.171,0.42-2.532,0.42
		c-1.81,0.84-9.408,7.561-9.408,51.66c0,65.52,5.065,115.5,15.197,148.259c8.322,26.46,19.539,41.16,33.288,43.68
		c16.645,2.939,48.124-8.4,104.208-78.54C192.18,545.073,200.14,534.153,208.823,522.393z"/>
</g>
<g id="vectorized-fonts">
	<g>
		<path style="fill:none;stroke:#0000FF;stroke-width:28.8;stroke-linecap:round;stroke-linejoin:round;stroke-miterlimit:10;" d="
			M162.702,61.126c0,15.593,0.215,34.446,5.909,49.01c4.283,10.956,13.638,20.73,25.331,22.015
			c6.347,0.697,12.684-1.117,18.732-3.162c56.297-19.032,115.293-61.904,157.362-103.529"/>
		<path style="fill:none;stroke:#0000FF;stroke-width:28.8;stroke-linecap:round;stroke-linejoin:round;stroke-miterlimit:10;" d="
			M370.035,25.459c-13.679,8.556-197.207,288.147-148,325.5c51,38.714,246.485-279.574,267.944-326.5"/>
		<path style="fill:none;stroke:#0000FF;stroke-width:28.8;stroke-linecap:round;stroke-linejoin:round;stroke-miterlimit:10;" d="
			M489.979,24.459c-27.95,78.225-285.11,644.927-410.944,622.5c-72.113-12.852-70.527-250.108-44.25-269.25
			c28.219-20.557,122.343,92.511,176.989,128.957c7.807,5.206,13.295,10.324,18.761,12.793"/>
		<path style="fill:none;stroke:#0000FF;stroke-width:28.8;stroke-linecap:round;stroke-linejoin:round;stroke-miterlimit:10;" d="
			M230.535,519.459c58,46.5,171.833,44.667,208.5-34.667"/>
	</g>
</g>
</svg>
