<?xml version="1.0" encoding="iso-8859-1"?>
<!-- Generator: Adobe Illustrator 17.0.0, SVG Export Plug-In . SVG Version: 6.00 Build 0)  -->
<!DOCTYPE svg PUBLIC "-//W3C//DTD SVG 1.1//EN" "http://www.w3.org/Graphics/SVG/1.1/DTD/svg11.dtd">
<svg version="1.1" xmlns="http://www.w3.org/2000/svg" xmlns:xlink="http://www.w3.org/1999/xlink" x="0px" y="0px"
	 width="443.969px" height="382.23px" viewBox="0 0 443.969 382.23" style="enable-background:new 0 0 443.969 382.23;"
	 xml:space="preserve">
<g id="font" style="display:none;">
	<path style="display:inline;stroke:#000000;stroke-width:9;stroke-linecap:round;stroke-linejoin:round;stroke-miterlimit:10;" d="
		M439.741,294.53c-0.362,0.84-11.217,18.061-31.479,35.28c-25.328,22.26-56.084,35.279-89.734,35.279
		c-106.017,0-246.769-151.199-301.405-151.199c-7.96,0-12.303-5.88-13.75-10.92c-2.895-10.92,4.704-18.899,8.684-23.1
		c14.473-15.12,42.696-36.54,69.472-57.96c24.243-19.319,52.104-41.16,73.452-60.06c14.111-12.6,23.157-21,28.585-26.88
		c-17.73,1.26-37.631,5.46-56.808,9.66c-38.354,8.399-68.386,14.699-83.945,0c-3.98-4.2-8.684-11.34-8.684-23.94
		c0-7.56,5.428-13.859,11.94-13.859c6.875,0,12.302,6.3,12.302,13.859c0,1.261,0,1.681,0.362,2.101c0,0,3.256,2.939,18.092,2.1
		c12.664-0.84,28.584-4.62,45.229-7.979c28.947-6.301,72.005-15.54,83.945-8.82c5.065,2.1,8.684,6.3,10.131,11.76
		c4.704,19.32-24.242,44.94-40.163,59.22c-38.354,34.44-107.464,84.42-137.134,110.46c49.571,0,173.679,146.999,279.696,146.999
		c26.776,0,52.104-9.66,74.538-28.56c17.368-14.7,26.775-29.82,26.775-29.82c3.98-6.3,11.579-7.979,17.006-3.359
		C442.274,279.41,443.721,288.23,439.741,294.53z"/>
</g>
<g id="vectorized-fonts">
	<path style="fill:none;stroke:#0000FF;stroke-width:28.8;stroke-linecap:round;stroke-linejoin:round;stroke-miterlimit:10;" d="
		M47.497,33.484c18.64,19.838,153.67-21.087,158.337-14.754C218.228,35.551,13.906,191.94,16.517,192.727
		c109.233,32.92,293.983,280.67,414.983,90.67"/>
</g>
</svg>
