<?xml version="1.0" encoding="iso-8859-1"?>
<!-- Generator: Adobe Illustrator 17.0.0, SVG Export Plug-In . SVG Version: 6.00 Build 0)  -->
<!DOCTYPE svg PUBLIC "-//W3C//DTD SVG 1.1//EN" "http://www.w3.org/Graphics/SVG/1.1/DTD/svg11.dtd">
<svg version="1.1" xmlns="http://www.w3.org/2000/svg" xmlns:xlink="http://www.w3.org/1999/xlink" x="0px" y="0px"
	 width="632.585px" height="597.06px" viewBox="0 0 632.585 597.06" style="enable-background:new 0 0 632.585 597.06;"
	 xml:space="preserve">
<g id="font" style="display:none;">
	<path style="display:inline;stroke:#000000;stroke-width:9;stroke-linecap:round;stroke-linejoin:round;stroke-miterlimit:10;" d="
		M262.443,220.535c-1.085,0.42-2.171,0.42-2.895,0.42c-5.428,0-10.493-4.2-11.94-10.5c-1.809-7.561,2.171-15.12,8.685-17.22
		c0.361,0,36.906-11.34,74.537-21c5.065-0.84,9.77-2.101,14.111-3.36c47.4-50.82,86.478-98.279,107.464-125.159
		c-31.117,2.52-84.669,8.399-138.22,21c-66.215,15.96-151.246,46.199-151.246,100.379c0,7.561-5.427,13.86-11.939,13.86
		c-6.875,0-12.303-6.3-12.303-13.86c0-33.6,19.177-62.159,56.808-85.68c67.301-41.159,210.948-65.52,284.038-65.52
		c7.236,0,12.302,5.88,12.302,14.28c0,14.7-77.069,102.479-103.483,132.719c20.986-2.94,31.479-1.68,37.631,5.04
		c3.979,4.2,5.427,10.08,4.703,16.38c-1.447,7.56-7.599,12.6-14.111,11.34c-3.256-0.84-6.151-2.94-7.96-5.88
		c-5.065-0.42-18.454,0-52.104,7.56c-34.373,37.8-95.161,97.859-149.074,138.6c95.162,99.539,212.396,216.719,304.301,216.719
		c32.926,0.42,60.787-13.02,84.668-40.74c4.704-5.46,12.303-5.46,17.006,0c5.066,5.46,5.066,14.28,0,19.74
		c-36.183,42.42-74.537,49.56-102.76,49.56c-76.347-1.68-157.396-65.939-224.336-128.519c-35.098-33.18-69.833-69.3-100.589-101.219
		c-30.032,20.159-65.13,40.319-99.142,40.319c-52.828,0-72.729-51.24-72.729-121.799c0-26.46,4.342-52.919,22.072-62.16
		c36.545-18.06,110.72,65.1,152.692,108.359c33.288-24.78,71.643-58.38,113.615-100.8c2.171-2.1,4.342-3.78,6.151-5.88
		L262.443,220.535z M46.068,231.875c-3.98,2.1-7.96,12.18-7.96,36.12c0,45.36,8.321,82.74,34.012,91.14
		c11.217,3.78,25.328,2.94,41.973-2.94c15.559-5.04,32.927-14.28,52.466-26.88c-35.098-36.12-94.076-98.28-117.596-98.28
		L46.068,231.875z"/>
</g>
<g id="vectorized-fonts">
	<g>
		<path style="fill:none;stroke:#0000FF;stroke-width:28.8;stroke-linecap:round;stroke-linejoin:round;stroke-miterlimit:10;" d="
			M148,172.821c-0.246-45.403,35.355-73.362,70.5-91.362c55.935-28.648,261.716-60.187,264.667-57.333
			C486.965,27.8,221.095,393.498,68.5,373.46c-49.5-6.5-50.254-148.653-28-158c21.875-9.188,109.856,72.441,139.649,106.515
			c4.256,4.868,7.351,8.818,9.843,11.288"/>
		<path style="fill:none;stroke:#0000FF;stroke-width:28.8;stroke-linecap:round;stroke-linejoin:round;stroke-miterlimit:10;" d="
			M190.992,333.793c2.848,2.646,6.979,7.71,10.376,11.137c75.152,75.82,279.085,329.352,410.799,170.53"/>
		<path style="fill:none;stroke:#0000FF;stroke-width:28.8;stroke-linecap:round;stroke-linejoin:round;stroke-miterlimit:10;" d="
			M254.846,209.793c49.044-16.782,116.321-30.333,170.575-36.007"/>
	</g>
</g>
</svg>
