<?xml version="1.0" encoding="iso-8859-1"?>
<!-- Generator: Adobe Illustrator 17.0.0, SVG Export Plug-In . SVG Version: 6.00 Build 0)  -->
<!DOCTYPE svg PUBLIC "-//W3C//DTD SVG 1.1//EN" "http://www.w3.org/Graphics/SVG/1.1/DTD/svg11.dtd">
<svg version="1.1" xmlns="http://www.w3.org/2000/svg" xmlns:xlink="http://www.w3.org/1999/xlink" x="0px" y="0px"
	 width="123.012px" height="71.772px" viewBox="0 0 123.012 71.772" style="enable-background:new 0 0 123.012 71.772;"
	 xml:space="preserve">
<g id="font" style="display:none;">
	<path style="display:inline;stroke:#000000;stroke-width:9;stroke-linecap:round;stroke-linejoin:round;stroke-miterlimit:10;" d="
		M106.908,46.958c-3.618,5.04-10.131,5.04-14.111,0c-1.809-1.68-6.151-6.3-24.243,2.94c-7.237,3.78-14.835,5.46-20.625,5.46
		c-14.473,0-24.604-9.66-30.756-18.06c-3.98-4.62-3.618-13.021,0.724-17.641c5.428-5.46,11.94-2.1,16.283,4.2v-0.84
		c0,0.84,2.533,3.78,5.789,6.72c6.151,2.101,12.665,1.681,20.625-2.52c12.302-6.72,32.203-14.28,46.314,2.939
		C111.25,35.199,111.25,42.339,106.908,46.958z"/>
</g>
<g id="vectorized-fonts">
	<path style="fill:none;stroke:#0000FF;stroke-width:28.8;stroke-linecap:round;stroke-linejoin:round;stroke-miterlimit:10;" d="
		M20.327,24.559c0,0,6.727,22.833,23.5,24.5c6.293,0.625,12.313-3.654,17.094-7.223c4.14-3.091,8.084-6.502,12.609-9.036
		c4.851-2.716,9.917-3.009,15.286-1.715c5.557,1.339,12.276,4.244,16.011,8.808"/>
</g>
</svg>
